<?xml version="1.0" encoding="utf-8"?>
<!-- Generator: Adobe Illustrator 27.5.0, SVG Export Plug-In . SVG Version: 6.00 Build 0)  -->
<svg version="1.1" xmlns="http://www.w3.org/2000/svg" xmlns:xlink="http://www.w3.org/1999/xlink" x="0px" y="0px"
	 viewBox="0 0 500 500" style="enable-background:new 0 0 500 500;" xml:space="preserve">
<g id="Background_Complete">
	<g>
		<rect y="382.398" style="fill:#EBEBEB;" width="500" height="0.25"/>
		<rect x="416.779" y="398.494" style="fill:#EBEBEB;" width="33.122" height="0.25"/>
		<rect x="322.527" y="401.208" style="fill:#EBEBEB;" width="8.693" height="0.25"/>
		<rect x="396.586" y="389.208" style="fill:#EBEBEB;" width="19.192" height="0.25"/>
		<rect x="52.459" y="390.888" style="fill:#EBEBEB;" width="43.193" height="0.25"/>
		<rect x="104.556" y="390.888" style="fill:#EBEBEB;" width="6.333" height="0.25"/>
		<rect x="131.471" y="395.111" style="fill:#EBEBEB;" width="93.676" height="0.25"/>
		<path style="fill:#EBEBEB;" d="M237.014,337.8H43.915c-3.147,0-5.708-2.561-5.708-5.708V60.66c0-3.147,2.561-5.708,5.708-5.708
			h193.099c3.146,0,5.707,2.561,5.707,5.708v271.432C242.721,335.239,240.16,337.8,237.014,337.8z M43.915,55.203
			c-3.01,0-5.458,2.448-5.458,5.458v271.432c0,3.01,2.448,5.458,5.458,5.458h193.099c3.009,0,5.457-2.448,5.457-5.458V60.66
			c0-3.009-2.448-5.458-5.457-5.458H43.915z"/>
		<path style="fill:#EBEBEB;" d="M453.31,337.8H260.212c-3.147,0-5.707-2.561-5.707-5.708V60.66c0-3.147,2.561-5.708,5.707-5.708
			H453.31c3.148,0,5.708,2.561,5.708,5.708v271.432C459.019,335.239,456.458,337.8,453.31,337.8z M260.212,55.203
			c-3.009,0-5.457,2.448-5.457,5.458v271.432c0,3.01,2.448,5.458,5.457,5.458H453.31c3.01,0,5.458-2.448,5.458-5.458V60.66
			c0-3.009-2.448-5.458-5.458-5.458H260.212z"/>
	</g>
	<g>
		<g>
			<g>
				<g>
					<g>
						
							<rect x="179.131" y="88.615" transform="matrix(-1 -1.224647e-16 1.224647e-16 -1 589.9572 331.2953)" style="fill:#E6E6E6;" width="231.695" height="154.066"/>
						
							<rect x="175.545" y="88.615" transform="matrix(-1 -1.224647e-16 1.224647e-16 -1 582.7853 331.2953)" style="fill:#F5F5F5;" width="231.695" height="154.066"/>
						
							<rect x="221.59" y="56.237" transform="matrix(-1.836970e-16 1 -1 -1.836970e-16 457.0404 -125.745)" style="fill:#FFFFFF;" width="139.605" height="218.821"/>
						
							<rect x="113.535" y="164.292" transform="matrix(-1.836970e-16 1 -1 -1.836970e-16 348.9854 -17.69)" style="fill:#E6E6E6;" width="139.605" height="2.711"/>
						
							<rect x="178.208" y="192.058" transform="matrix(-1 -1.224647e-16 1.224647e-16 -1 582.7853 393.8234)" style="fill:#F5F5F5;" width="226.37" height="9.707"/>
					</g>
				</g>
			</g>
			<g style="opacity:0.4;">
				<rect x="168.362" y="81.008" style="fill:#E6E6E6;" width="21.875" height="130.344"/>
				
					<rect x="190.236" y="81.008" transform="matrix(-1 -1.224647e-16 1.224647e-16 -1 391.3163 281.8858)" style="fill:#F5F5F5;" width="10.844" height="119.87"/>
				<rect x="201.08" y="81.008" style="fill:#E6E6E6;" width="21.875" height="130.344"/>
				
					<rect x="222.955" y="81.008" transform="matrix(-1 -1.224647e-16 1.224647e-16 -1 456.7533 281.8858)" style="fill:#F5F5F5;" width="10.844" height="119.87"/>
				<rect x="233.799" y="81.008" style="fill:#E6E6E6;" width="21.875" height="130.344"/>
				
					<rect x="255.673" y="81.008" transform="matrix(-1 -1.224647e-16 1.224647e-16 -1 522.1902 281.8858)" style="fill:#F5F5F5;" width="10.844" height="119.87"/>
				<rect x="266.517" y="81.008" style="fill:#E6E6E6;" width="21.875" height="130.344"/>
				
					<rect x="288.392" y="81.008" transform="matrix(-1 -1.224647e-16 1.224647e-16 -1 587.6271 281.8858)" style="fill:#F5F5F5;" width="10.844" height="119.87"/>
				<rect x="299.236" y="81.008" style="fill:#E6E6E6;" width="21.875" height="130.344"/>
				
					<rect x="321.11" y="81.008" transform="matrix(-1 -1.224647e-16 1.224647e-16 -1 653.0641 281.8858)" style="fill:#F5F5F5;" width="10.844" height="119.87"/>
				<rect x="331.954" y="81.008" style="fill:#E6E6E6;" width="21.875" height="130.344"/>
				
					<rect x="353.829" y="81.008" transform="matrix(-1 -1.224647e-16 1.224647e-16 -1 718.5011 281.8858)" style="fill:#F5F5F5;" width="10.844" height="119.87"/>
				<rect x="364.672" y="81.008" style="fill:#E6E6E6;" width="21.875" height="130.344"/>
				
					<rect x="386.547" y="81.008" transform="matrix(-1 -1.224647e-16 1.224647e-16 -1 783.9381 281.8858)" style="fill:#F5F5F5;" width="10.844" height="119.87"/>
				<rect x="397.391" y="81.008" style="fill:#E6E6E6;" width="21.875" height="130.344"/>
			</g>
		</g>
		<g>
			
				<rect x="82.793" y="277" transform="matrix(-1 -1.224647e-16 1.224647e-16 -1 216.8743 659.3984)" style="fill:#EBEBEB;" width="51.288" height="105.398"/>
			<polygon style="fill:#F5F5F5;" points="92.535,382.398 82.793,382.398 82.793,360.934 102.748,360.934 			"/>
			
				<rect x="375.429" y="277" transform="matrix(-1 -1.224647e-16 1.224647e-16 -1 802.1453 659.3984)" style="fill:#EBEBEB;" width="51.288" height="105.398"/>
			
				<rect x="82.793" y="277" transform="matrix(-1 -1.224647e-16 1.224647e-16 -1 466.7233 646.2273)" style="fill:#F5F5F5;" width="301.137" height="92.227"/>
			<g>
				<path style="fill:#E6E6E6;" d="M373.918,343.208h-89.269c-0.453,0-0.82-0.367-0.82-0.821v-58.36c0-0.453,0.367-0.821,0.82-0.821
					h16.485c0.176,0,0.347,0.056,0.488,0.161c2.365,1.749,5.074,3.138,8.05,4.129c3.409,1.141,7.036,1.72,10.781,1.72h17.66
					c7.055,0,13.742-2.077,18.831-5.848c0.141-0.105,0.313-0.161,0.488-0.161h16.484c0.453,0,0.82,0.367,0.82,0.821v58.36
					C374.738,342.841,374.371,343.208,373.918,343.208z M285.47,341.567h87.628v-56.718h-15.396
					c-5.34,3.877-12.284,6.009-19.588,6.009h-17.66c-3.923,0-7.725-0.607-11.301-1.804c-3.047-1.014-5.834-2.429-8.287-4.205H285.47
					V341.567z"/>
			</g>
			<g>
				<path style="fill:#E6E6E6;" d="M277.992,343.208h-89.269c-0.453,0-0.82-0.367-0.82-0.821v-58.36c0-0.453,0.367-0.821,0.82-0.821
					h15.591c0.176,0,0.347,0.056,0.488,0.161c2.381,1.761,5.089,3.15,8.049,4.128c3.41,1.142,7.037,1.72,10.782,1.72h17.66
					c7.043,0,13.724-2.077,18.811-5.848c0.141-0.105,0.313-0.161,0.488-0.161h17.399c0.453,0,0.82,0.367,0.82,0.821v58.36
					C278.813,342.841,278.445,343.208,277.992,343.208z M189.543,341.567h87.629v-56.718h-16.311
					c-5.339,3.877-12.276,6.009-19.568,6.009h-17.66c-3.923,0-7.725-0.607-11.301-1.804c-3.031-1.003-5.819-2.417-8.287-4.205
					h-14.502V341.567z"/>
			</g>
			<g>
				<path style="fill:#E6E6E6;" d="M182.065,343.208H92.797c-0.453,0-0.82-0.367-0.82-0.821v-58.36c0-0.453,0.367-0.821,0.82-0.821
					h15.59c0.176,0,0.347,0.056,0.487,0.161c2.368,1.75,5.077,3.139,8.051,4.129c3.409,1.141,7.036,1.72,10.781,1.72h17.66
					c7.055,0,13.742-2.077,18.831-5.848c0.141-0.105,0.313-0.161,0.488-0.161h17.38c0.453,0,0.82,0.367,0.82,0.821v58.36
					C182.886,342.841,182.519,343.208,182.065,343.208z M93.617,341.567h87.628v-56.718h-16.291
					c-5.34,3.877-12.284,6.009-19.588,6.009h-17.66c-3.923,0-7.725-0.607-11.301-1.804c-3.046-1.014-5.833-2.428-8.287-4.205H93.617
					V341.567z"/>
			</g>
			<polygon style="fill:#F5F5F5;" points="374.189,382.398 383.93,382.398 383.93,360.934 363.975,360.934 			"/>
		</g>
		<g>
			<path style="fill:#E6E6E6;" d="M143.944,259.341l-8.09,0c0.055-5.604-0.027-19.817-0.573-52.392
				c-0.982-59.043-2.866-62.643-2.866-62.643l9.613,29.14c2.262,6.857,3.622,13.99,3.945,21.203
				C146.989,217.367,143.021,235.507,143.944,259.341z"/>
			<path style="fill:#E6E6E6;" d="M150.087,164.663c10.79-16.331,32.332-24.853,54.349-32.875
				c8.644-3.15-15.617,35.925-33.256,53.638c-13.702,13.76-26.947,13.453-30.927,27.054
				C139.49,196.692,140.79,178.735,150.087,164.663z"/>
			<path style="fill:#E6E6E6;" d="M137.727,154.177c-8.455-19.097-29.829-43.865-53.85-61.315
				c-9.431-6.851,13.84,51.956,30.254,76.053c12.779,18.76,24.703,30.181,26.558,43.564
				C148.745,195.738,146.182,173.275,137.727,154.177z"/>
			<g>
				<path style="fill:#F0F0F0;" d="M138.529,277L138.529,277c9.494,0,17.339-7.407,17.884-16.885l1.582-16.194h-38.933l1.582,16.194
					C121.189,269.593,129.035,277,138.529,277z"/>
				<polygon style="fill:#F0F0F0;" points="116.541,244.008 160.516,244.008 161.775,238.256 115.282,238.256 				"/>
				<polygon style="fill:#F0F0F0;" points="118.708,253.872 158.349,253.872 159.485,248.12 117.572,248.12 				"/>
			</g>
		</g>
	</g>
</g>
<g id="Background_Simple" style="display:none;">
	<g style="display:inline;">
		<path style="fill:#1376F8;" d="M317.021,115.528c-32.868-19.074-86.884-21.376-117.563,1.068
			c-33.88,24.786-28.675,71.831-63.338,94.177c-35.248,22.724-77.555,13.063-72.895,71.573
			c3.592,45.099,42.028,57.149,78.987,69.144c66.354,21.534,194.812,45.422,241.554-26.171
			C437.003,243.778,390.7,158.286,317.021,115.528z"/>
		<path style="opacity:0.9;fill:#FFFFFF;" d="M317.021,115.528c-32.868-19.074-86.884-21.376-117.563,1.068
			c-33.88,24.786-28.675,71.831-63.338,94.177c-35.248,22.724-77.555,13.063-72.895,71.573
			c3.592,45.099,42.028,57.149,78.987,69.144c66.354,21.534,194.812,45.422,241.554-26.171
			C437.003,243.778,390.7,158.286,317.021,115.528z"/>
	</g>
</g>
<g id="Shadow_1_">
	<ellipse id="_x3C_Path_x3E__93_" style="fill:#F5F5F5;" cx="250" cy="416.238" rx="193.889" ry="11.323"/>
</g>
<g id="Table">
	<g>
		<g>
			<rect x="94.715" y="318.333" style="fill:#1376F8;" width="310.571" height="35.159"/>
			<rect x="338.667" y="318.333" style="opacity:0.3;" width="66.619" height="35.159"/>
		</g>
		<g>
			<rect x="94.715" y="353.493" style="fill:#1376F8;" width="34.285" height="62.745"/>
			<polygon style="opacity:0.3;" points="94.715,353.493 94.715,357 119,364.333 119,416.238 129,416.238 129,353.493 			"/>
		</g>
		<g>
			<g>
				<rect x="371" y="353.493" style="fill:#1376F8;" width="34.285" height="62.745"/>
				<rect x="371" y="353.493" style="opacity:0.2;" width="34.285" height="62.745"/>
			</g>
			<polygon style="opacity:0.3;" points="371,353.493 371,357 395.285,364.333 395.285,416.238 405.285,416.238 405.285,353.493 			
				"/>
		</g>
		<g>
			<rect x="304.381" y="353.493" style="fill:#1376F8;" width="34.285" height="62.745"/>
			<polygon style="opacity:0.3;" points="304.381,353.493 304.381,357 328.667,364.333 328.667,416.238 338.667,416.238 
				338.667,353.493 			"/>
		</g>
		<g>
			<g>
				<rect x="161.333" y="353.493" style="fill:#1376F8;" width="34.285" height="62.745"/>
				<rect x="161.333" y="353.493" style="opacity:0.2;" width="34.285" height="62.745"/>
			</g>
			<polygon style="opacity:0.3;" points="161.333,353.493 161.333,357 185.619,364.333 185.619,416.238 195.619,416.238 
				195.619,353.493 			"/>
		</g>
	</g>
</g>
<g id="Character">
	<g>
		<g>
			<g>
				<g>
					<path style="fill:#263238;" d="M362.476,311.417H172.603c-2.527,0-4.464-2.067-4.304-4.594l7.823-124.096
						c0.159-2.527,2.357-4.594,4.883-4.594h189.872c2.527,0,4.464,2.067,4.304,4.594l-7.823,124.096
						C367.2,309.349,365.002,311.417,362.476,311.417z"/>
					<path style="opacity:0.6;" d="M362.476,311.417H172.603c-2.527,0-4.464-2.067-4.304-4.594l7.823-124.096
						c0.159-2.527,2.357-4.594,4.883-4.594h189.872c2.527,0,4.464,2.067,4.304,4.594l-7.823,124.096
						C367.2,309.349,365.002,311.417,362.476,311.417z"/>
				</g>
				<g>
					<path style="fill:#263238;" d="M361.059,311.417H171.186c-2.527,0-4.464-2.067-4.304-4.594l7.823-124.096
						c0.159-2.527,2.357-4.594,4.883-4.594h189.872c2.527,0,4.464,2.067,4.304,4.594l-7.823,124.096
						C365.783,309.349,363.585,311.417,361.059,311.417z"/>
				</g>
				<g>
					<g>
						<path style="fill:#263238;" d="M360.818,312.979H134.887c-2.184,0-4.08,1.272-4.953,3.096
							c-0.502,1.049,0.266,2.258,1.45,2.258h232.938c1.183,0,1.952-1.209,1.449-2.258
							C364.897,314.25,363.002,312.979,360.818,312.979z"/>
					</g>
					<path style="opacity:0.6;" d="M360.818,312.979h-32.13c-2.184,0-4.079,1.272-4.953,3.096c-0.502,1.049,0.266,2.258,1.449,2.258
						h39.137c1.183,0,1.952-1.209,1.449-2.258C364.897,314.25,363.002,312.979,360.818,312.979z"/>
					<path style="fill:#1376F8;" d="M340.896,316.896h-8.292c-0.401,0-0.729-0.328-0.729-0.729l0,0c0-0.401,0.328-0.729,0.729-0.729
						h8.292c0.401,0,0.729,0.328,0.729,0.729l0,0C341.625,316.568,341.297,316.896,340.896,316.896z"/>
					<path style="opacity:0.7;fill:#FFFFFF;" d="M234.168,316.896h-8.292c-0.401,0-0.729-0.328-0.729-0.729l0,0
						c0-0.401,0.328-0.729,0.729-0.729h8.292c0.401,0,0.729,0.328,0.729,0.729l0,0C234.897,316.568,234.569,316.896,234.168,316.896
						z"/>
					<path style="fill:#1376F8;" d="M349.482,316.896h-5.423c-0.331,0-0.601-0.27-0.601-0.601v-0.256
						c0-0.331,0.27-0.601,0.601-0.601h5.423c0.331,0,0.601,0.271,0.601,0.601v0.256
						C350.083,316.625,349.813,316.896,349.482,316.896z"/>
				</g>
				<path style="fill:#FFFFFF;" d="M171.163,302.335l7.257-115.121c0.062-0.984,0.918-1.789,1.902-1.789h187.484
					c0.984,0,1.738,0.805,1.676,1.789l-7.257,115.121c-0.062,0.984-0.918,1.789-1.902,1.789H172.84
					C171.856,304.124,171.101,303.319,171.163,302.335z"/>
				<path style="opacity:0.1;fill:#1376F8;" d="M277.82,181.88l-62.45,118.7H169.3c-0.99,0-1.74-0.8-1.68-1.79l7.26-115.12
					c0.06-0.98,0.92-1.79,1.9-1.79H277.82z"/>
				<polygon style="opacity:0.1;fill:#1376F8;" points="332.51,181.88 270.06,300.58 255.5,300.58 317.95,181.88 				"/>
				<path style="opacity:0.1;fill:#1376F8;" d="M365.94,183.67l-7.26,115.12c-0.06,0.99-0.92,1.79-1.9,1.79h-70.97l62.45-118.7h16
					C365.25,181.88,366,182.69,365.94,183.67z"/>
				<path style="opacity:0.4;fill:#FFFFFF;" d="M275.628,181.98c-0.047,0.743-0.688,1.346-1.431,1.346
					c-0.744,0-1.308-0.603-1.262-1.346c0.047-0.744,0.688-1.346,1.431-1.346C275.11,180.633,275.675,181.236,275.628,181.98z"/>
			</g>
		</g>
		<g>
			<g>
				<path style="fill:#263238;" d="M244.648,154.394c-5.466,6.259-8.627,25.444-4.574,34.889
					c4.053,9.444-42.947,18.889-4.169,34.222c38.778,15.333,69.778-2.444,58.556-18.333s1.208-42.347-11.78-49.027
					C270.936,150.106,255.612,141.839,244.648,154.394z"/>
				<path style="fill:#E4897B;" d="M233.061,231.659c-2.054,7.043-4.233,14.034-6.493,21.01c-2.281,6.973-4.611,13.918-7.102,20.873
					l-0.949,2.615l-0.482,1.312l-0.149,0.395l-0.236,0.584c-0.146,0.377-0.376,0.796-0.579,1.185
					c-0.857,1.594-2.383,3.264-4.207,4.26c-1.826,0.997-3.706,1.344-5.247,1.379c-3.128,0.047-5.403-0.704-7.489-1.472
					c-2.061-0.818-3.89-1.774-5.632-2.783c-6.88-4.125-12.51-9.005-17.881-14.455l4.311-5.081c1.454,0.926,2.994,1.916,4.503,2.847
					c1.52,0.938,3.066,1.827,4.59,2.72c3.066,1.75,6.158,3.408,9.21,4.714c1.517,0.652,3.032,1.208,4.435,1.57
					c1.37,0.388,2.723,0.52,3.265,0.378c0.284-0.052,0.226-0.159-0.006-0.068c-0.244,0.073-0.481,0.345-0.494,0.318
					c-0.012-0.026-0.005-0.002-0.005-0.059c0.001-0.02,0.004-0.039,0.009-0.057l0.076-0.253l0.384-1.292l0.762-2.6l6.118-21
					c2.077-7.002,4.202-14.002,6.419-20.958L233.061,231.659z"/>
				<path style="fill:#E4897B;" d="M180.624,261.301l-11.584-4.318l4.615,12.273c0,0,8.194,1.184,11.374-3.13l-2.591-3.466
					C181.976,262.042,181.346,261.57,180.624,261.301z"/>
				<polygon style="fill:#E4897B;" points="158.747,260.573 163.167,270.639 173.655,269.256 169.04,256.983 				"/>
				<g>
					<path style="fill:#1376F8;" d="M224.576,213.551c-5.314,1.353-9.031,23.221-9.031,23.221l14.644,9.958
						c0,0,14.04-22.061,9.952-27.903C235.883,212.743,232.331,211.577,224.576,213.551z"/>
					<path style="opacity:0.5;fill:#FFFFFF;" d="M224.576,213.551c-5.314,1.353-9.031,23.221-9.031,23.221l14.644,9.958
						c0,0,14.04-22.061,9.952-27.903C235.883,212.743,232.331,211.577,224.576,213.551z"/>
				</g>
				<path style="opacity:0.2;" d="M224.095,221.5l11.375,2.635l1.091,11.12c-2.975,6.134-6.375,11.474-6.375,11.474l-8.882-6.035
					C221.687,235.581,222.65,224.957,224.095,221.5z"/>
				<g>
					<path style="fill:#1376F8;" d="M224.576,213.551c0,0-6.142,2.163,6.162,77.817c20.779,0,42.253,0,52.364,0
						c-0.879-21.312-0.904-34.453,9.282-78.191c0,0-10.972-2.387-22.236-2.93c-8.812-0.425-16.031-0.706-23.778,0.001
						C236.158,211.181,224.576,213.551,224.576,213.551z"/>
					<path style="opacity:0.5;fill:#FFFFFF;" d="M224.576,213.551c0,0-6.142,2.163,6.162,77.817c20.779,0,42.253,0,52.364,0
						c-0.879-21.312-0.904-34.453,9.282-78.191c0,0-10.972-2.387-22.236-2.93c-8.812-0.425-16.031-0.706-23.778,0.001
						C236.158,211.181,224.576,213.551,224.576,213.551z"/>
				</g>
				<path style="opacity:0.2;" d="M280.064,233.484l6.757,5.751c-1.445,7.65-2.409,14.024-3.032,19.69
					C282.529,253.245,279.313,237.833,280.064,233.484z"/>
				<path style="fill:#E4897B;" d="M267.792,183.474c-1.5,7.651-2.997,21.669,2.356,26.774c0,0-4.967,11.462-18.251,11.462
					c-13.283,0-5.527-11.461-5.527-11.461c8.531-2.037,8.311-8.367,6.825-14.312L267.792,183.474z"/>
				<path style="fill:#FAFAFA;" d="M268.445,207.387c-1.258,2.552-5.313,8.388-16.66,10.458c-0.31,0.057-0.645,0.004-0.903-0.176
					c-2.127-1.484-3.438-4.609-2.509-8.236c0.256-0.998-0.707-1.88-1.659-1.485c-1.125,0.467-2.07,1.045-2.503,1.327
					c-0.176,0.115-0.314,0.269-0.413,0.455c-0.825,1.563-4.184,9.198,5.953,13.906c0.16,0.074,0.335,0.117,0.512,0.12
					c5.953,0.125,16.487-1.051,23.119-13.016c0.243-0.438,0.199-0.987-0.111-1.379c-0.732-0.925-2.07-1.852-3.066-2.467
					C269.585,206.511,268.768,206.733,268.445,207.387z"/>
				<path style="fill:#FAFAFA;" d="M271.231,238.868l-13.5-0.391c-0.596-0.017-1.045-0.518-0.999-1.112l0.13-1.663
					c0.047-0.594,0.572-1.067,1.168-1.049l13.5,0.391c0.596,0.017,1.045,0.518,0.999,1.112l-0.13,1.663
					C272.352,238.413,271.827,238.886,271.231,238.868z"/>
				<path style="opacity:0.2;" d="M261.841,188.559l-8.639,7.371c0.357,1.407,0.634,2.834,0.733,4.221
					c3.259-0.471,7.737-4.049,8.082-7.461C262.19,190.988,262.119,189.352,261.841,188.559z"/>
				<path style="fill:#E4897B;" d="M277.873,169.021c-2.415,12.566-3.168,17.936-10.406,23.611
					c-10.887,8.536-25.793,2.822-27.182-10.212c-1.25-11.732,2.909-30.311,15.959-33.75
					C269.101,145.282,280.288,156.454,277.873,169.021z"/>
				<path style="fill:#263238;" d="M270.716,159.7c-1.555,7.873-1.922,18.333,5.328,18.333s12.857-12.275,6.637-21.888
					C276.461,146.533,271.633,155.059,270.716,159.7z"/>
				<path style="fill:#263238;" d="M283.183,160.672c0.003,8.556-10.778,4.325-15.556,0.635c-4.778-3.69-5.041-3.285-13.833-3.301
					c-8.792-0.016-10.611-0.611-13.222-4.833s-2.376-7,3.506-6.111c5.883,0.889,0.938-5.111,5.327-8.444
					c4.389-3.333,9.564-2.491,15.556,5.111C270.952,151.329,283.177,145.837,283.183,160.672z"/>
				<g>
					
						<ellipse transform="matrix(0.2813 -0.9596 0.9596 0.2813 26.3493 392.877)" style="fill:#FFFFFF;" cx="275.466" cy="178.847" rx="7.301" ry="4.73"/>
					<path style="fill:#FFFFFF;" d="M259.956,189.857c-2.286,0-4.571-0.461-6.743-1.383c-0.19-0.081-0.279-0.301-0.198-0.492
						c0.081-0.191,0.3-0.279,0.491-0.199c4.101,1.74,8.626,1.764,12.738,0.068c4.02-1.657,7.131-4.764,8.758-8.75
						c3.031-8.587,6.063-19.316,2.517-25.965c-1.376-2.582-3.696-4.308-6.896-5.131c-0.2-0.052-0.321-0.256-0.27-0.456
						c0.052-0.2,0.25-0.322,0.457-0.27c3.411,0.878,5.892,2.73,7.371,5.504c3.684,6.908,0.61,17.836-2.478,26.585
						c-1.71,4.19-4.966,7.443-9.173,9.177C264.408,189.42,262.182,189.857,259.956,189.857z"/>
					<path style="opacity:0.6;fill:#1376F8;" d="M279.653,180.217c-0.891,3.041-2.936,5.118-4.567,4.64
						c-1.631-0.478-2.23-3.331-1.339-6.371s2.936-5.118,4.567-4.64C279.945,174.323,280.545,177.176,279.653,180.217z"/>
					<path style="fill:#FFFFFF;" d="M253.768,189.519l-3.912-0.755c-0.687-0.132-1.14-0.803-1.008-1.49l0.042-0.219
						c0.133-0.687,0.803-1.14,1.49-1.008l3.912,0.755c0.687,0.132,1.14,0.803,1.008,1.49l-0.042,0.219
						C255.125,189.198,254.455,189.651,253.768,189.519z"/>
				</g>
				<path style="fill:#DE5753;" d="M249.175,170.046c0,0-2.324,4.214-4.527,6.107c1.197,1.447,3.588,1.165,3.588,1.165
					L249.175,170.046z"/>
				<path style="fill:#263238;" d="M251.384,182.695c0.024,0.016,0.052,0.026,0.083,0.03c3.486,0.434,6.187-1.824,6.301-1.921
					c0.082-0.07,0.092-0.193,0.022-0.275c-0.07-0.082-0.192-0.091-0.275-0.022c-0.026,0.022-2.689,2.243-6,1.831
					c-0.107-0.014-0.204,0.062-0.217,0.169C251.288,182.585,251.324,182.656,251.384,182.695z"/>
				<path style="fill:#263238;" d="M262.817,165.104c0.116,0.053,0.254,0.048,0.369-0.024c0.182-0.115,0.237-0.355,0.123-0.537
					c-1.736-2.761-4.438-2.836-4.552-2.839c-0.215-0.003-0.391,0.167-0.395,0.382c-0.004,0.214,0.167,0.392,0.381,0.397
					c0.097,0.002,2.402,0.082,3.906,2.474C262.691,165.024,262.75,165.073,262.817,165.104z"/>
				<path style="fill:#263238;" d="M257.093,170.22c-0.176,1.032-0.865,1.775-1.539,1.66c-0.674-0.115-1.078-1.044-0.903-2.076
					c0.176-1.031,0.865-1.775,1.539-1.66C256.864,168.26,257.268,169.189,257.093,170.22z"/>
				<path style="fill:#263238;" d="M245.433,168.235c-0.176,1.031-0.865,1.775-1.539,1.66c-0.674-0.115-1.078-1.044-0.903-2.076
					c0.176-1.032,0.865-1.775,1.539-1.66C245.205,166.275,245.609,167.204,245.433,168.235z"/>
				<path style="fill:#263238;" d="M244.818,166.268l-2.356-1.136C242.462,165.132,243.404,167.283,244.818,166.268z"/>
				<path style="fill:#263238;" d="M256.478,168.253l-2.356-1.136C254.122,167.117,255.064,169.268,256.478,168.253z"/>
				<path style="fill:#263238;" d="M241.472,161.272c0.127,0.058,0.28,0.045,0.399-0.045c2.241-1.719,4.431-0.992,4.523-0.96
					c0.203,0.069,0.425-0.037,0.496-0.24c0.071-0.203-0.04-0.427-0.238-0.495c-0.108-0.038-2.669-0.907-5.255,1.078
					c-0.171,0.131-0.203,0.375-0.072,0.546C241.365,161.207,241.417,161.246,241.472,161.272z"/>
				<g>
					<path style="fill:#1376F8;" d="M228.753,304.124c0,0-0.142-7.166,1.985-12.756c4.571,0,52.364,0,52.364,0
						s4.707,7.603,5.929,12.756C283.142,304.124,228.753,304.124,228.753,304.124z"/>
					<path style="fill:#1376F8;" d="M283.886,288.295l0.418,4.687c0.183,0.364-0.247,0.734-0.853,0.734h-52.972
						c-0.472,0-0.863-0.231-0.893-0.528l-0.472-4.687c-0.033-0.325,0.376-0.6,0.893-0.6h53.027
						C283.423,287.902,283.768,288.061,283.886,288.295z"/>
					<path style="opacity:0.3;fill:#FAFAFA;" d="M283.886,288.295l0.418,4.687c0.183,0.364-0.247,0.734-0.853,0.734h-52.972
						c-0.472,0-0.863-0.231-0.893-0.528l-0.472-4.687c-0.033-0.325,0.376-0.6,0.893-0.6h53.027
						C283.423,287.902,283.768,288.061,283.886,288.295z"/>
				</g>
				<path style="fill:#1376F8;" d="M276.764,294.224h1.42c0.283,0,0.498-0.146,0.479-0.324l-0.666-6.09
					c-0.02-0.178-0.267-0.324-0.55-0.324h-1.42c-0.283,0-0.498,0.146-0.479,0.324l0.666,6.09
					C276.234,294.078,276.481,294.224,276.764,294.224z"/>
				<path style="fill:#1376F8;" d="M234.47,294.224h1.42c0.283,0,0.498-0.146,0.479-0.324l-0.666-6.09
					c-0.02-0.178-0.267-0.324-0.55-0.324h-1.42c-0.283,0-0.498,0.146-0.479,0.324l0.666,6.09
					C233.94,294.078,234.187,294.224,234.47,294.224z"/>
				<path style="fill:#1376F8;" d="M255.617,294.224h1.42c0.283,0,0.498-0.146,0.479-0.324l-0.666-6.09
					c-0.02-0.178-0.267-0.324-0.55-0.324h-1.42c-0.283,0-0.498,0.146-0.479,0.324l0.666,6.09
					C255.087,294.078,255.334,294.224,255.617,294.224z"/>
			</g>
			<g>
				<path style="fill:#E4897B;" d="M296.862,227.953c2.303,7.468,4.513,14.989,6.63,22.514l3.187,11.266l1.59,5.595l0.404,1.381
					l0.202,0.691l0.047,0.162l0.009,0.039c0.006,0.037,0.005,0.026,0.002,0.038l-0.164-0.247c-0.133-0.18-0.347-0.5-0.921-0.94
					c-0.538-0.435-1.635-0.922-2.679-0.948c-1.04-0.041-1.753,0.241-2.119,0.418c-0.72,0.386-0.65,0.481-0.594,0.411
					c0.087-0.063,0.271-0.25,0.466-0.491c0.398-0.484,0.853-1.15,1.293-1.857c0.887-1.432,1.75-3.057,2.576-4.717
					c1.693-3.321,3.233-6.843,4.78-10.374c1.526-3.544,3.025-7.129,4.494-10.734c1.519-3.583,2.935-7.24,4.414-10.825l6.385,1.905
					c-1.655,7.799-3.597,15.454-5.98,23.092c-1.177,3.826-2.488,7.618-3.995,11.461c-0.781,1.918-1.611,3.836-2.639,5.829
					c-0.524,1.001-1.087,2.016-1.839,3.121c-0.38,0.553-0.81,1.134-1.399,1.781c-0.621,0.634-1.297,1.393-2.903,2.207
					c-0.808,0.385-2.007,0.799-3.539,0.737c-1.537-0.039-3.104-0.734-4.029-1.467c-0.962-0.74-1.49-1.445-1.892-2.034
					c-0.399-0.601-0.629-1.079-0.845-1.548c-0.093-0.216-0.195-0.45-0.267-0.646l-0.184-0.494l-0.261-0.706l-0.522-1.411
					c-0.679-1.876-1.365-3.74-2.001-5.612c-1.281-3.743-2.56-7.472-3.762-11.222c-2.449-7.488-4.726-15.003-6.853-22.589
					L296.862,227.953z"/>
				<g>
					<path style="fill:#1376F8;" d="M292.384,213.177c5.246,1.595,13.276,22.185,13.276,22.185l-20.353,14.552
						c0,0-9.152-17.605-6.947-24.387C280.656,218.466,286.398,211.357,292.384,213.177z"/>
					<path style="opacity:0.5;fill:#FFFFFF;" d="M292.384,213.177c5.246,1.595,13.276,22.185,13.276,22.185l-20.353,14.552
						c0,0-9.152-17.605-6.947-24.387C280.656,218.466,286.398,211.357,292.384,213.177z"/>
				</g>
				<path style="fill:#E4897B;" d="M320.703,232.054l-2.791-12.304l11.596,6.119c0,0,0.146,8.278-4.533,10.891L320.703,232.054z"/>
				<polygon style="fill:#E4897B;" points="322.766,209.99 330.167,215.235 329.508,225.869 317.912,219.75 				"/>
			</g>
		</g>
	</g>
</g>
<g id="Chat">
	<g>
		<g>
			<path style="fill:#1376F8;" d="M115.007,148.086h81c6.6,0,11.669,5.4,11.265,12l-2.245,36.666c-0.404,6.6-6.135,12-12.735,12
				h-9.38l3.832,12.587l-18.329-12.587h-57.123c-6.6,0-11.669-5.4-11.265-12l2.245-36.666
				C102.676,153.486,108.407,148.086,115.007,148.086z"/>
			<g>
				<path style="fill:#FFFFFF;" d="M188.584,167.292h-68.506c-1.243,0-2.198-1.017-2.122-2.26l0,0
					c0.076-1.243,1.156-2.26,2.399-2.26h68.506c1.243,0,2.198,1.017,2.122,2.26l0,0
					C190.907,166.275,189.828,167.292,188.584,167.292z"/>
				<path style="fill:#FFFFFF;" d="M148.037,180.68h-28.779c-1.243,0-2.198-1.017-2.122-2.26l0,0c0.076-1.243,1.156-2.26,2.399-2.26
					h28.779c1.243,0,2.198,1.017,2.122,2.26l0,0C150.36,179.662,149.281,180.68,148.037,180.68z"/>
				<path style="fill:#FFFFFF;" d="M172.632,194.067h-54.193c-1.243,0-2.198-1.017-2.122-2.26l0,0
					c0.076-1.243,1.156-2.26,2.399-2.26h54.193c1.243,0,2.198,1.017,2.122,2.26l0,0C174.955,193.05,173.875,194.067,172.632,194.067
					z"/>
				<path style="fill:#FFFFFF;" d="M169.106,180.68h-11.321c-1.243,0-2.198-1.017-2.122-2.26l0,0c0.076-1.243,1.156-2.26,2.399-2.26
					h11.321c1.243,0,2.198,1.017,2.122,2.26l0,0C171.428,179.662,170.349,180.68,169.106,180.68z"/>
			</g>
		</g>
		<g>
			<g>
				<g>
					<path style="fill:#1376F8;" d="M227.792,82.188H183.63c-5.136,0-9.595,4.202-9.909,9.337l-1.747,28.531
						c-0.314,5.136,3.63,9.337,8.766,9.337h7.299l-4.181,9.794l15.461-9.794h25.582c5.135,0,9.595-4.202,9.909-9.337l1.747-28.531
						C236.872,86.389,232.927,82.188,227.792,82.188z"/>
				</g>
				<g style="opacity:0.5;">
					<path style="fill:#FAFAFA;" d="M227.792,82.188H183.63c-5.136,0-9.595,4.202-9.909,9.337l-1.747,28.531
						c-0.314,5.136,3.63,9.337,8.766,9.337h7.299l-4.181,9.794l15.461-9.794h25.582c5.135,0,9.595-4.202,9.909-9.337l1.747-28.531
						C236.872,86.389,232.927,82.188,227.792,82.188z"/>
				</g>
			</g>
			<g>
				<path style="fill:#FFFFFF;" d="M206.498,110.46c-0.275,1.291-1.495,2.214-2.8,2.214h-2.606c0.032-0.742,0.053-1.194,0.063-1.356
					c0.102-1.673,0.463-3.049,1.082-4.129c0.619-1.079,1.8-2.294,3.543-3.643c1.742-1.349,2.788-2.233,3.138-2.651
					c0.539-0.661,0.834-1.39,0.883-2.186c0.068-1.106-0.317-2.054-1.152-2.844c-0.836-0.789-2.003-1.184-3.5-1.184
					c-1.444,0-2.677,0.412-3.699,1.235c-0.593,0.478-1.093,1.101-1.5,1.87c-0.576,1.089-1.72,1.771-2.904,1.623l0,0
					c-1.828-0.229-2.806-2.231-1.84-3.873c0.569-0.968,1.333-1.853,2.29-2.656c2.012-1.687,4.57-2.53,7.674-2.53
					c3.266,0,5.811,0.854,7.636,2.56c1.825,1.707,2.668,3.694,2.529,5.961c-0.077,1.255-0.504,2.442-1.281,3.562
					c-0.777,1.12-2.385,2.645-4.824,4.574c-1.262,0.999-2.057,1.801-2.384,2.409C206.707,109.676,206.591,110.024,206.498,110.46z
					 M200.788,117.639l0.019-0.315c0.091-1.484,1.367-2.687,2.851-2.687h0.315c1.484,0,2.613,1.203,2.522,2.687l-0.019,0.315
					c-0.091,1.484-1.367,2.687-2.851,2.687h-0.315C201.826,120.325,200.697,119.122,200.788,117.639z"/>
			</g>
		</g>
	</g>
</g>
</svg>
