<?xml version="1.0" encoding="utf-8"?>
<!-- Generator: Adobe Illustrator 27.5.0, SVG Export Plug-In . SVG Version: 6.00 Build 0)  -->
<svg version="1.1" xmlns="http://www.w3.org/2000/svg" xmlns:xlink="http://www.w3.org/1999/xlink" x="0px" y="0px"
	 viewBox="0 0 500 500" style="enable-background:new 0 0 500 500;" xml:space="preserve">
<g id="Background_Complete">
	<g>
		<rect y="382.398" style="fill:#EBEBEB;" width="500" height="0.25"/>
		<rect x="416.779" y="398.494" style="fill:#EBEBEB;" width="33.122" height="0.25"/>
		<rect x="322.527" y="401.208" style="fill:#EBEBEB;" width="8.693" height="0.25"/>
		<rect x="396.586" y="389.208" style="fill:#EBEBEB;" width="19.192" height="0.25"/>
		<rect x="52.459" y="390.888" style="fill:#EBEBEB;" width="43.193" height="0.25"/>
		<rect x="104.556" y="390.888" style="fill:#EBEBEB;" width="6.333" height="0.25"/>
		<rect x="131.471" y="395.111" style="fill:#EBEBEB;" width="93.676" height="0.25"/>
		<path style="fill:#EBEBEB;" d="M237.014,337.8H43.915c-3.147,0-5.708-2.561-5.708-5.708V60.66c0-3.147,2.561-5.708,5.708-5.708
			h193.099c3.146,0,5.707,2.561,5.707,5.708v271.432C242.721,335.239,240.16,337.8,237.014,337.8z M43.915,55.203
			c-3.01,0-5.458,2.448-5.458,5.458v271.432c0,3.01,2.448,5.458,5.458,5.458h193.099c3.009,0,5.457-2.448,5.457-5.458V60.66
			c0-3.009-2.448-5.458-5.457-5.458H43.915z"/>
		<path style="fill:#EBEBEB;" d="M453.31,337.8H260.212c-3.147,0-5.707-2.561-5.707-5.708V60.66c0-3.147,2.561-5.708,5.707-5.708
			H453.31c3.148,0,5.708,2.561,5.708,5.708v271.432C459.019,335.239,456.458,337.8,453.31,337.8z M260.212,55.203
			c-3.009,0-5.457,2.448-5.457,5.458v271.432c0,3.01,2.448,5.458,5.457,5.458H453.31c3.01,0,5.458-2.448,5.458-5.458V60.66
			c0-3.009-2.448-5.458-5.458-5.458H260.212z"/>
	</g>
	<g>
		<g>
			<path style="fill:#E0E0E0;" d="M403.952,372.81c-0.013-0.146-1.326-14.672-1.326-26.584c0-2.189,0.044-9.495,0.111-20.554
				c0.302-49.911,1.011-166.795-0.11-181.056c-1.357-17.253-1.529-42.892-1.531-43.148l0.5-0.003
				c0.001,0.257,0.174,25.877,1.529,43.112c1.123,14.282,0.415,131.181,0.112,181.098c-0.067,11.058-0.111,18.363-0.111,20.551
				c0,11.89,1.311,26.394,1.324,26.539L403.952,372.81z"/>
			<path style="fill:#E0E0E0;" d="M400.482,372.078c-0.635-3.578,0.226-37.103,1.222-75.922c1.325-51.623,2.974-115.87,1.52-129.072
				c-2.5-22.7-14.199-78.694-14.317-79.257l0.489-0.103c0.118,0.563,11.823,56.581,14.325,79.305
				c1.457,13.235-0.192,77.501-1.517,129.139c-0.996,38.792-1.855,72.293-1.23,75.821L400.482,372.078z"/>
			<path style="fill:#E0E0E0;" d="M395.515,366.481l-0.318-0.385c1.608-1.331,4.249-40.828,6.279-93.916
				c1.688-44.138,2.771-94.649,1.159-101.25c-3.224-13.198-7.131-24.539-11.004-31.932c-3.969-7.577-9.108-31.767-9.16-32.01
				l0.489-0.104c0.051,0.243,5.176,24.365,9.114,31.881c3.891,7.428,7.814,18.809,11.046,32.046
				C406.355,184.063,399.391,363.274,395.515,366.481z"/>
			<path style="fill:#E0E0E0;" d="M407.39,363.787c-4.044-9.674-3.794-181.607-3.656-189.596c0.078-4.48,0.766-12.855,1.495-21.721
				c0.884-10.767,1.887-22.97,1.966-30.373c0.15-14.064,1.161-36.792,2.594-41.098l0.475,0.158
				c-1.418,4.258-2.419,26.913-2.569,40.944c-0.08,7.421-1.083,19.634-1.968,30.408c-0.728,8.858-1.416,17.226-1.493,21.689
				c-0.138,7.984-0.402,179.779,3.617,189.394L407.39,363.787z"/>
			<path style="fill:#E0E0E0;" d="M410.888,369.956l-0.499-0.037c0.266-3.532-1.219-7.876-2.938-12.905
				c-1.707-4.995-3.643-10.657-4.228-16.725c-0.234-2.429-0.411-4.193-0.544-5.519c-0.401-4-0.401-4-0.348-6.089
				c0.035-1.334,0.092-3.566,0.077-8.322c-0.058-18.317,0.086-36.8,0.428-54.935c0.198-10.509,0.463-20.768,0.788-30.49
				c0.045-1.331,0.042-2.658,0.041-3.941c-0.004-3.029-0.009-5.89,0.542-8.892c0.831-4.522,1.618-9.863,1.155-15.187
				c-0.133-1.529-0.369-3.076-0.598-4.573c-0.281-1.835-0.571-3.732-0.674-5.622c-0.19-3.47,0.241-6.967,0.658-10.348l3.895-31.543
				c0.825-6.682,1.677-13.592,2.907-20.341c0.534-2.931,1.707-5.63,2.843-8.241c0.721-1.658,1.466-3.371,2.046-5.138
				c1.277-3.888,2.444-8.099,3.785-13.655c1.386-5.745,2.596-11.453,3.597-16.966l0.492,0.089
				c-1.002,5.522-2.214,11.24-3.602,16.994c-1.344,5.57-2.515,9.793-3.796,13.694c-0.587,1.789-1.337,3.513-2.063,5.181
				c-1.124,2.585-2.286,5.257-2.809,8.131c-1.227,6.734-2.079,13.637-2.903,20.313l-3.895,31.543
				c-0.414,3.359-0.843,6.833-0.655,10.259c0.102,1.865,0.391,3.75,0.669,5.573c0.23,1.504,0.468,3.061,0.602,4.605
				c0.468,5.383-0.325,10.766-1.161,15.321c-0.543,2.956-0.539,5.795-0.535,8.8c0.002,1.287,0.004,2.618-0.041,3.959
				c-0.325,9.72-0.59,19.976-0.788,30.482c-0.342,18.131-0.486,36.61-0.428,54.923c0.015,4.764-0.043,7-0.077,8.337
				c-0.053,2.058-0.053,2.058,0.345,6.026c0.133,1.325,0.31,3.091,0.545,5.52c0.579,6.01,2.504,11.643,4.203,16.611
				C409.661,361.934,411.161,366.322,410.888,369.956z"/>
			<path style="fill:#E0E0E0;" d="M406.489,372.081l-0.491-0.094c0.782-4.134-0.176-54.443-1.102-103.097
				c-0.828-43.501-1.609-84.589-1.109-90.37c0.464-5.365,1.442-10.383,2.388-15.235c1.236-6.34,2.403-12.328,2.404-18.689
				c0.001-11.266,13.262-37.508,13.396-37.772l0.446,0.227c-0.134,0.263-13.341,26.398-13.342,37.545
				c0,6.409-1.172,12.42-2.413,18.785c-0.943,4.84-1.919,9.844-2.381,15.183c-0.498,5.755,0.284,46.83,1.111,90.317
				C406.322,317.56,407.28,367.896,406.489,372.081z"/>
			<path style="fill:#EBEBEB;" d="M424.185,81.272c16.09,2.76,7.927,27.417-3.912,26.652c-0.114-0.007-0.224-0.022-0.336-0.034
				c0.078,0.607,0.052,1.315,0.052,1.315s-1.042,0-2.004-0.641c0,0,0.332-0.494,0.718-0.92
				C408.418,104.572,408.614,78.601,424.185,81.272z"/>
			<path style="fill:#F5F5F5;" d="M388.164,73.344c16.23-1.76,15.144,24.191,3.55,26.703c-0.111,0.024-0.222,0.04-0.332,0.059
				c0.241,0.562,0.411,1.251,0.411,1.251s-1.002,0.286-2.103-0.067c0,0,0.184-0.566,0.438-1.082
				C379.393,100.076,372.457,75.047,388.164,73.344z"/>
			<path style="fill:#E0E0E0;" d="M411.207,68.846c16.185,2.129,8.993,27.086-2.867,26.785c-0.114-0.003-0.225-0.013-0.337-0.021
				c0.101,0.603,0.104,1.312,0.104,1.312s-1.041,0.041-2.028-0.562c0,0,0.313-0.506,0.682-0.947
				C396.362,92.745,395.543,66.786,411.207,68.846z"/>
			<path style="fill:#E6E6E6;" d="M400.047,85.333c16.267-1.37,14.559,24.547,2.908,26.78c-0.112,0.021-0.223,0.035-0.334,0.051
				c0.227,0.568,0.381,1.26,0.381,1.26s-1.009,0.262-2.101-0.117c0,0,0.197-0.561,0.464-1.071
				C390.638,111.847,384.305,86.659,400.047,85.333z"/>
			<path style="fill:#EBEBEB;" d="M379.352,100.533c11.615-4.287,15.601,15.003,7.534,18.989c-0.077,0.038-0.156,0.071-0.234,0.105
				c0.281,0.369,0.533,0.844,0.533,0.844s-0.684,0.395-1.56,0.339c0,0,0.031-0.45,0.123-0.877
				C377.829,121.815,368.112,104.682,379.352,100.533z"/>
			<path style="fill:#E0E0E0;" d="M425.931,101.876c11.255,5.158,0.467,21.639-8.061,18.772c-0.082-0.028-0.16-0.06-0.24-0.091
				c-0.061,0.46-0.218,0.974-0.218,0.974s-0.764-0.203-1.344-0.861c0,0,0.34-0.297,0.706-0.534
				C409.835,115.88,415.039,96.883,425.931,101.876z"/>
		</g>
		<g>
			<path style="fill:#E0E0E0;" d="M84.956,372.81l-0.498-0.045c0.013-0.145,1.324-14.65,1.324-26.539
				c0-2.188-0.044-9.493-0.111-20.551c-0.302-49.917-1.011-166.816,0.112-181.098c1.355-17.235,1.527-42.856,1.529-43.112l0.5,0.003
				c-0.001,0.257-0.174,25.895-1.531,43.148c-1.121,14.261-0.413,131.145-0.11,181.056c0.067,11.059,0.111,18.364,0.111,20.554
				C86.282,358.138,84.969,372.664,84.956,372.81z"/>
			<path style="fill:#E0E0E0;" d="M88.426,372.078l-0.492-0.088c0.626-3.528-0.234-37.029-1.229-75.821
				c-1.325-51.638-2.975-115.904-1.517-129.139c2.502-22.724,14.206-78.742,14.325-79.305l0.489,0.103
				c-0.118,0.563-11.817,56.557-14.317,79.257c-1.454,13.202,0.195,77.449,1.52,129.072C88.201,334.975,89.061,368.5,88.426,372.078
				z"/>
			<path style="fill:#E0E0E0;" d="M93.394,366.481c-3.876-3.207-10.841-182.418-7.604-195.669
				c3.232-13.237,7.156-24.618,11.046-32.046c3.938-7.516,9.063-31.638,9.114-31.881l0.489,0.104
				c-0.051,0.243-5.19,24.433-9.16,32.01c-3.873,7.393-7.781,18.733-11.004,31.932c-1.612,6.601-0.529,57.112,1.159,101.25
				c2.03,53.088,4.671,92.585,6.279,93.916L93.394,366.481z"/>
			<path style="fill:#E0E0E0;" d="M81.518,363.787l-0.461-0.193c4.019-9.614,3.755-181.41,3.617-189.394
				c-0.077-4.463-0.765-12.831-1.493-21.689c-0.885-10.774-1.889-22.987-1.968-30.408c-0.15-14.032-1.151-36.687-2.569-40.944
				l0.475-0.158c1.434,4.306,2.444,27.033,2.594,41.098c0.079,7.403,1.082,19.606,1.966,30.373
				c0.729,8.866,1.417,17.241,1.495,21.721C85.312,182.18,85.562,354.113,81.518,363.787z"/>
			<path style="fill:#E0E0E0;" d="M78.02,369.956c-0.273-3.634,1.228-8.022,2.964-13.104c1.698-4.969,3.624-10.602,4.203-16.611
				c0.234-2.429,0.412-4.194,0.545-5.52c0.398-3.969,0.398-3.969,0.345-6.026c-0.035-1.337-0.092-3.573-0.077-8.337
				c0.058-18.313-0.086-36.792-0.428-54.923c-0.198-10.507-0.463-20.763-0.788-30.482c-0.045-1.341-0.042-2.672-0.041-3.959
				c0.004-3.005,0.009-5.844-0.535-8.8c-0.837-4.555-1.629-9.938-1.161-15.321c0.134-1.545,0.372-3.101,0.602-4.605
				c0.279-1.823,0.567-3.708,0.669-5.573c0.188-3.426-0.241-6.9-0.655-10.259l-3.895-31.543c-0.824-6.675-1.676-13.578-2.903-20.313
				c-0.523-2.874-1.685-5.546-2.809-8.131c-0.725-1.668-1.475-3.393-2.063-5.181c-1.282-3.901-2.453-8.124-3.796-13.694
				c-1.388-5.754-2.6-11.472-3.603-16.994l0.492-0.089c1.001,5.513,2.21,11.221,3.597,16.966c1.34,5.556,2.508,9.768,3.785,13.655
				c0.581,1.767,1.326,3.48,2.046,5.138c1.135,2.611,2.309,5.31,2.843,8.241c1.229,6.749,2.082,13.659,2.907,20.341l3.895,31.543
				c0.417,3.381,0.849,6.878,0.658,10.348c-0.104,1.89-0.394,3.787-0.674,5.622c-0.229,1.497-0.465,3.044-0.598,4.573
				c-0.462,5.324,0.324,10.665,1.155,15.187c0.551,3.002,0.547,5.863,0.542,8.892c-0.002,1.283-0.004,2.61,0.041,3.941
				c0.325,9.723,0.59,19.981,0.788,30.49c0.342,18.135,0.486,36.617,0.428,54.935c-0.015,4.756,0.043,6.988,0.077,8.322
				c0.054,2.089,0.054,2.089-0.348,6.089c-0.133,1.325-0.311,3.09-0.544,5.519c-0.585,6.067-2.521,11.729-4.228,16.725
				c-1.719,5.029-3.204,9.373-2.938,12.905L78.02,369.956z"/>
			<path style="fill:#E0E0E0;" d="M82.419,372.081c-0.791-4.186,0.166-54.521,1.093-103.2c0.827-43.487,1.609-84.562,1.111-90.317
				c-0.462-5.338-1.438-10.343-2.381-15.183c-1.241-6.364-2.413-12.376-2.413-18.785c-0.001-11.147-13.209-37.283-13.342-37.545
				l0.446-0.227c0.134,0.264,13.396,26.506,13.396,37.772c0,6.361,1.167,12.349,2.404,18.689c0.946,4.852,1.924,9.871,2.388,15.235
				c0.5,5.781-0.281,46.869-1.109,90.37c-0.926,48.653-1.883,98.963-1.102,103.097L82.419,372.081z"/>
			<path style="fill:#EBEBEB;" d="M64.723,81.272c-16.09,2.76-7.927,27.417,3.912,26.652c0.114-0.007,0.224-0.022,0.336-0.034
				c-0.077,0.607-0.052,1.315-0.052,1.315s1.042,0,2.004-0.641c0,0-0.332-0.494-0.718-0.92
				C80.49,104.572,80.295,78.601,64.723,81.272z"/>
			<path style="fill:#F5F5F5;" d="M100.744,73.344c-16.23-1.76-15.144,24.191-3.55,26.703c0.111,0.024,0.222,0.04,0.332,0.059
				c-0.241,0.562-0.411,1.251-0.411,1.251s1.002,0.286,2.103-0.067c0,0-0.184-0.566-0.438-1.082
				C109.515,100.076,116.451,75.047,100.744,73.344z"/>
			<path style="fill:#E0E0E0;" d="M77.701,68.846c-16.185,2.129-8.993,27.086,2.867,26.785c0.114-0.003,0.225-0.013,0.337-0.021
				c-0.101,0.603-0.104,1.312-0.104,1.312s1.041,0.041,2.028-0.562c0,0-0.313-0.506-0.682-0.947
				C92.546,92.745,93.365,66.786,77.701,68.846z"/>
			<path style="fill:#E6E6E6;" d="M88.861,85.333c-16.267-1.37-14.559,24.547-2.908,26.78c0.112,0.021,0.223,0.035,0.334,0.051
				c-0.227,0.568-0.381,1.26-0.381,1.26s1.009,0.262,2.101-0.117c0,0-0.197-0.561-0.464-1.071
				C98.27,111.847,104.604,86.659,88.861,85.333z"/>
			<path style="fill:#EBEBEB;" d="M109.556,100.533c-11.615-4.287-15.6,15.003-7.534,18.989c0.077,0.038,0.156,0.071,0.234,0.105
				c-0.281,0.369-0.533,0.844-0.533,0.844s0.684,0.395,1.559,0.339c0,0-0.031-0.45-0.123-0.877
				C111.08,121.815,120.797,104.682,109.556,100.533z"/>
			<path style="fill:#E0E0E0;" d="M62.977,101.876c-11.255,5.158-0.467,21.639,8.061,18.772c0.082-0.028,0.16-0.06,0.239-0.091
				c0.061,0.46,0.218,0.974,0.218,0.974s0.764-0.203,1.344-0.861c0,0-0.34-0.297-0.706-0.534
				C79.074,115.88,73.869,96.883,62.977,101.876z"/>
		</g>
		<g>
			
				<rect x="192.275" y="52.123" transform="matrix(-1.836970e-16 1 -1 -1.836970e-16 417.3297 -73.4687)" style="fill:#EBEBEB;" width="106.248" height="239.615"/>
			<rect x="130.592" y="123.807" style="fill:#F5F5F5;" width="229.615" height="96.248"/>
		</g>
		<g>
			<g>
				<g>
					<path style="fill:#E0E0E0;" d="M412.867,345.043c0.013-0.396,1.344-39.676,7.733-45.889c6.214-6.041,13.347-0.225,13.646,0.025
						l0.641-0.768c-0.081-0.068-8.13-6.639-14.984,0.025c-6.676,6.492-7.982,44.94-8.035,46.574L412.867,345.043z"/>
				</g>
				<g>
					<path style="fill:#E0E0E0;" d="M412.318,352.762c0.046-0.47,4.367-47.156-12.683-66.724l-0.754,0.656
						c16.767,19.243,12.487,65.505,12.442,65.97L412.318,352.762z"/>
				</g>
				<g>
					<path style="fill:#E0E0E0;" d="M412.949,347.824l0.998-0.066c-0.035-0.529-3.337-53.076,9.169-64.579l-0.677-0.736
						C409.582,294.268,412.805,345.642,412.949,347.824z"/>
				</g>
				<g>
					<path style="fill:#E0E0E0;" d="M411.321,347.794l1-0.008c-0.012-1.447-0.413-35.493-10.083-41.035
						c-2.15-1.233-4.255-1.438-6.257-0.61c-5.848,2.419-8.746,12.826-8.866,13.268l0.965,0.264
						c0.028-0.104,2.89-10.377,8.285-12.607c1.701-0.702,3.509-0.517,5.377,0.554C410.917,312.878,411.318,347.446,411.321,347.794z
						"/>
				</g>
				<g>
					<path style="fill:#E0E0E0;" d="M415.087,347.819l0.998-0.056c-0.015-0.269-1.459-26.904,5.729-36.289
						c1.742-2.273,3.632-3.357,5.63-3.218c4.71,0.329,8.66,7.222,8.699,7.291l0.871-0.492c-0.171-0.303-4.252-7.429-9.499-7.796
						c-2.347-0.167-4.535,1.049-6.495,3.607C413.606,320.544,415.023,346.711,415.087,347.819z"/>
				</g>
				<g>
					<path style="fill:#E0E0E0;" d="M413.511,351.442c0.196-2.584,4.699-63.402-3.225-74.119l-0.804,0.594
						c7.705,10.421,3.079,72.82,3.031,73.449L413.511,351.442z"/>
				</g>
			</g>
			<g>
				<path style="fill:#EBEBEB;" d="M393.825,312.305c0,0,4.754,1.752,3.34,5.89c-1.413,4.137-16.445,10.946-16.445,10.946
					s-6.295-5.77-0.514-15.154C385.988,304.602,393.697,309.344,393.825,312.305z"/>
			</g>
			<g>
				<path style="fill:#EBEBEB;" d="M414.49,304.429c0,0-5.062-0.212-5.349,4.151c-0.288,4.363,10.966,16.432,10.966,16.432
					s8.031-2.903,6.306-13.79C424.687,300.336,415.748,301.746,414.49,304.429z"/>
			</g>
			<g>
				<path style="fill:#EBEBEB;" d="M418.776,283.547c0,0-3.375-0.362-3.103-2.418c0.272-2.056,13.119-7.346,20.699,1.209
					c0,0-4.854,8.337-11.87,8.446C417.486,290.893,418.776,283.547,418.776,283.547z"/>
			</g>
			<g>
				<path style="fill:#EBEBEB;" d="M412.487,278.555c0,0,3.056,1.477,3.912-0.411c0.857-1.888-7.249-13.173-18.207-9.922
					c0,0-0.29,9.643,5.607,13.446C409.696,285.472,412.487,278.555,412.487,278.555z"/>
			</g>
			<g>
				<path style="fill:#EBEBEB;" d="M428.465,310.642c0,0-2.329-1.881,0.184-2.798c2.514-0.918,14.847-0.657,14.976,11.56
					c0,0-14.365,2.387-16.143-2.267C425.705,312.483,428.465,310.642,428.465,310.642z"/>
			</g>
			<g>
				<path style="fill:#EBEBEB;" d="M399.173,283.24c0,0,2.329-1.881-0.184-2.799c-2.514-0.918-14.847-0.657-14.976,11.56
					c0,0,14.365,2.387,16.143-2.267C401.934,285.082,399.173,283.24,399.173,283.24z"/>
			</g>
			<g>
				<path style="fill:#EBEBEB;" d="M406.767,293.082c0,0,0.205-2.286-1.641-1.39c-1.846,0.896-8.275,7.832-1.61,14.415
					c0,0,8.972-6.645,7.354-10.105C409.253,292.542,406.767,293.082,406.767,293.082z"/>
			</g>
			<g>
				<path style="fill:#EBEBEB;" d="M430.547,296.34c0,0-1.392-1.825,0.647-2.051c2.039-0.226,11.177,2.213,9.049,11.336
					c0,0-11.133-0.837-11.61-4.626C428.156,297.209,430.547,296.34,430.547,296.34z"/>
			</g>
			<polygon style="fill:#F0F0F0;" points="392.936,381.657 431.135,381.657 435.255,339.835 388.815,339.835 			"/>
			
				<rect x="386.776" y="335.221" transform="matrix(-1 -1.224647e-16 1.224647e-16 -1 824.0709 679.6706)" style="fill:#E6E6E6;" width="50.519" height="9.228"/>
		</g>
		<g>
			<path style="fill:#EBEBEB;" d="M88.258,338.991l12.718-36.657c0,0-17.641,13.078-17.523-1.422
				c0.118-14.5,8.036-3.24,10.786-8.596c2.75-5.356-7.826-5.298-4.115-13.421c3.711-8.122,14.257,4.357,16.12-2.839
				c1.863-7.196,4.832-10.855,12.513-10.209c0,0,4.151,9.467-0.937,16.306s12.584,1.36,10.789,8.24
				c-1.796,6.88-7.696,12.885-10.295,8.04c-2.599-4.845-5.897,4.439-1.455,6.829c4.442,2.39-5.808,12.751-8.057,7.32
				c-2.249-5.431-5.775-10.267-5.775-10.267l-11.721,39.22L88.258,338.991z"/>
			<path style="fill:#E6E6E6;" d="M75.15,339.315l-14.339-23.442c0,0,14.182,6.384,11.91-3.631
				c-2.272-10.015-6.05-1.028-8.762-4.318c-2.712-3.291,4.615-4.849,0.82-9.908c-3.795-5.06-9.207,5.169-11.583,0.471
				c-2.376-4.697-4.984-6.781-10.2-5.173c0,0-1.442,7.178,3.112,11.141c4.554,3.963-8.502,2.842-6.22,7.332
				c2.282,4.489,7.272,7.753,8.338,4.008c1.067-3.745,4.751,2.181,2.039,4.506c-2.713,2.325,5.945,7.945,6.681,3.848
				c0.736-4.097,2.445-7.976,2.445-7.976l14.036,25.367L75.15,339.315z"/>
			<path style="fill:#F5F5F5;" d="M84.808,339.539l-6.566-37.763c0,0,15.118,15.558,17.31,1.402
				c2.193-14.155-7.319-4.438-9.148-10.097c-1.828-5.66,8.473-3.92,6.148-12.43c-2.325-8.509-14.593,1.98-15.264-5.332
				c-0.671-7.312-2.984-11.352-10.575-11.944c0,0-5.553,8.569-1.681,16.047c3.872,7.477-12.486-0.677-11.83,6.317
				c0.656,6.993,5.453,13.787,8.758,9.477c3.305-4.31,5.043,5.266,0.332,6.889c-4.712,1.623,3.633,13.356,6.69,8.419
				c3.057-4.937,7.264-9.09,7.264-9.09l5.186,40.103L84.808,339.539z"/>
			<g>
				<path style="fill:#EBEBEB;" d="M92.399,381.657H66.706c-1.796,0-3.283-1.398-3.393-3.191l-2.723-44.314
					c-0.12-1.956,1.434-3.608,3.393-3.608h31.14c1.96,0,3.513,1.652,3.393,3.608l-2.723,44.314
					C95.682,380.259,94.196,381.657,92.399,381.657z"/>
				<path style="fill:#F5F5F5;" d="M98.193,335.537H60.594c-1.727,0-3.179-1.294-3.377-3.009v0c-0.233-2.019,1.345-3.79,3.377-3.79
					h37.599c2.032,0,3.61,1.771,3.377,3.79v0C101.372,334.243,99.92,335.537,98.193,335.537z"/>
			</g>
		</g>
	</g>
</g>
<g id="Background_Simple" style="display:none;">
	<g style="display:inline;">
		<path style="fill:#1376F8;" d="M235.81,77.419c20.446-6.589,43.288-2.95,61.819,10.283c30.834,22.018,31.859,51.133,34.093,85.303
			c1.805,27.57,33.147,27.73,51.563,38.608c26.39,15.588,40.706,49.892,40.042,79.898c-0.548,24.791-13.352,55.204-36.559,67.096
			c-29.258,14.993-64.256-0.557-93.334-7.427c-41.277-9.751-80.371,8.811-120.506,15.087c-22.23,3.476-46.505,2.184-64.986-10.651
			c-57.201-39.727-27.888-125.484,23.214-154.694c19.968-11.413,41.801-21.127,51.268-43.542
			c9.622-22.784,10.563-50.398,30.77-67.394C220.089,84.188,227.764,80.011,235.81,77.419z"/>
		<path style="opacity:0.9;fill:#FFFFFF;" d="M235.81,77.419c20.446-6.589,43.288-2.95,61.819,10.283
			c30.834,22.018,31.859,51.133,34.093,85.303c1.805,27.57,33.147,27.73,51.563,38.608c26.39,15.588,40.706,49.892,40.042,79.898
			c-0.548,24.791-13.352,55.204-36.559,67.096c-29.258,14.993-64.256-0.557-93.334-7.427c-41.277-9.751-80.371,8.811-120.506,15.087
			c-22.23,3.476-46.505,2.184-64.986-10.651c-57.201-39.727-27.888-125.484,23.214-154.694
			c19.968-11.413,41.801-21.127,51.268-43.542c9.622-22.784,10.563-50.398,30.77-67.394
			C220.089,84.188,227.764,80.011,235.81,77.419z"/>
	</g>
</g>
<g id="Shadow_1_">
	<ellipse id="_x3C_Path_x3E__359_" style="fill:#F5F5F5;" cx="250" cy="416.238" rx="193.889" ry="11.323"/>
</g>
<g id="Text">
	<g>
		<!-- <g>
			<path style="fill:#263238;" d="M161.749,141.743h1.275v12.059h-1.275V141.743z"/>
			<path style="fill:#263238;" d="M175.029,148.547v5.254h-1.223v-5.134c0-1.912-0.999-2.894-2.722-2.894
				c-1.947,0-3.17,1.206-3.17,3.273v4.755h-1.223v-9.062h1.171v1.671c0.655-1.103,1.878-1.74,3.445-1.74
				C173.513,144.671,175.029,145.946,175.029,148.547z"/>
			<path style="fill:#263238;" d="M183.123,153.251c-0.482,0.431-1.206,0.637-1.912,0.637c-1.706,0-2.653-0.964-2.653-2.636v-5.478
				h-1.619v-1.034h1.619v-1.981h1.223v1.981h2.756v1.034h-2.756v5.409c0,1.068,0.551,1.654,1.568,1.654
				c0.499,0,0.999-0.155,1.344-0.465L183.123,153.251z"/>
			<path style="fill:#263238;" d="M192.906,149.65h-7.58c0.138,1.895,1.585,3.153,3.566,3.153c1.102,0,2.084-0.396,2.773-1.189
				l0.689,0.792c-0.81,0.965-2.067,1.481-3.497,1.481c-2.826,0-4.755-1.929-4.755-4.617s1.878-4.6,4.427-4.6
				c2.55,0,4.393,1.878,4.393,4.6C192.923,149.374,192.906,149.512,192.906,149.65z M185.326,148.737h6.426
				c-0.155-1.774-1.447-3.015-3.222-3.015C186.773,145.722,185.481,146.962,185.326,148.737z"/>
			<path style="fill:#263238;" d="M199.984,144.671v1.188c-0.103,0-0.207-0.017-0.292-0.017c-1.895,0-3.049,1.206-3.049,3.342v4.617
				h-1.223v-9.062h1.171v1.774C197.159,145.309,198.313,144.671,199.984,144.671z"/>
			<path style="fill:#263238;" d="M210.525,148.547v5.254h-1.223v-5.134c0-1.912-0.999-2.894-2.722-2.894
				c-1.947,0-3.17,1.206-3.17,3.273v4.755h-1.223v-9.062h1.171v1.671c0.655-1.103,1.878-1.74,3.445-1.74
				C209.009,144.671,210.525,145.946,210.525,148.547z"/>
			<path style="fill:#263238;" d="M220.686,148.186v5.616h-1.171v-1.413c-0.551,0.93-1.619,1.498-3.118,1.498
				c-2.05,0-3.308-1.068-3.308-2.636c0-1.395,0.896-2.567,3.497-2.567h2.877v-0.551c0-1.55-0.879-2.395-2.567-2.395
				c-1.171,0-2.274,0.413-3.015,1.068l-0.551-0.913c0.913-0.775,2.257-1.223,3.687-1.223
				C219.36,144.671,220.686,145.843,220.686,148.186z M219.463,151.08v-1.482h-2.843c-1.757,0-2.326,0.689-2.326,1.62
				c0,1.051,0.844,1.705,2.291,1.705C217.964,152.923,218.981,152.269,219.463,151.08z"/>
			<path style="fill:#263238;" d="M228.781,153.251c-0.483,0.431-1.206,0.637-1.912,0.637c-1.706,0-2.653-0.964-2.653-2.636v-5.478
				h-1.619v-1.034h1.619v-1.981h1.223v1.981h2.756v1.034h-2.756v5.409c0,1.068,0.551,1.654,1.568,1.654
				c0.5,0,0.999-0.155,1.344-0.465L228.781,153.251z"/>
			<path style="fill:#263238;" d="M230.725,141.88c0-0.465,0.396-0.861,0.896-0.861c0.5,0,0.896,0.379,0.896,0.844
				c0,0.499-0.379,0.896-0.896,0.896C231.122,142.759,230.725,142.363,230.725,141.88z M231.001,144.74h1.223v9.062h-1.223V144.74z"
				/>
			<path style="fill:#263238;" d="M234.721,149.271c0-2.688,1.964-4.6,4.617-4.6c2.653,0,4.6,1.912,4.6,4.6s-1.946,4.617-4.6,4.617
				C236.685,153.888,234.721,151.958,234.721,149.271z M242.697,149.271c0-2.119-1.43-3.532-3.359-3.532
				c-1.929,0-3.376,1.413-3.376,3.532c0,2.119,1.447,3.532,3.376,3.532C241.267,152.803,242.697,151.39,242.697,149.271z"/>
			<path style="fill:#263238;" d="M254.77,148.547v5.254h-1.223v-5.134c0-1.912-0.999-2.894-2.722-2.894
				c-1.947,0-3.17,1.206-3.17,3.273v4.755h-1.223v-9.062h1.171v1.671c0.655-1.103,1.878-1.74,3.445-1.74
				C253.254,144.671,254.77,145.946,254.77,148.547z"/>
			<path style="fill:#263238;" d="M264.932,148.186v5.616h-1.172v-1.413c-0.551,0.93-1.619,1.498-3.118,1.498
				c-2.05,0-3.308-1.068-3.308-2.636c0-1.395,0.896-2.567,3.497-2.567h2.877v-0.551c0-1.55-0.879-2.395-2.567-2.395
				c-1.172,0-2.274,0.413-3.015,1.068l-0.551-0.913c0.913-0.775,2.257-1.223,3.687-1.223
				C263.605,144.671,264.932,145.843,264.932,148.186z M263.709,151.08v-1.482h-2.843c-1.757,0-2.326,0.689-2.326,1.62
				c0,1.051,0.844,1.705,2.292,1.705C262.21,152.923,263.227,152.269,263.709,151.08z"/>
			<path style="fill:#263238;" d="M268.254,141.019h1.223v12.783h-1.223V141.019z"/>
			<path style="fill:#263238;" d="M277.658,141.743h4.91c3.859,0,6.46,2.481,6.46,6.03c0,3.549-2.602,6.029-6.46,6.029h-4.91
				V141.743z M282.499,152.699c3.204,0,5.271-2.033,5.271-4.927c0-2.895-2.067-4.927-5.271-4.927h-3.566v9.854H282.499z"/>
			<path style="fill:#263238;" d="M298.464,148.186v5.616h-1.171v-1.413c-0.551,0.93-1.619,1.498-3.118,1.498
				c-2.05,0-3.308-1.068-3.308-2.636c0-1.395,0.896-2.567,3.497-2.567h2.877v-0.551c0-1.55-0.879-2.395-2.567-2.395
				c-1.171,0-2.274,0.413-3.015,1.068l-0.551-0.913c0.913-0.775,2.257-1.223,3.687-1.223
				C297.138,144.671,298.464,145.843,298.464,148.186z M297.242,151.08v-1.482h-2.843c-1.757,0-2.326,0.689-2.326,1.62
				c0,1.051,0.844,1.705,2.291,1.705C295.743,152.923,296.759,152.269,297.242,151.08z"/>
			<path style="fill:#263238;" d="M309.229,144.74l-4.531,10.147c-0.758,1.774-1.723,2.343-3.015,2.343
				c-0.844,0-1.654-0.276-2.205-0.827l0.568-0.913c0.448,0.448,0.999,0.689,1.654,0.689c0.81,0,1.361-0.379,1.878-1.516l0.396-0.878
				l-4.048-9.044h1.275l3.411,7.701l3.411-7.701H309.229z"/>
			<path style="fill:#263238;" d="M314.549,149.271c0-2.688,1.964-4.6,4.617-4.6c2.653,0,4.6,1.912,4.6,4.6s-1.946,4.617-4.6,4.617
				C316.513,153.888,314.549,151.958,314.549,149.271z M322.525,149.271c0-2.119-1.43-3.532-3.359-3.532
				c-1.929,0-3.376,1.413-3.376,3.532c0,2.119,1.447,3.532,3.376,3.532C321.095,152.803,322.525,151.39,322.525,149.271z"/>
			<path style="fill:#263238;" d="M327.656,143.672v1.068h2.791v1.034h-2.756v8.028h-1.223v-8.028h-1.619v-1.034h1.619v-1.12
				c0-1.62,0.965-2.688,2.739-2.688c0.672,0,1.361,0.189,1.809,0.568l-0.413,0.913c-0.345-0.293-0.827-0.448-1.344-0.448
				C328.207,141.967,327.656,142.552,327.656,143.672z"/>
		</g> -->
		<g>
			<path style="fill:#263238;" d="M192.075,165.755l-0.032,4.654h-10.837v4.973h10.009v4.654h-10.009v8.064h-5.834v-22.345H192.075z
				"/>
			<path style="fill:#263238;" d="M208.493,184.148h-9.658l-1.562,3.953h-5.992l9.594-22.345h5.993l9.372,22.345h-6.216
				L208.493,184.148z M206.772,179.685l-3.06-7.969l-3.124,7.969H206.772z"/>
			<path style="fill:#263238;" d="M224.625,165.755l5.929,13.037l5.929-13.037h6.375V188.1h-5.164l-0.032-14.153l-5.195,11.921
				h-3.825l-5.196-11.921V188.1h-5.196v-22.345H224.625z"/>
			<path style="fill:#263238;" d="M253.03,165.755V188.1h-5.833v-22.345H253.03z"/>
			<path style="fill:#263238;" d="M263.199,165.755v17.372h9.467v4.973h-15.3v-22.345H263.199z"/>
			<path style="fill:#263238;" d="M281.147,165.755V188.1h-5.833v-22.345H281.147z"/>
			<path style="fill:#263238;" d="M303.11,165.755v4.654h-11.794v4.176h10.646v4.622l-10.646,0.032v4.208h12.112v4.654h-17.946
				v-22.345H303.11z"/>
			<path style="fill:#263238;" d="M315.193,170.249c-1.402,0-2.327,0.51-2.327,1.53c0,3.698,11.762,1.594,11.762,9.626
				c0,4.558-4.017,6.885-8.989,6.885c-3.729,0-7.618-1.371-10.295-3.57l2.263-4.558c2.295,1.976,5.77,3.379,8.097,3.379
				c1.721,0,2.805-0.638,2.805-1.817c0-3.794-11.762-1.498-11.762-9.403c0-4.176,3.538-6.821,8.925-6.821
				c3.283,0,6.598,1.02,8.925,2.518l-2.199,4.622C320.038,171.302,317.042,170.249,315.193,170.249z"/>
		</g>
	</g>
</g>
<g id="Garland">
	<g>
		<path style="fill:#1376F8;" d="M245.465,105.194c-115.777,0-164.444-25.922-164.922-26.184l0.48-0.877
			c0.476,0.261,48.963,26.061,164.442,26.061c115.534,0,169.439-26.13,169.97-26.394l0.445,0.896
			C415.347,78.961,361.231,105.194,245.465,105.194z"/>
		<polygon style="fill:#1376F8;" points="94.379,84.261 96.622,97.611 107.7,88.547 		"/>
		<polygon style="fill:#1376F8;" points="107.7,88.547 112.983,102.095 125.01,92.994 		"/>
		<polygon style="fill:#1376F8;" points="125.01,92.994 131.678,106.842 142.895,96.597 		"/>
		<polygon style="fill:#1376F8;" points="142.895,96.597 149.042,109.215 159.64,99.918 		"/>
		<polygon style="fill:#1376F8;" points="159.64,99.918 168.343,113.435 181.272,101.774 		"/>
		<polygon style="fill:#1376F8;" points="181.272,101.774 189.969,116.073 203.447,103.492 		"/>
		<polygon style="fill:#1376F8;" points="203.447,103.492 212.387,117.128 223.73,104.383 		"/>
		<polygon style="fill:#1376F8;" points="223.73,104.383 234.805,119.501 243.814,104.694 		"/>
		<polygon style="fill:#1376F8;" points="243.814,104.694 253.002,119.501 263.288,104.694 		"/>
		<polygon style="fill:#1376F8;" points="263.288,104.694 274.101,116.073 280.958,104.383 		"/>
		<polygon style="fill:#1376F8;" points="280.958,104.383 290.98,116.073 299.156,102.906 		"/>
		<polygon style="fill:#1376F8;" points="299.156,102.906 312.343,114.754 320.536,100.662 		"/>
		<polygon style="fill:#1376F8;" points="320.536,100.662 332.002,111.942 339.175,98.205 		"/>
		<polygon style="fill:#1376F8;" points="339.175,98.205 352.887,109.49 359.552,95.321 		"/>
		<polygon style="fill:#1376F8;" points="359.552,95.321 373.855,104.383 377.09,90.831 		"/>
		<polygon style="fill:#1376F8;" points="377.09,90.831 389.156,102.405 394.385,86.091 		"/>
		<polygon style="fill:#1376F8;" points="394.385,86.091 402.277,96.597 406.064,82.179 		"/>
		<polygon style="opacity:0.6;fill:#FFFFFF;enable-background:new    ;" points="94.379,84.261 96.622,97.611 107.7,88.547 		"/>
		<polygon style="opacity:0.4;fill:#FFFFFF;enable-background:new    ;" points="107.7,88.547 112.983,102.095 125.01,92.994 		"/>
		<polygon style="opacity:0.6;fill:#FFFFFF;enable-background:new    ;" points="125.01,92.994 131.678,106.842 142.895,96.597 		
			"/>
		<polygon style="opacity:0.4;fill:#FFFFFF;enable-background:new    ;" points="142.895,96.597 149.042,109.215 159.64,99.918 		
			"/>
		<polygon style="opacity:0.6;fill:#FFFFFF;enable-background:new    ;" points="159.64,99.918 168.343,113.435 181.272,101.774 		
			"/>
		<polygon style="opacity:0.4;fill:#FFFFFF;enable-background:new    ;" points="181.272,101.774 189.969,116.073 203.447,103.492 
					"/>
		<polygon style="opacity:0.6;fill:#FFFFFF;enable-background:new    ;" points="203.447,103.492 212.387,117.128 223.73,104.383 		
			"/>
		<polygon style="opacity:0.4;fill:#FFFFFF;enable-background:new    ;" points="223.73,104.383 234.805,119.501 243.814,104.694 		
			"/>
		<polygon style="opacity:0.6;fill:#FFFFFF;enable-background:new    ;" points="243.814,104.694 253.002,119.501 263.288,104.694 
					"/>
		<polygon style="opacity:0.4;fill:#FFFFFF;enable-background:new    ;" points="263.288,104.694 274.101,116.073 280.958,104.383 
					"/>
		<polygon style="opacity:0.6;fill:#FFFFFF;enable-background:new    ;" points="280.958,104.383 290.98,116.073 299.156,102.906 		
			"/>
		<polygon style="opacity:0.4;fill:#FFFFFF;enable-background:new    ;" points="299.156,102.906 312.343,114.754 320.536,100.662 
					"/>
		<polygon style="opacity:0.6;fill:#FFFFFF;enable-background:new    ;" points="320.536,100.662 332.002,111.942 339.175,98.205 		
			"/>
		<polygon style="opacity:0.4;fill:#FFFFFF;enable-background:new    ;" points="339.175,98.205 352.887,109.49 359.552,95.321 		
			"/>
		<polygon style="opacity:0.6;fill:#FFFFFF;enable-background:new    ;" points="359.552,95.321 373.855,104.383 377.09,90.831 		
			"/>
		<polygon style="opacity:0.4;fill:#FFFFFF;enable-background:new    ;" points="377.09,90.831 389.156,102.405 394.385,86.091 		
			"/>
		<polygon style="opacity:0.6;fill:#FFFFFF;enable-background:new    ;" points="394.385,86.091 402.277,96.597 406.064,82.179 		
			"/>
	</g>
</g>
<g id="Character_3">
	<g id="_x3C_Group_x3E__143_">
		<path style="fill:#EEC1BB;" d="M425.14,320.43c0,0-25.35,27.53-32.76,26.3c-2.85-0.47-7.1-4.14-11.26-8.48
			c-6.64-6.94-13.03-15.57-13.03-15.57l8.06-8.3l1.61-1.66c0,0,0.21,0.34,0.57,0.94c1.76,2.88,7.21,11.69,10.96,16.58
			c0.93,1.22,1.77,2.2,2.41,2.78c3.76,3.39,28.2-18.64,28.2-18.64L425.14,320.43z"/>
		<path style="opacity:0.2;enable-background:new    ;" d="M389.29,330.24c-2.17,2.65-5.06,5.78-8.17,8.01
			c-6.64-6.94-13.03-15.57-13.03-15.57l8.06-8.3l2.18-0.72C380.09,316.54,385.54,325.35,389.29,330.24z"/>
		<path style="fill:#1376F8;" d="M315.01,248.21c-6.384,2.746-16.505,20.597-16.505,20.597l2.617,4.208l4.733,2.21
			c0,0,7.669-12.467,12.737-14.708C323.659,258.275,315.01,248.21,315.01,248.21z"/>
		<path style="opacity:0.4;fill:#FFFFFF;enable-background:new    ;" d="M320.15,258.47c-0.12,0.89-0.58,1.62-1.56,2.05
			c-3.79,1.67-9.03,9.06-11.43,12.68c-0.82,1.22-1.31,2.02-1.31,2.02l-4.73-2.21l-2.62-4.2c0,0,10.13-17.85,16.51-20.6
			c0,0,0.56,0.65,1.31,1.66c0.31,0.42,0.66,0.9,1.01,1.43C318.82,253.5,320.42,256.42,320.15,258.47z"/>
		<path style="opacity:0.2;enable-background:new    ;" d="M320.15,258.47c-0.12,0.89-0.58,1.62-1.56,2.05
			c-3.79,1.67-9.03,9.06-11.43,12.68c-0.17-0.6-0.29-1.28-0.37-2.05c-1.28-12.55,7.63-19.87,9.53-21.28
			c0.22-0.17,0.35-0.25,0.35-0.25l0.66,1.68L320.15,258.47z"/>
		<path style="fill:#1376F8;" d="M315.009,248.21c0,0,16.962-8.493,35.844-4.274c0,0,8.131,23.713,18.131,37.287
			c2.036,2.764,0.869,6.715-2.318,7.99c-10.042,4.018-28.924,10.525-39.732,7.614C326.935,296.827,315.689,269.964,315.009,248.21z"
			/>
		<path style="opacity:0.4;fill:#FFFFFF;enable-background:new    ;" d="M366.666,289.216c-10.04,4.018-28.921,10.525-39.736,7.614
			c0,0-3.26-7.79-6.38-18.38c-1.49-5.09-2.96-10.83-4.01-16.67c-0.82-4.56-1.39-9.17-1.53-13.57c0,0,16.96-8.49,35.84-4.27
			c0,0,0.19,0.56,0.56,1.56c0.67,1.86,1.93,5.23,3.63,9.32c3.313,7.98,8.302,18.712,13.874,26.311
			C370.973,283.939,369.898,287.922,366.666,289.216z"/>
		<path style="fill:#EEC1BB;" d="M345.71,347.783c3.231,29.34,13.44,49.817,13.44,49.817l-7.465,1.736
			c0,0-10.879-19.995-17.247-51.561c-1.425-7.088-2.63-14.764-3.429-22.937l14-3.268C344.46,330.823,344.818,339.649,345.71,347.783
			z"/>
		<path style="opacity:0.2;enable-background:new    ;" d="M331.008,324.838l14-3.268c-0.548,9.253-0.191,18.079,0.702,26.213
			c-4.174,0.139-7.992,0.109-11.273-0.008C333.012,340.686,331.808,333.01,331.008,324.838z"/>
		<path style="fill:#263238;" d="M348.947,394.116l9.411-0.548c0.327-0.034,0.62,0.204,0.654,0.531c0,0.003,0.001,0.007,0.001,0.01
			l0.893,7.426c0.047,0.812-0.567,1.51-1.378,1.567c-3.287,0.138-4.863,0.04-9.006,0.249c-2.542,0.141-7.553,0.661-11.058,0.307
			c-3.505-0.354-3.062-3.809-1.547-3.968c3.593-0.394,8.36-3.014,10.616-5.007C347.928,394.342,348.426,394.143,348.947,394.116z"/>
		<path style="fill:#1376F8;" d="M344.457,395.396c-0.301-0.27-0.419-0.689-0.303-1.076c0.03-0.253,0.189-0.473,0.419-0.582
			c1.006-0.456,3.478,1.023,3.756,1.195c0.061,0.046,0.095,0.12,0.087,0.197c-0.008,0.077-0.064,0.139-0.14,0.156
			c-0.723,0.225-1.467,0.37-2.222,0.432C345.501,395.814,344.931,395.699,344.457,395.396z M344.737,394.13
			c-0.114,0.053-0.191,0.162-0.204,0.286c-0.065,0.245,0.003,0.506,0.18,0.688c0.419,0.363,1.523,0.345,3.005-0.037
			C346.709,394.505,345.274,393.884,344.737,394.13L344.737,394.13z"/>
		<path style="fill:#1376F8;" d="M348.128,395.303c-0.863-0.444-2.214-2.128-2.08-3.05c0.054-0.341,0.332-0.601,0.676-0.633
			c0.303-0.055,0.614,0.027,0.851,0.223c0.886,0.772,0.836,3.223,0.84,3.297c-0.007,0.065-0.043,0.123-0.098,0.159
			c-0.028,0.008-0.057,0.005-0.083-0.007C348.203,395.311,348.164,395.315,348.128,395.303z M346.792,392.035
			c-0.277,0.049-0.342,0.19-0.353,0.304c-0.055,0.614,0.818,1.889,1.576,2.46c-0.024-0.789-0.164-2.166-0.701-2.623
			c-0.115-0.109-0.27-0.164-0.427-0.153L346.792,392.035z"/>
		<path style="fill:#263238;" d="M422.765,322.891l-6.104-7.184c-0.224-0.241-0.211-0.618,0.03-0.842
			c0.003-0.002,0.005-0.004,0.007-0.007l5.392-5.184c0.619-0.526,1.547-0.457,2.081,0.156c2.089,2.541,2.96,3.859,5.621,7.041
			c1.643,1.944,5.076,5.632,6.904,8.644c1.828,3.012-1.198,4.738-2.237,3.624c-2.478-2.632-7.44-4.86-10.389-5.461
			C423.559,323.568,423.1,323.291,422.765,322.891z"/>
		<path style="fill:#1376F8;" d="M426.491,325.705c-0.035,0.403-0.298,0.749-0.677,0.89c-0.22,0.128-0.491,0.134-0.717,0.016
			c-0.97-0.529-1.277-3.392-1.308-3.718c-0.001-0.077,0.039-0.148,0.104-0.188c0.066-0.04,0.15-0.033,0.208,0.018
			c0.615,0.441,1.179,0.949,1.683,1.514C426.195,324.62,426.447,325.145,426.491,325.705z M425.311,326.244
			c0.11,0.059,0.244,0.055,0.351-0.01c0.235-0.096,0.402-0.307,0.441-0.558c0.037-0.553-0.641-1.424-1.839-2.377
			C424.423,324.444,424.792,325.964,425.311,326.244L425.311,326.244z"/>
		<path style="fill:#1376F8;" d="M424.206,322.83c0.165,0.957-0.366,3.049-1.183,3.497c-0.304,0.162-0.68,0.097-0.912-0.159
			c-0.226-0.209-0.348-0.506-0.335-0.814c0.082-1.172,2.07-2.608,2.126-2.656c0.056-0.033,0.125-0.04,0.186-0.017
			c0.023,0.017,0.039,0.043,0.044,0.071C424.167,322.767,424.194,322.795,424.206,322.83z M422.401,325.865
			c0.206,0.192,0.358,0.159,0.455,0.098c0.523-0.326,1.015-1.791,1.015-2.739c-0.615,0.495-1.631,1.436-1.672,2.139
			c-0.018,0.157,0.031,0.314,0.135,0.434L422.401,325.865z"/>
		<g>
			<path style="fill:#EEC1BB;" d="M338.197,243.915c0,0-5.621,6.465-11.325,7.231c-4.457,0.598-4.237-3.268-4.237-3.268
				c0.496-0.746,0.829-1.459,1.037-2.156c1.552-5.031-3.546-8.618-3.546-8.618l4.564-2.378l10.035-5.231
				C331.873,239.121,338.197,243.915,338.197,243.915z"/>
			<path style="opacity:0.2;enable-background:new    ;" d="M333.745,233.617c0,0-2.964,10.409-10.074,12.105
				c1.552-5.031-3.546-8.618-3.546-8.618l4.564-2.378L333.745,233.617z"/>
		</g>
		<g>
			<path style="fill:#263238;" d="M307.185,206.696c-8.924,3.896-8.277,10.184-5.204,15.1c3.073,4.916,0.657,5.065-3.028,8.631
				c-3.685,3.566,1.006,4.609,3.077,7.13c2.071,2.521-6.029,3.664-0.754,8.562c0,0,2.168-3.195,4.707-2.208
				c2.539,0.987,8.409,2.533,13.349-3.169c4.939-5.702,10.346-4.297,10.346-4.297S316.615,202.579,307.185,206.696z"/>
			<path style="fill:#263238;" d="M308.933,206.688c0,0-9.726,12.009,5.396,19.768C331.415,235.223,308.933,206.688,308.933,206.688
				z"/>
			<path style="fill:#EEC1BB;" d="M340.526,216.827c1.195,9.156-1.852,20.186-9.06,23.066c-13.222,5.283-19.129,3.745-22.722-6.132
				c-3.281-8.882-2.99-24.045,7.813-29.04C327.36,199.725,338.869,204.127,340.526,216.827z"/>
			<path style="fill:#263238;" d="M308.792,212.976c0,0,6.339,1.172,13.471-1.912c0,0,10.585,1.929,10.657,8.36
				c0.071,6.432,3.023,6.164,4.971,14.292c0,0,8.33-2.777,5.989-20.983c-1.706-13.266-14.087-16.011-25.687-13.401
				C308.479,201.518,303.025,209.952,308.792,212.976z"/>
			<path style="fill:#263238;" d="M320.448,223.633c0.191,1.154-0.27,2.205-1.033,2.318c-0.763,0.113-1.517-0.722-1.709-1.876
				c-0.192-1.154,0.275-2.189,1.033-2.318C319.497,221.628,320.257,222.479,320.448,223.633z"/>
			<path style="fill:#263238;" d="M311.129,224.689c0.183,1.104-0.258,2.108-0.988,2.217c-0.73,0.108-1.451-0.691-1.634-1.794
				c-0.183-1.104,0.263-2.093,0.987-2.217C310.219,222.771,310.946,223.585,311.129,224.689z"/>
			<path style="fill:#263238;" d="M316.174,218.369c-0.096-0.055-0.175-0.136-0.228-0.234c-0.094-0.276,0.048-0.576,0.32-0.679
				c1.583-0.626,3.373-0.435,4.788,0.511c0.233,0.175,0.28,0.506,0.105,0.738l0,0c-0.182,0.221-0.502,0.267-0.738,0.105l0,0
				c-1.143-0.73-2.572-0.853-3.823-0.329C316.448,218.503,316.295,218.462,316.174,218.369z"/>
			<path style="fill:#263238;" d="M307.28,220.305c-0.111-0.003-0.219-0.036-0.312-0.097c-0.214-0.197-0.233-0.529-0.043-0.75
				c1.092-1.306,2.756-1.992,4.452-1.837c0.288,0.042,0.487,0.31,0.445,0.599v0c-0.054,0.281-0.314,0.474-0.599,0.445l0,0
				c-1.353-0.096-2.668,0.478-3.516,1.536C307.585,220.292,307.431,220.329,307.28,220.305z"/>
			<path style="fill:#D4827D;" d="M313.157,225.735l2.009,4.705c-1.126,0.503-2.484,0.652-3.713,0.408
				C312.351,229.191,312.925,227.47,313.157,225.735z"/>
			<path style="fill:#EEC1BB;" d="M331.474,224.376c0,0,1.36-6.014,4.557-4.795c3.198,1.22,4.357,10.613,0.087,11.405
				C331.849,231.778,330.099,227.725,331.474,224.376z"/>
			<g>
				<path style="fill:#263238;" d="M315.685,234.431c1.201,0.982,2.935,3.074,2.935,3.074c0.218-0.123,0.436-0.246,0.647-0.38
					c2.913-1.742,3.689-3.513,3.666-4.947c-0.016-0.785-0.282-1.473-0.566-1.993c-0.322-0.606-0.69-0.964-0.69-0.964
					c-0.993,1.846-3.583,3.679-5.008,4.601C316.076,234.214,315.685,234.431,315.685,234.431z"/>
				<path style="fill:#FFFFFF;" d="M316.668,233.822l0.889,0.884c2.74-1.648,4.448-3.175,4.81-4.521
					c-0.322-0.606-0.69-0.964-0.69-0.964C320.684,231.067,318.093,232.9,316.668,233.822z"/>
				<path style="fill:#DE5753;" d="M319.267,237.125c2.913-1.742,3.689-3.513,3.666-4.947c-0.97,0.632-2.069,1.502-2.852,2.575
					C319.479,235.572,319.286,236.396,319.267,237.125z"/>
			</g>
			<path style="fill:#263238;" d="M315.112,212.995c0.853,2.311,5.347,4.605,8.717,4.08c3.37-0.525,8.351,1.22,6.094,6.744
				c-2.258,5.524-1.115,7.34,3.579,8.193c4.694,0.852-0.78,6.844,1.122,9.692c0,0,2.313-2.296,5.159-1.31
				c2.846,0.986,5.839-0.142,7.103-3.354c1.264-3.211,3.967-2.437,3.967-2.437s-1.198-10.722-10.87-16.667
				c-9.671-5.945-7.794-10.175-17.127-10.379C313.524,207.352,315.112,212.995,315.112,212.995z"/>
		</g>
		<path style="fill:#FFFFFF;" d="M330.472,265.308c0,0,5.528-6.822,8.849-1.849c4.106,6.148-8.956,15.726-8.956,15.726
			s-9.395-7.689-6.896-13.508C326.628,258.323,330.472,265.308,330.472,265.308z"/>
		<g>
			<path style="fill:#1376F8;" d="M324.465,292.772c-3.076,7.72-1.578,33.954,4.534,51.399c0,0,8.076,2.504,30.714-3.902
				c18.619-5.269,29.776-12.563,29.776-12.563c-6.592-13.648-17.869-45.907-20.549-46.913L324.465,292.772z"/>
			<path style="opacity:0.2;enable-background:new    ;" d="M389.489,327.704c0,0-1.646,1.073-4.723,2.694
				c-1.453,0.768-3.235,1.659-5.314,2.618c-1.851,0.857-3.952,1.771-6.28,2.687c-1.596,0.645-3.303,1.285-5.109,1.925
				c-2.574,0.906-5.372,1.801-8.346,2.644c-0.807,0.228-1.587,0.444-2.361,0.647c-1.427,0.384-2.795,0.73-4.102,1.039
				c-3.185,0.762-6.009,1.329-8.493,1.724c-1.957,0.324-3.709,0.546-5.264,0.691c-2.316,0.232-4.194,0.292-5.702,0.273
				c-0.814-0.01-1.507-0.041-2.109-0.09c-1.865-0.133-2.691-0.389-2.691-0.389c-6.105-17.445-7.604-43.674-4.528-51.393
				l44.474-11.978C371.621,281.803,382.897,314.056,389.489,327.704z"/>
			<path style="opacity:0.2;enable-background:new    ;" d="M328.273,317.647l5.521,26.999c-0.814-0.01-1.507-0.041-2.109-0.09
				L328.273,317.647z"/>
			<path style="opacity:0.2;enable-background:new    ;" d="M339.496,344.373l-3.958-40.722l9.222,40.03
				C342.803,344.006,341.052,344.228,339.496,344.373z"/>
			<path style="opacity:0.2;enable-background:new    ;" d="M353.253,341.958l-7.63-41.101l11.732,40.062
				C355.928,341.303,354.561,341.649,353.253,341.958z"/>
			<path style="opacity:0.2;enable-background:new    ;" d="M368.063,337.629l-10.04-40.761l15.149,38.836
				C371.576,336.349,369.869,336.988,368.063,337.629z"/>
			<path style="opacity:0.2;enable-background:new    ;" d="M384.766,330.398c-1.453,0.768-3.235,1.659-5.314,2.618l-11.855-38.716
				L384.766,330.398z"/>
		</g>
		<path style="opacity:0.2;enable-background:new    ;" d="M355.04,254.82c-3.77,6-14.1,19.11-34.49,23.63
			c-1.49-5.09-2.96-10.83-4.01-16.67c12.337,1.504,22.11-7.16,28.68-13.18c2.57-2.35,4.6-3.16,6.19-3.1
			C352.08,247.36,353.34,250.73,355.04,254.82z"/>
	</g>
	<g id="_x3C_Group_x3E__141_">
		<path style="fill:#E4897B;" d="M257.739,280.119c0,0-14.606,3.395-16.936,3.336c-2.33-0.059-33.423-21.481-33.423-21.481
			l-9.575,7.012c0,0,22.551,28.283,33.733,32.291c11.182,4.009,33.697,0,33.697,0L257.739,280.119z"/>
		<path style="opacity:0.2;enable-background:new    ;" d="M265.24,301.28c0,0-1.44,0.26-3.78,0.57c-2.52,0.35-6.07,0.76-9.97,1
			c-6.79,0.43-14.65,0.33-19.95-1.57c-11.18-4.01-33.73-32.29-33.73-32.29l9.57-7.02c0,0,31.09,21.43,33.42,21.48
			c1.37,0.04,7.02-1.13,11.42-2.09c0.43-0.1,0.85-0.19,1.25-0.28c2.46-0.54,4.27-0.96,4.27-0.96L265.24,301.28z"/>
		<path style="opacity:0.2;enable-background:new    ;" d="M261.46,301.85c-2.52,0.35-6.07,0.76-9.97,1
			c-1.06-8.94,0.73-21.49,0.73-21.49l0.34-1.24c0.31,0.32,0.62,0.64,0.91,0.96C260.1,288.32,261.92,296.02,261.46,301.85z"/>
		<path style="fill:#1376F8;" d="M288.499,270.935c-9.635-3.796-39.17,9.979-39.17,9.979l9.008,24.729l19.637-4.366L288.499,270.935
			z"/>
		<path style="opacity:0.2;enable-background:new    ;" d="M288.5,270.94l-9.74,28.07l-0.79,2.27l-12.06,2.68l-7.57,1.68
			l-9.01-24.73C249.33,280.91,278.86,267.14,288.5,270.94z"/>
		<path style="opacity:0.2;enable-background:new    ;" d="M278.76,299.01l-0.79,2.27l-12.06,2.68c2.53-6.78,8.63-13.17,8.63-13.17
			S276.46,294.51,278.76,299.01z"/>
		<path style="fill:#E4897B;" d="M205.41,268.986l3.588-5.901c0,0-0.046-6.567-0.331-8.654
			c-0.285-2.087-14.999-14.945-14.999-14.945s-13.641,2.147-13.847,6.649c-0.206,4.502,8.074,18.55,9.468,19.348
			C190.684,266.28,195.557,273.565,205.41,268.986z"/>
		<path style="opacity:0.2;enable-background:new    ;" d="M205.41,268.986l3.588-5.901c0,0-0.046-6.567-0.331-8.654
			c-0.285-2.087-14.999-14.945-14.999-14.945s-13.641,2.147-13.847,6.649c-0.206,4.502,8.074,18.55,9.468,19.348
			C190.684,266.28,195.557,273.565,205.41,268.986z"/>
		<g>
			<polygon style="fill:#E4897B;" points="368.498,396.825 345.329,403.94 341.355,389.138 358.275,385.146 			"/>
			<path style="fill:#263238;" d="M364.947,399.156l-12.894-11.563c-0.433-0.392-0.537-1.031-0.251-1.54l6.383-11.328
				c0.58-1.007,1.866-1.353,2.873-0.773c0.135,0.078,0.26,0.17,0.375,0.275c4.111,3.809,6.919,6.79,12.157,11.488
				c3.227,2.894,13.264,11.286,17.719,15.282c4.455,3.996,1.089,8.918-1.097,7.688c-9.78-5.555-18.152-8.606-22.878-8.606
				C366.45,400.089,365.595,399.759,364.947,399.156z"/>
		</g>
		<g>
			<polygon style="fill:#E4897B;" points="393.729,407.009 370.56,414.124 366.586,399.322 383.506,395.33 			"/>
			<path style="fill:#263238;" d="M390.178,409.34l-12.893-11.563c-0.433-0.392-0.537-1.031-0.251-1.54l6.383-11.328
				c0.58-1.007,1.866-1.353,2.873-0.773c0.135,0.078,0.261,0.17,0.375,0.275c4.111,3.809,6.919,6.79,12.157,11.488
				c3.227,2.894,13.264,11.286,17.719,15.282c4.455,3.996,1.089,8.918-1.097,7.688c-9.78-5.556-18.152-8.606-22.878-8.606
				C391.681,410.273,390.826,409.943,390.178,409.34z"/>
		</g>
		<path style="fill:#263238;" d="M368.19,390.432l-13.813-1.115c7.591-15.104,10.53-33.355,6.329-49.481
			c-9.231-35.444-80.667,6.896-80.667,6.896s-68.49,6.917-74.071,39.523c-5.581,32.606,51.703,34.735,51.703,34.735
			s52.999,3.879,83.46,0c30.462-3.879,42.179-7.81,42.179-7.81L368.19,390.432z"/>
		<path style="opacity:0.2;fill:#FFFFFF;enable-background:new    ;" d="M383.31,413.18c0,0-11.72,3.93-42.18,7.81
			c-22.19,2.83-56.35,1.53-73.26,0.62c-6.3-0.33-10.2-0.62-10.2-0.62s-19.43-0.72-34.56-7.77c-10.84-5.05-19.47-13.36-17.14-26.97
			c5.58-32.6,74.07-39.52,74.07-39.52s71.44-42.34,80.67-6.89c2.33,8.95,2.46,18.55,0.81,27.92c-1.31,7.5-3.76,14.84-7.14,21.56
			l13.81,1.11L383.31,413.18z"/>
		<path style="fill:#1376F8;" d="M360.94,341.94l-80.9,4.79l-7.62-64.24c-0.76-6.39,3.41-12.38,9.7-13.78
			c32.5-7.22,51.88-0.07,51.88-0.07c4.33,7.06,7.97,13.92,11.03,20.44c3.55,7.54,6.31,14.61,8.46,20.98
			C359.96,329.17,360.94,341.94,360.94,341.94z"/>
		<path style="opacity:0.2;enable-background:new    ;" d="M278.363,282.442c0,0,8.703-15.558,32.967-15.017
			C311.33,267.425,298.934,288.214,278.363,282.442z"/>
		<g>
			<path style="fill:#E4897B;" d="M309.92,268.586c-9.198-0.354-20.908-12.699-23.63-20.897l-9.72,23.127
				c0.835,0.681,1.65,1.395,2.366,2.168c1.386,1.453,2.484,3.058,2.944,4.883c0.391,1.564-1.887,5.429-1.887,5.429
				s7.744,2.743,19.205-3.177C305.957,276.627,309.92,268.586,309.92,268.586z"/>
			<path style="opacity:0.2;enable-background:new    ;" d="M287.101,256.984c5.435,8.444-1.395,17.215-5.221,20.883
				c-0.46-1.825-1.557-3.429-2.944-4.883L287.101,256.984z"/>
		</g>
		<g>
			<path style="fill:#263238;" d="M253.399,235.236c0,0-1.281,14.275,7.166,20.005c8.447,5.73,5.592-29.03,5.592-29.03
				L253.399,235.236z"/>
			<path style="fill:#E4897B;" d="M286.328,242.62c-0.304-2.392,0.982-7.739-0.374-9.724c-4.719-7.015-16.044-8.173-23.045-3.455
				c-8.241,5.459-9.334,16.939-6.642,26.626c-2.209,5.206-0.721,11.692,4.869,14.825c4.536,2.542,9.393,3.796,14.342,2.315
				c3.229-0.558,6.291-2.235,8.614-5.176c1.059-1.163,1.851-2.428,2.261-3.741C288.991,258.428,287.707,252.284,286.328,242.62z"/>
			<path style="fill:#263238;" d="M270.296,249.065c0.242,0.873-0.139,1.708-0.732,1.828c-0.593,0.12-1.202-0.517-1.388-1.406
				c-0.186-0.888,0.152-1.712,0.732-1.828C269.487,247.544,270.106,248.163,270.296,249.065z"/>
			<path style="fill:#263238;" d="M260.199,251.113c0.241,0.873-0.152,1.713-0.732,1.828c-0.579,0.116-1.202-0.518-1.388-1.405
				c-0.186-0.888,0.152-1.712,0.732-1.828C259.391,249.592,260.025,250.267,260.199,251.113z"/>
			<path style="fill:#DE5753;" d="M263.496,250.902c-0.509,2.947-1.423,5.81-2.716,8.507c1.422,0.636,3.053,0.61,4.455-0.069
				L263.496,250.902z"/>
			<path style="fill:#263238;" d="M272.765,245.16c-0.188,0.067-0.398,0.028-0.55-0.101c-0.999-0.924-2.375-1.323-3.713-1.075
				c-0.283,0.079-0.576-0.086-0.655-0.369c-0.079-0.283,0.086-0.576,0.369-0.655c0.001,0,0.001,0,0.002-0.001
				c1.683-0.356,3.435,0.127,4.698,1.295c0.226,0.188,0.257,0.523,0.069,0.749c-0.003,0.003-0.006,0.007-0.008,0.01
				C272.915,245.072,272.843,245.122,272.765,245.16z"/>
			<path style="fill:#263238;" d="M255.154,248.512c-0.09,0.059-0.197,0.089-0.305,0.084c-0.286-0.069-0.461-0.356-0.392-0.641
				c0.001-0.004,0.002-0.008,0.003-0.011c0.392-1.681,1.578-3.066,3.178-3.713c0.278-0.094,0.58,0.056,0.674,0.334
				c0,0.001,0.001,0.001,0.001,0.001c0.086,0.279-0.062,0.575-0.335,0.675l0,0c-1.249,0.547-2.165,1.652-2.471,2.981
				C255.437,248.365,255.309,248.472,255.154,248.512z"/>
			<g>
				<path style="fill:#263238;" d="M266.947,263.391c1.669,0.708,4.302,2.486,4.302,2.486c0.204-0.21,0.408-0.419,0.601-0.639
					c2.696-2.91,2.986-5.151,2.488-6.753c-0.275-0.875-0.799-1.56-1.289-2.05c-0.56-0.574-1.091-0.855-1.091-0.855
					c-0.508,2.397-2.812,5.304-4.108,6.804C267.314,263.019,266.947,263.391,266.947,263.391z"/>
				<path style="fill:#FFFFFF;" d="M267.85,262.384l1.287,0.7c2.533-2.747,3.947-5.022,3.911-6.65
					c-0.56-0.574-1.091-0.855-1.091-0.855C271.451,257.977,269.146,260.884,267.85,262.384z"/>
				<path style="fill:#DE5753;" d="M271.849,265.238c2.696-2.91,2.986-5.151,2.488-6.753c-0.881,1.027-1.828,2.364-2.353,3.825
					C271.578,263.426,271.632,264.414,271.849,265.238z"/>
			</g>
			<path style="fill:#263238;" d="M283.646,248.927c0,0-7.23-7.667-5.61-14.973c0,0-8.03-4.764-16.204,4.461
				c-6.925,7.816-14.621,0.056-12.71-8.619c1.288-5.845,7.172-1.367,7.172-1.367s3.227-6.301,14.958-6.665
				c11.731-0.364,19.003,6.857,20.212,11.246c3.568,12.95,0.612,22.64-4.23,28.81L283.646,248.927z"/>
			<path style="fill:#E4897B;" d="M292.938,250.642c-0.713,2.729-2.479,5.063-4.911,6.491c-3.233,1.868-5.776-0.804-5.663-4.343
				c0.13-3.144,1.932-8.001,5.566-8.39C291.564,244.012,293.772,247.281,292.938,250.642z"/>
		</g>
		<g>
			<path style="fill:#1376F8;" d="M279.993,280.119c0,0-0.048,2.422,4.699,2.19c4.747-0.232,20.539-5.422,23.209-14.884h3.429
				c0,0,0.543,10.897-15.223,16.335c-15.766,5.438-17.744-1.318-17.744-1.318L279.993,280.119z"/>
			<path style="opacity:0.2;enable-background:new    ;" d="M279.993,280.119c0,0-0.048,2.422,4.699,2.19
				c4.747-0.232,20.539-5.422,23.209-14.884h3.429c0,0,0.543,10.897-15.223,16.335c-15.766,5.438-17.744-1.318-17.744-1.318
				L279.993,280.119z"/>
		</g>
		<path style="opacity:0.2;enable-background:new    ;" d="M268.47,421.11c0,0-0.21,0.19-0.6,0.5c-6.3-0.33-10.2-0.62-10.2-0.62
			s-19.43-0.72-34.56-7.77c-7.92-12.75-7.57-30.41,9.52-40.43c23.64-13.86,57.2-15.03,57.2-15.03s-49.97,16.62-50.47,33.25
			C238.85,407.64,251.26,420.45,268.47,421.11z"/>
		<path style="opacity:0.2;enable-background:new    ;" d="M361.52,367.76c-1.31,7.5-3.76,14.84-7.14,21.56l-57.51,0.14
			C296.87,389.46,346.61,382.1,361.52,367.76z"/>
		<g>
			<path style="fill:#E4897B;" d="M391.45,307.1v0.01c-2.84,5.15-6.68,9.82-6.68,9.82l-3.88-5.84l-30.99-12.77l-9.75-4.02
				l2.35-23.15c0,0,7.44,1.28,13.67,3.01c1.45,0.4,2.83,0.83,4.04,1.27c6.4,2.34,28.76,14.67,33.29,20.02
				C395.59,297.92,393.89,302.68,391.45,307.1z"/>
			<path style="opacity:0.2;enable-background:new    ;" d="M356.17,274.16l-6.27,24.16l-9.75-4.02l2.35-23.15
				C342.5,271.15,349.94,272.43,356.17,274.16z"/>
			<path style="opacity:0.2;enable-background:new    ;" d="M391.45,307.11c-2.84,5.15-6.68,9.82-6.68,9.82l-3.88-5.84
				C380.89,311.09,387.06,310.74,391.45,307.11z"/>
		</g>
		<path style="opacity:0.1;enable-background:new    ;" d="M353.49,310.06c-14.89,3.32-29.65-22.24-29.65-22.24
			c6.65-1.14,14.39-0.5,21.19,1.26C348.58,296.62,351.34,303.69,353.49,310.06z"/>
		<g>
			<path style="fill:#1376F8;" d="M316.153,270.465c-2.949,9.751,6.002,23.625,30.768,32.09l7.374-30.752
				C354.296,271.803,319.216,260.336,316.153,270.465z"/>
			<path style="opacity:0.2;enable-background:new    ;" d="M316.153,270.465c-2.949,9.751,6.002,23.625,30.768,32.09l7.374-30.752
				C354.296,271.803,319.216,260.336,316.153,270.465z"/>
		</g>
	</g>
	<g>
		<path style="fill:#EEC1BB;" d="M305.723,271.898l-6.326,1.534c0,0-3.103-0.797-4.398-0.516c-1.296,0.281-8.132,8.911-7.38,9.837
			c0.752,0.926,5.412,4.097,7.111,3.12c1.699-0.977,6.763-8.702,6.763-8.702l6.112-1.568L305.723,271.898z"/>
		<path style="fill:#1376F8;" d="M351.023,243.937c-4.294-2.739-19.462,20.066-22.76,20.903c-3.297,0.837-25.703,6.308-25.703,6.308
			l3.105,6.175c0,0,24.301-1.672,29.078-4.315c4.777-2.642,16.763-15.417,19.017-20.053
			C356.014,248.319,351.023,243.937,351.023,243.937z"/>
		<path style="opacity:0.4;fill:#FFFFFF;enable-background:new    ;" d="M351.023,243.937c-4.294-2.739-19.462,20.066-22.76,20.903
			c-3.297,0.837-25.703,6.308-25.703,6.308l3.105,6.175c0,0,24.301-1.672,29.078-4.315c4.777-2.642,16.763-15.417,19.017-20.053
			C356.014,248.319,351.023,243.937,351.023,243.937z"/>
	</g>
</g>
<g id="Character_1_1_">
	<g>
		<path style="fill:#EEC1BB;" d="M200.38,297.329c0,0-5.87,7.21-11.09,10.63c-1.01,0.66-2,1.18-2.91,1.48
			c-5.63,1.84-10.94-26.77-10.94-26.77l0.19-1.38l2.04-15.17c4.1,0.86,10.56,32.13,11.09,33.31c0.53,1.18,7.37-6.34,7.37-6.34
			L200.38,297.329z"/>
		<path style="opacity:0.2;enable-background:new    ;" d="M189.29,307.959c-1.01,0.66-2,1.18-2.91,1.48
			c-5.63,1.84-10.94-26.77-10.94-26.77l0.19-1.38l4.42-2.31C180.05,278.979,182.97,299.479,189.29,307.959z"/>
		<path style="fill:#EEC1BB;" d="M192.695,294.074c0,0,2.211-5.605,4.687-6.81c2.476-1.205,9.868-1.795,11.411-1.126
			c1.543,0.669,2.791,4.242,2.791,4.242s-7.688,7.785-9.549,8.234C200.174,299.064,192.409,299.186,192.695,294.074z"/>
		<polygon style="fill:#E4897B;" points="109.094,400.289 109.904,391.119 122.954,390.753 134.864,390.432 135.71,401.478 
			121.626,400.855 		"/>
		<g>
			<path style="fill:#263238;" d="M117.118,390.605c0.786,0.554-6.414,9.946-6.414,9.946s-10.184,1.923-15.493,6.862
				c-5.309,4.939-6.631-0.695-2.24-7.249c4.391-6.554,7.742-11.555,10.862-16.212C106.953,379.297,108.97,384.865,117.118,390.605z"
				/>
			<g>
				<path style="fill:#1376F8;" d="M104.734,404.031c0.919-1.371,3.377-2.882,3.968-3.234c0.039-0.024,0.081-0.038,0.125-0.042l0,0
					l0-0.001c0.026-0.002,0.052-0.001,0.078,0.001c0.079,0.013,0.154,0.054,0.205,0.123c0.074,0.1,1.812,2.458,1.474,4.16
					c-0.107,0.54-0.406,0.959-0.885,1.246c-0.512,0.305-0.934,0.336-1.257,0.092c-0.496-0.375-0.545-1.421-0.436-2.504
					c-0.475,0.885-1.067,1.719-1.715,2.039c-0.344,0.17-0.686,0.196-1.015,0.079c-0.681-0.242-0.858-0.644-0.887-0.938
					C104.359,404.738,104.494,404.389,104.734,404.031z M108.265,401.806c-1.58,1.035-3.327,2.47-3.256,3.188
					c0.007,0.063,0.025,0.252,0.475,0.412c0.168,0.059,0.341,0.043,0.531-0.051C106.895,404.92,107.772,403.07,108.265,401.806z
					 M109.791,405.372c0.088-0.132,0.148-0.283,0.183-0.453c0.184-0.927-0.467-2.261-0.981-3.097
					c-0.422,1.824-0.599,3.739-0.174,4.06c0.132,0.1,0.409-0.038,0.562-0.13C109.553,405.647,109.691,405.522,109.791,405.372z"/>
			</g>
		</g>
		<polygon style="fill:#E4897B;" points="92.28,408.059 94.922,399.24 107.777,401.513 119.508,403.599 118.11,414.589 
			104.44,411.139 		"/>
		<polygon style="opacity:0.2;enable-background:new    ;" points="104.326,411.105 107.675,401.482 119.457,403.583 
			118.084,414.582 		"/>
		<g>
			<path style="fill:#263238;" d="M102.091,400.191c0.658,0.701-8.287,8.449-8.287,8.449s-10.363-0.17-16.558,3.598
				c-6.195,3.768-6.355-2.018-0.733-7.551c5.622-5.534,9.913-9.757,13.907-13.689C94.415,387.066,95.268,392.926,102.091,400.191z"
				/>
			<g>
				<path style="fill:#1376F8;" d="M87.255,410.845c1.176-1.158,3.888-2.142,4.538-2.367c0.043-0.016,0.088-0.021,0.131-0.016l0,0
					l0,0c0.026,0.003,0.052,0.009,0.076,0.017c0.075,0.028,0.14,0.085,0.176,0.162c0.052,0.113,1.279,2.773,0.605,4.372
					c-0.214,0.507-0.591,0.858-1.118,1.043c-0.563,0.195-0.983,0.141-1.25-0.164c-0.41-0.467-0.247-1.502,0.077-2.54
					c-0.643,0.771-1.391,1.469-2.091,1.652c-0.371,0.097-0.712,0.054-1.01-0.127c-0.618-0.374-0.711-0.804-0.68-1.098
					C86.745,411.462,86.948,411.147,87.255,410.845z M91.162,409.377c-1.757,0.696-3.756,1.749-3.832,2.466
					c-0.006,0.063-0.027,0.252,0.382,0.5c0.152,0.092,0.326,0.111,0.531,0.057C89.192,412.151,90.424,410.516,91.162,409.377z
					 M91.938,413.177c0.113-0.111,0.202-0.247,0.27-0.407c0.367-0.871-0.002-2.309-0.337-3.232c-0.781,1.701-1.34,3.542-0.989,3.942
					c0.109,0.124,0.408,0.045,0.576-0.015C91.649,413.4,91.809,413.304,91.938,413.177z"/>
			</g>
		</g>
		<path style="fill:#1376F8;" d="M125.962,289.694c1.729,5.554,3.077,10.358,4.151,14.66c3.362,13.312,4.07,21.833,4.777,32.994
			l44.932-3.879c1.796-31.646,0.993-49.042,0.176-57.739c-0.898-9.269-2.327-9.61-2.327-9.61s-10.046-0.98-18.784-0.912
			c-6.765,0.231-13.516,0.939-20.172,2.123c-4.837,0.803-9.617,1.877-14.336,3.21c-2.344,0.662-3.664,3.137-2.884,5.444
			c0.479,1.417,0.937,2.794,1.377,4.127C124.016,283.542,125.037,286.727,125.962,289.694z"/>
		<path style="opacity:0.7;fill:#FFFFFF;enable-background:new    ;" d="M179.82,333.469l-44.93,3.88
			c-0.71-11.12-1.41-19.62-4.75-32.87c-0.01-0.04-0.02-0.09-0.03-0.13c-1.03-4.14-2.32-8.74-3.96-14.04
			c-0.06-0.21-0.13-0.41-0.19-0.62c-0.92-2.96-1.94-6.15-3.09-9.58c-0.44-1.33-0.9-2.71-1.37-4.12c-0.78-2.31,0.54-4.79,2.88-5.45
			c4.72-1.33,9.5-2.41,14.34-3.21c6.65-1.18,13.4-1.89,20.17-2.12c8.74-0.07,18.78,0.91,18.78,0.91s1.43,0.34,2.33,9.61
			C180.82,284.429,181.62,301.819,179.82,333.469z"/>
		<path style="fill:#263238;" d="M131.176,218.15c0,0,3.447-5.118,12.575-5.781c9.128-0.663,19.363,1.962,24.291,14.534l-3.98,0.963
			c0,0,3.98,12.271,3.412,29.046c0,0-22.651-0.663-43.311,4.928c0,0-3.127-14.982-0.853-29.763
			C125.585,217.297,131.176,218.15,131.176,218.15z"/>
		<path style="fill:#EEC1BB;" d="M153.455,274.806c-10.486-1.342-13.638-5.822-13.638-5.822c6.654-6.278,1.126-17.156,1.126-17.156
			l12.622,2.357c-0.332,2.086-0.473,3.836-0.493,5.314c-0.096,7.661,3.369,7.736,3.369,7.736
			C158.656,271.385,153.455,274.806,153.455,274.806z"/>
		<path style="opacity:0.2;enable-background:new    ;" d="M153.565,254.185c-0.332,2.086-0.473,3.836-0.493,5.314
			c-8.526,0-12.129-7.671-12.129-7.671L153.565,254.185z"/>
		<g>
			<path style="fill:#EEC1BB;" d="M162.591,249.159c-0.1,0.374-0.201,0.733-0.316,1.078c-1.466,4.456-4.6,7.201-10.119,7.316
				c-0.762,0.029-1.567,0-2.415-0.086c-0.503-0.057-1.049-0.129-1.595-0.215c-18.859-3.076-19.778-37.358-1.553-38.364
				c10.967-0.604,14.82,5.088,16.243,16.343C163.511,240.592,163.554,245.393,162.591,249.159z"/>
			<path style="fill:#D4827D;" d="M155.71,235.01c0,0,1.678,2.783,3.442,4.376c0,0-0.858,1.544-2.825,1.399L155.71,235.01z"/>
			<g>
				<path style="fill:#263238;" d="M148.945,234.48c0.07,0.9-0.359,1.668-0.959,1.715c-0.6,0.047-1.144-0.645-1.214-1.545
					c-0.07-0.9,0.359-1.668,0.959-1.715C148.331,232.889,148.874,233.58,148.945,234.48z"/>
				<path style="fill:#263238;" d="M147.484,232.999l1.898-0.921C149.381,232.078,148.536,233.801,147.484,232.999z"/>
			</g>
			<g>
				<path style="fill:#263238;" d="M160.12,233.417c0.071,0.9-0.359,1.668-0.959,1.715c-0.6,0.047-1.144-0.645-1.214-1.545
					c-0.07-0.9,0.359-1.668,0.959-1.715S160.05,232.517,160.12,233.417z"/>
				<path style="fill:#263238;" d="M158.659,231.936l1.898-0.921C160.557,231.015,159.711,232.738,158.659,231.936z"/>
			</g>
			<path style="fill:#263238;" d="M143.751,229.329c-0.102,0-0.205-0.031-0.294-0.095c-0.223-0.163-0.273-0.475-0.111-0.699
				c1.707-2.35,4.971-2.136,5.11-2.124c0.275,0.02,0.481,0.26,0.461,0.535c-0.02,0.275-0.269,0.478-0.534,0.462
				c-0.03-0.002-2.852-0.18-4.227,1.715C144.058,229.258,143.906,229.329,143.751,229.329z"/>
			<path style="fill:#263238;" d="M160.791,227.171c-0.086,0-0.173-0.023-0.253-0.069c-2.251-1.326-3.903-0.662-3.973-0.633
				c-0.253,0.105-0.546-0.012-0.654-0.265c-0.107-0.253,0.007-0.544,0.259-0.654c0.087-0.039,2.163-0.907,4.875,0.69
				c0.238,0.14,0.317,0.446,0.177,0.685C161.129,227.083,160.962,227.171,160.791,227.171z"/>
			<path style="fill:#263238;" d="M135.609,238.042c0,0,4.637-9.296,3.478-16.213c0,0,21.257-10.074,23.539,11.937
				c0,0,1.051-19.714-17.835-19.117c-18.856,0.596-17.294,28.187-7.102,35.875C137.688,250.523,132.744,243.853,135.609,238.042z"/>
			<path style="fill:#EEC1BB;" d="M137.528,240.259c-0.17-1.762-2.157-4.653-5.423-4.114c-3.38,0.557-4.618,7.626,3.931,8.841
				C137.263,245.161,137.883,243.937,137.528,240.259z"/>
			<g>
				<path style="fill:#263238;" d="M155.809,244.896c-1.047,1.231-2.433,3.7-2.433,3.7c-0.247-0.085-0.493-0.171-0.734-0.269
					c-3.311-1.241-4.438-2.91-4.682-4.385c-0.131-0.807,0.013-1.562,0.207-2.149c0.217-0.681,0.527-1.117,0.527-1.117
					c1.363,1.706,4.36,3.101,5.993,3.778C155.367,244.746,155.809,244.896,155.809,244.896z"/>
				<path style="fill:#FFFFFF;" d="M154.686,244.455l-0.746,1.072c-3.116-1.176-5.152-2.422-5.774-3.734
					c0.217-0.681,0.527-1.117,0.527-1.117C150.056,242.383,153.054,243.778,154.686,244.455z"/>
				<path style="fill:#DE5753;" d="M152.642,248.327c-3.311-1.241-4.438-2.91-4.682-4.385c1.112,0.466,2.401,1.152,3.404,2.106
					C152.133,246.775,152.485,247.584,152.642,248.327z"/>
			</g>
		</g>
		<g>
			<path style="fill:#1376F8;" d="M245.33,400.799c-1.39,12.65-23.71,19.24-56.06,20.19c-0.01,0-0.01,0-0.02,0
				c-22.86,0.67-50.71-1.47-79.74-6.3l1.38-15.45l13.65-3.31c0,0,0,0-0.01-0.01c-0.12-0.25-2.45-5.33-1.4-16.07
				c0.79-8.15,3.54-19.57,10.7-34.62l45.99-4.07l6.7,14.06c0,0,49.93,13.73,58.19,40.09
				C245.32,397.249,245.52,399.079,245.33,400.799z"/>
			<path style="opacity:0.2;enable-background:new    ;" d="M245.33,400.799c-1.39,12.65-23.71,19.24-56.06,20.19
				c22.26-3.03,30.14-11.12,25.2-25.03c-4.91-13.84-40.53-33.63-41.89-34.4c41.11,15.85,50.8,39.72,50.8,39.72
				C231.04,403.159,239.71,401.999,245.33,400.799z"/>
			<path style="opacity:0.2;enable-background:new    ;" d="M169.11,393.649c-17.93-2.7-44.57,2.28-44.57,2.28s0,0-0.01-0.01
				c-0.12-0.25-2.45-5.33-1.4-16.07C143.25,381.399,169.11,393.649,169.11,393.649z"/>
		</g>
		<g>
			<polygon style="fill:#263238;" points="134.89,337.347 179.822,333.468 179.822,341.162 133.826,345.228 			"/>
			<g>
				<path style="fill:#FFFFFF;" d="M166.389,334.813c-0.573-0.525-1.343-0.795-2.124-0.723l-5.611,0.484
					c-1.453,0.126-2.548,1.319-2.548,2.778v3.584c0,0.779,0.33,1.529,0.905,2.055c0.515,0.472,1.192,0.733,1.885,0.733
					c0.081,0,0.162-0.004,0.243-0.011l5.611-0.495c1.449-0.128,2.542-1.321,2.542-2.776v-3.572
					C167.292,336.089,166.963,335.341,166.389,334.813z M164.624,341.785l-5.611,0.496c-0.385,0.036-0.749-0.09-1.032-0.349
					c-0.282-0.258-0.438-0.612-0.438-0.995v-3.584c0-0.706,0.531-1.284,1.235-1.346l5.611-0.484c0.04-0.003,0.08-0.006,0.119-0.006
					c0.338,0,0.657,0.125,0.91,0.356c0.282,0.258,0.437,0.612,0.437,0.995v0.543c-0.073-0.012-0.143-0.033-0.22-0.027l-1.571,0.121
					c-0.523,0.04-0.918,0.501-0.877,1.024c0.04,0.523,0.501,0.918,1.024,0.877l1.571-0.121c0.027-0.002,0.048-0.017,0.074-0.021
					v1.176C165.855,341.145,165.325,341.723,164.624,341.785z"/>
			</g>
		</g>
		<path style="fill:#EEC1BB;" d="M164.495,298.975c0,0,1.295-5.884,3.548-7.467c2.254-1.582,9.459-3.335,11.089-2.919
			c1.63,0.416,3.428,3.746,3.428,3.746s-6.358,8.905-8.124,9.643C172.67,302.717,165.022,304.068,164.495,298.975z"/>
		<path style="opacity:0.2;enable-background:new    ;" d="M139.82,308.169c-1.88,1.82-6.09-0.79-9.68-3.69
			c-0.01-0.04-0.02-0.09-0.03-0.13c-1.03-4.14-2.32-8.74-3.96-14.04l2.08-8.95C128.23,281.359,143.4,304.699,139.82,308.169z"/>
		<path style="fill:#EEC1BB;" d="M122.109,272.111c-6.274,6.036,10.041,33.517,17.708,40.369c7.667,6.852,27.03-11.205,27.03-11.205
			v-6.146c0,0-17.413,8.642-20.762,8.115c-1.526-0.24-7.293-9.217-11.129-17.432C130.371,275.993,127.398,267.022,122.109,272.111z"
			/>
	</g>
</g>
<g id="Character_2">
	<g id="_x3C_Group_x3E__142_">
		<path style="fill:#E4897B;" d="M214.174,295.72c0,0,11.624,6.309,15.456,6.19c3.831-0.119,15.7-12.291,15.7-12.291l4.67,2.028
			c0,0-12.582,15.839-16.341,16.453c-3.758,0.614-17.941-2.946-17.941-2.946L214.174,295.72z"/>
		<path style="fill:#263238;" d="M205.414,290.003c9.257,0.513,16.971,7.615,16.971,7.615l-2.967,11.096l-11.502-5.184
			L205.414,290.003z"/>
		<path style="opacity:0.4;fill:#FFFFFF;enable-background:new    ;" d="M222.38,297.62l-2.96,11.09l-1.36-0.61l-10.14-4.57
			l-0.54-2.93l-1.97-10.6C214.67,290.52,222.38,297.62,222.38,297.62z"/>
		<path style="opacity:0.2;enable-background:new    ;" d="M218.06,308.1l-10.14-4.57l-0.54-2.93l1.58-4.88
			C208.96,295.72,217.5,297.55,218.06,308.1z"/>
		<path style="fill:#E4897B;" d="M248.032,348.177c0,0,21.024,12.298,28.673,42.281l-5.802,4.421c0,0-7.715-23.757-30.099-34.834
			L248.032,348.177z"/>
		<g>
			<path style="fill:#263238;" d="M277.169,387.897l-9.163,2.216c-0.323,0.063-0.534,0.376-0.471,0.699
				c0.001,0.003,0.001,0.006,0.002,0.01l1.309,7.364c0.191,0.79,0.982,1.28,1.775,1.098c3.185-0.825,4.664-1.378,8.688-2.385
				c2.473-0.605,7.418-1.567,10.669-2.926c3.25-1.359,1.82-4.536,0.324-4.247c-3.552,0.67-8.875-0.448-11.614-1.698
				C278.21,387.816,277.676,387.771,277.169,387.897z"/>
			<path style="fill:#1376F8;" d="M280.402,388.586c-0.74,0.16-1.494,0.238-2.251,0.234c-0.077,0.007-0.149-0.037-0.179-0.108
				c-0.029-0.071-0.019-0.152,0.026-0.214c0.217-0.245,2.15-2.38,3.245-2.237c0.252,0.037,0.468,0.201,0.57,0.435
				c0.223,0.337,0.232,0.772,0.023,1.118C281.473,388.241,280.961,388.517,280.402,388.586z M281.201,386.684
				c-0.585-0.079-1.777,0.933-2.579,1.764c1.53-0.066,2.59-0.371,2.886-0.84c0.116-0.225,0.106-0.495-0.028-0.711
				C281.431,386.783,281.325,386.701,281.201,386.684L281.201,386.684z"/>
			<path style="fill:#1376F8;" d="M278.194,388.813c-0.021,0.02-0.049,0.031-0.078,0.031c-0.063-0.018-0.114-0.064-0.14-0.124
				c-0.018-0.072-0.78-2.402-0.156-3.399c0.17-0.257,0.444-0.425,0.75-0.461c0.338-0.07,0.68,0.098,0.83,0.408
				c0.397,0.843-0.405,2.848-1.101,3.524C278.269,388.815,278.23,388.823,278.194,388.813z M278.53,385.294
				c-0.154,0.036-0.286,0.134-0.364,0.271c-0.38,0.594-0.113,1.951,0.094,2.714c0.558-0.767,1.022-2.24,0.791-2.812
				c-0.043-0.107-0.146-0.223-0.426-0.189L278.53,385.294z"/>
		</g>
		<path style="fill:#E4897B;" d="M225.281,362.222c0,0,14.216,19.778,9.026,50.283l-7.098,1.683c0,0,2.6-24.843-13.354-44.057
			L225.281,362.222z"/>
		<g>
			<path style="fill:#263238;" d="M235.773,410.353l-9.273-1.697c-0.321-0.074-0.641,0.126-0.714,0.447
				c-0.001,0.003-0.002,0.006-0.002,0.01l-1.796,7.261c-0.146,0.8,0.378,1.568,1.175,1.724c3.245,0.539,4.822,0.635,8.908,1.35
				c2.506,0.452,7.415,1.581,10.937,1.66c3.523,0.078,3.505-3.406,2.021-3.749c-3.518-0.831-7.928-4.015-9.923-6.269
				C236.757,410.702,236.287,410.444,235.773,410.353z"/>
			<path style="fill:#1376F8;" d="M238.447,412.296c-0.741-0.154-1.462-0.389-2.152-0.701c-0.073-0.025-0.121-0.094-0.12-0.171
				c0.002-0.077,0.044-0.147,0.111-0.185c0.297-0.136,2.931-1.302,3.874-0.726c0.215,0.136,0.345,0.374,0.345,0.629
				c0.067,0.398-0.101,0.8-0.433,1.031C239.565,412.416,238.985,412.46,238.447,412.296z M239.949,410.883
				c-0.502-0.31-2.002,0.13-3.074,0.565c1.424,0.561,2.517,0.714,2.978,0.405c0.198-0.159,0.298-0.41,0.263-0.661
				C240.119,411.066,240.055,410.949,239.949,410.883L239.949,410.883z"/>
			<path style="fill:#1376F8;" d="M236.337,411.607c-0.027,0.01-0.057,0.009-0.084-0.003c-0.05-0.042-0.079-0.105-0.078-0.17
				c0.013-0.073,0.264-2.512,1.238-3.169c0.259-0.165,0.578-0.208,0.872-0.117c0.337,0.073,0.582,0.366,0.593,0.71
				c0.021,0.932-1.527,2.438-2.438,2.773C236.404,411.639,236.366,411.63,236.337,411.607z M238.074,408.528
				c-0.155-0.03-0.316,0.006-0.443,0.1c-0.589,0.388-0.896,1.737-1.017,2.518c0.822-0.474,1.844-1.632,1.865-2.248
				c0.004-0.115-0.043-0.263-0.313-0.345L238.074,408.528z"/>
		</g>
		<path style="fill:#263238;" d="M225.1,341.301c0,0-11.183-27.586-12.569-43.736c-0.332-3.866-3.275-7.014-7.117-7.561
			c-3.182-0.453-7.559-0.605-13.375,0.104c-15.052,1.834-21.524,6.441-21.524,6.441s-0.363,27.319,5.289,52.424L225.1,341.301z"/>
		<path style="opacity:0.4;fill:#FFFFFF;enable-background:new    ;" d="M225.1,341.3l-49.3,7.67c-1.73-7.7-2.9-15.61-3.68-22.87
			c-0.57-5.26-0.94-10.18-1.18-14.44c-0.51-9.04-0.43-15.11-0.43-15.11s6.48-4.61,21.53-6.44c5.82-0.71,10.19-0.56,13.37-0.11
			c3.85,0.55,6.79,3.7,7.12,7.56C213.92,313.71,225.1,341.3,225.1,341.3z"/>
		<g>
			<path style="fill:#E4897B;" d="M199.003,287.635c-0.554,1.526-0.733,3.352,0.138,5.289c0.13,0.287,0.275,0.574,0.449,0.861
				c0.246,0.401,0.55,0.803,0.897,1.218c0,0,1.181,4.675-4.437,4.317c-8.613-0.549-12.058-6.359-12.058-6.359
				s3.736-3.653,3.119-9.96c-0.151-1.609-0.59-3.375-1.431-5.298l10.985,4.064l4.996,1.847
				C201.659,283.613,199.884,285.231,199.003,287.635z"/>
			<path style="opacity:0.2;enable-background:new    ;" d="M199.003,287.635c-0.554,1.526-0.733,3.352,0.138,5.289
				c0.13,0.287,0.275,0.574,0.449,0.861c-6.2-1.094-10.394-7.027-12.48-10.784c-0.151-1.609-0.59-3.375-1.431-5.298l10.985,4.064
				l4.996,1.847C201.659,283.613,199.884,285.231,199.003,287.635z"/>
		</g>
		<g>
			<path style="fill:#263238;" d="M204.89,249.228c0,0,13.197,8.039,1.566,20.432C193.314,283.661,204.89,249.228,204.89,249.228z"
				/>
			<path style="fill:#E4897B;" d="M178.547,269.4c1.954,9.024,8.532,18.387,16.289,18.676c14.229,0.529,19.274-2.906,19.336-13.415
				c0.103-9.469-5.27-23.65-17.124-24.721C185.196,248.867,175.837,256.883,178.547,269.4z"/>
			<path style="fill:#263238;" d="M207.138,255.102c0,0-5.576,3.235-13.329,2.73c0,0-5.419,1.686-3.323,7.767
				c2.096,6.081-4.676,10.511-3.776,18.821c0,0-8.779,0.186-12.697-17.746c-2.855-13.067,7.882-19.816,19.684-21.26
				C203.579,244.206,211.552,250.315,207.138,255.102z"/>
			<path style="fill:#263238;" d="M199.744,269.058c0.208,1.151,0.995,1.986,1.752,1.836c0.757-0.15,1.186-1.19,0.978-2.342
				c-0.208-1.151-0.995-1.969-1.752-1.836C199.966,266.85,199.536,267.907,199.744,269.058z"/>
			<path style="fill:#263238;" d="M208.876,266.918c0.199,1.101,0.952,1.899,1.675,1.756c0.724-0.143,1.134-1.138,0.935-2.239
				c-0.199-1.101-0.952-1.883-1.675-1.756C209.088,264.806,208.678,265.818,208.876,266.918z"/>
			<path style="fill:#263238;" d="M201.999,262.664c0.072-0.085,0.119-0.187,0.136-0.297c-0.004-0.291-0.239-0.527-0.53-0.532
				c-1.702-0.057-3.323,0.725-4.338,2.091c-0.161,0.243-0.094,0.57,0.149,0.731v0c0.246,0.147,0.563,0.082,0.731-0.149l0,0
				c0.831-1.072,2.135-1.669,3.49-1.595C201.787,262.882,201.917,262.792,201.999,262.664z"/>
			<path style="fill:#263238;" d="M211.026,261.496c0.103-0.04,0.194-0.108,0.261-0.196c0.135-0.258,0.042-0.577-0.212-0.721
				c-1.468-0.862-3.266-0.949-4.81-0.233c-0.257,0.137-0.355,0.456-0.218,0.714l0,0c0.146,0.246,0.455,0.341,0.714,0.218l0,0
				c1.242-0.546,2.673-0.447,3.828,0.264C210.735,261.586,210.893,261.569,211.026,261.496z"/>
			<path style="fill:#DE5753;" d="M207.319,268.586l-0.31,5.107c1.23,0.095,2.559-0.221,3.634-0.864
				C209.239,271.569,208.12,270.142,207.319,268.586z"/>
			<path style="fill:#E4897B;" d="M189.611,273.466c0,0-3.304-5.207-5.905-2.983c-2.601,2.224-0.534,11.46,3.754,10.77
				C191.747,280.563,192.032,276.158,189.611,273.466z"/>
			<g>
				<path style="fill:#263238;" d="M207.916,277.056c-0.689,1.39-1.407,4.011-1.407,4.011c-0.25-0.022-0.499-0.044-0.746-0.08
					c-3.372-0.387-4.809-1.68-5.379-2.997c-0.309-0.721-0.35-1.458-0.306-2.049c0.044-0.685,0.232-1.163,0.232-1.163
					c1.665,1.273,4.781,1.876,6.459,2.128C207.47,277.02,207.916,277.056,207.916,277.056z"/>
				<path style="fill:#FFFFFF;" d="M206.768,276.907l-0.446,1.172c-3.176-0.372-5.361-1.06-6.245-2.137
					c0.044-0.685,0.232-1.163,0.232-1.163C201.974,276.052,205.09,276.655,206.768,276.907z"/>
				<path style="fill:#DE5753;" d="M205.762,280.988c-3.372-0.387-4.809-1.68-5.379-2.997c1.144,0.176,2.504,0.516,3.659,1.171
					C204.928,279.66,205.444,280.332,205.762,280.988z"/>
			</g>
			<path style="fill:#263238;" d="M196.841,245.273c8.792,0.514,12.87-2.435,12.87-2.435c5.302,5.191,0.12,17.51-15.902,14.994
				C177.786,255.316,194.02,245.109,196.841,245.273z"/>
		</g>
		<path style="fill:#263238;" d="M257,350.12l-8.78,16.21l-2.82,5.2l-17.63-6.93l-10.66,16.46c0,0-46.58-14.07-42.41-37.41
			l45.98-14.23C220.68,329.42,241.79,334.73,257,350.12z"/>
		<path style="opacity:0.2;enable-background:new    ;" d="M248.22,366.33l-2.82,5.2l-17.63-6.93l1.1-3.12l-17.83-19.8
			C211.04,341.68,236.35,349.79,248.22,366.33z"/>
		<polygon style="fill:#FFFFFF;" points="197.805,311.604 198.96,303.176 204.378,311.01 211.04,309.901 207.352,316.626 
			211.04,324.341 203.886,320.978 196.317,327.803 196.731,318.407 190.543,313.461 		"/>
		<path style="fill:#E4897B;" d="M245.399,291.647c0,0-1.058-1.418-0.069-3.944c0.989-2.527,11.877-4.407,11.877-4.407
			s1.196,6.316,0,8.351C256.011,293.681,246.458,296.14,245.399,291.647z"/>
		<path style="opacity:0.2;enable-background:new    ;" d="M172.12,326.1c-0.57-5.26-0.94-10.18-1.18-14.44
			c1.89-1.51,4.1-2.42,6.51-2.27C177.45,309.39,178.6,320.88,172.12,326.1z"/>
		<path style="fill:#E4897B;" d="M174.436,312.412c0,0-5.642,16.837-6.393,20.988c-0.751,4.151,0,24.364,0,24.364h-4.713
			c0,0-2.66-21.32-2.462-25.492c0.198-4.172,4.986-23.557,4.986-23.557L174.436,312.412z"/>
		<path style="fill:#263238;" d="M170.655,296.572c-6.041,4.6-9.416,19.548-9.416,19.548l11.904,1.332l4.327-10.662L170.655,296.572
			z"/>
		<path style="opacity:0.4;fill:#FFFFFF;enable-background:new    ;" d="M170.655,296.572c-6.041,4.6-9.416,19.548-9.416,19.548
			l11.904,1.332l4.327-10.662L170.655,296.572z"/>
		<path style="fill:#E4897B;" d="M164.033,355.15c0,0-7.517,1.223-8.901,2.613c-1.385,1.39-4.045,5.149-4.045,5.149
			s8.742,2.673,10.151,3.018c1.41,0.345,7.212-5.048,7.871-6.506C169.769,357.967,164.033,355.15,164.033,355.15z"/>
	</g>
</g>
</svg>
