<?xml version="1.0" encoding="utf-8"?>
<!-- Generator: Adobe Illustrator 27.5.0, SVG Export Plug-In . SVG Version: 6.00 Build 0)  -->
<svg version="1.1" xmlns="http://www.w3.org/2000/svg" xmlns:xlink="http://www.w3.org/1999/xlink" x="0px" y="0px"
	 viewBox="0 0 500 500" style="enable-background:new 0 0 500 500;" xml:space="preserve">
<g id="Background_complete">
	<rect x="300.073" y="91.993" style="fill:#F5F5F5;" width="37.586" height="13.491"/>
	<rect x="197.863" y="33.507" style="fill:#F5F5F5;" width="37.586" height="13.491"/>
	<g>
		<rect x="182.679" y="152.594" style="fill:#EBEBEB;" width="37.586" height="13.491"/>
		<rect x="172.041" y="148.245" style="fill:#F5F5F5;" width="37.586" height="13.491"/>
		<rect x="321.55" y="217.364" style="fill:#F5F5F5;" width="37.586" height="13.491"/>
		<rect x="430.74" y="290.158" style="fill:#F5F5F5;" width="37.586" height="13.491"/>
		<rect x="428.603" y="127.623" style="fill:#F5F5F5;" width="37.586" height="13.491"/>
		<rect x="402.055" y="41.282" style="fill:#EBEBEB;" width="37.586" height="13.491"/>
	</g>
	<g>
		<rect x="73.244" y="56.038" style="fill:#EBEBEB;" width="37.586" height="13.491"/>
		<rect x="61.931" y="69.864" style="fill:#F5F5F5;" width="37.586" height="13.491"/>
	</g>
	<g>
		<rect x="423.645" y="195.624" style="fill:#EBEBEB;" width="37.586" height="13.491"/>
		<rect x="412.333" y="209.45" style="fill:#F5F5F5;" width="37.586" height="13.491"/>
	</g>
	<g>
		<rect x="38.733" y="217.364" style="fill:#EBEBEB;" width="37.586" height="13.491"/>
		<rect x="27.421" y="231.19" style="fill:#F5F5F5;" width="37.586" height="13.491"/>
	</g>
	<g>
		<polygon style="fill:#E0E0E0;" points="50.372,470.147 78.595,470.147 84.129,409.213 44.839,409.213 		"/>
		<path style="fill:#E0E0E0;" d="M64.07,419.352c0.781-25.421-5.463-77.878-15.61-98.265l0.695-0.344
			c10.544,21.23,16.437,73.422,15.719,98.632L64.07,419.352z"/>
		<path style="fill:#E0E0E0;" d="M73.093,337.852c-9.538,7.485-12.121,31.891-12.121,31.891
			C67.731,358.567,78.205,353.259,73.093,337.852z"/>
		<path style="fill:#E0E0E0;" d="M60.854,370.118c-0.173-0.055-0.281-0.226-0.258-0.406c0.101-1.007,2.701-24.656,12.262-32.165
			c0.1-0.077,0.231-0.101,0.351-0.062c0.121,0.037,0.217,0.13,0.258,0.25c3.84,11.567-0.929,17.514-6.447,24.391
			c-2.08,2.474-3.989,5.087-5.713,7.821c-0.072,0.116-0.199,0.187-0.336,0.187L60.854,370.118z M61.588,368.05
			c1.538-2.334,3.2-4.402,4.816-6.416c5.292-6.595,9.873-12.309,6.494-23.118C65.381,344.955,62.337,362.461,61.588,368.05z"/>
		<path style="fill:#E0E0E0;" d="M37.674,333.957c11.427,3.973,21.573,26.537,21.573,26.537
			C49.233,352.112,37.83,350.168,37.674,333.957z"/>
		<path style="fill:#E0E0E0;" d="M59.286,360.807c-2.435-1.973-4.987-3.797-7.641-5.464c-7.477-4.87-13.94-9.085-14.049-21.409
			c0.002-0.126,0.063-0.245,0.164-0.32c0.105-0.074,0.239-0.091,0.359-0.047c11.473,4.004,21.378,25.842,21.792,26.771
			c0.025,0.053,0.038,0.111,0.037,0.17c-0.003,0.211-0.177,0.38-0.388,0.377C59.462,360.889,59.366,360.862,59.286,360.807z
			 M52.082,354.695c2.1,1.366,4.254,2.771,6.384,4.425c-2.474-5.042-10.857-20.917-20.082-24.617
			C38.688,345.97,44.901,350.012,52.082,354.695z"/>
		<path style="fill:#E0E0E0;" d="M80.008,361.166c-11.848,8.976-15.75,42.928-15.75,42.928
			C72.773,390.559,85.94,380.155,80.008,361.166z"/>
		<path style="fill:#E0E0E0;" d="M64.101,404.546c-0.211-0.075-0.344-0.285-0.32-0.507c0.164-1.397,4.074-34.256,15.938-43.24
			c0.125-0.094,0.287-0.123,0.437-0.078c0.149,0.047,0.266,0.163,0.312,0.312c4.73,15.134-2.388,24.75-9.928,34.943
			c-1.975,2.693-4.059,5.479-5.877,8.375c-0.088,0.139-0.242,0.222-0.406,0.219C64.205,404.569,64.152,404.561,64.101,404.546z
			 M65.015,402.056c1.53-2.287,3.2-4.496,4.761-6.65c7.274-9.834,14.151-19.13,9.983-33.413
			C70.283,369.931,66.076,394.681,65.015,402.056z"/>
		<path style="fill:#E0E0E0;" d="M35.761,356.459c13.932,5.136,27.13,29.331,27.13,29.331
			C50.817,375.309,35.582,376.339,35.761,356.459z"/>
		<path style="fill:#E0E0E0;" d="M62.579,386.15c-3.731-3.239-7.719-5.339-11.583-7.376c-8.5-4.48-15.844-8.351-15.719-22.315
			c0.001-0.052,0.011-0.104,0.029-0.154c0.09-0.251,0.368-0.382,0.619-0.291c13.94,5.144,26.849,28.551,27.388,29.542
			c0.112,0.202,0.063,0.456-0.117,0.601c-0.085,0.072-0.193,0.111-0.304,0.109C62.777,386.266,62.666,386.224,62.579,386.15z
			 M36.237,357.162c0.133,12.816,7.126,16.508,15.235,20.769c3.403,1.679,6.661,3.637,9.741,5.854
			C57.6,377.822,47.125,361.658,36.237,357.162L36.237,357.162z"/>
		<path style="fill:#E0E0E0;" d="M65.132,322.812c-6.658,5.222-8.453,22.244-8.453,22.244
			C61.393,337.267,68.699,333.559,65.132,322.812z"/>
		<path style="fill:#E0E0E0;" d="M56.554,345.306c-0.119-0.04-0.193-0.157-0.18-0.281c0.101-0.702,1.92-17.202,8.585-22.439
			c0.072-0.053,0.164-0.07,0.25-0.047c0.084,0.029,0.151,0.095,0.18,0.18c2.677,8.07-0.648,12.215-4.503,17.015
			c-1.446,1.732-2.776,3.557-3.981,5.464c-0.047,0.081-0.133,0.132-0.226,0.133C56.636,345.336,56.592,345.328,56.554,345.306z
			 M57.1,343.878c1.077-1.623,2.232-3.075,3.364-4.48c3.692-4.597,6.868-8.578,4.527-16.125
			C59.754,327.784,57.654,339.983,57.1,343.878z"/>
		<path style="fill:#E0E0E0;" d="M53.401,333.762c-1.698-1.375-3.478-2.644-5.331-3.801c-5.222-3.403-9.733-6.345-9.811-14.931
			c-0.004-0.091,0.041-0.177,0.117-0.226c0.079-0.039,0.171-0.039,0.25,0c8,2.802,14.908,18.03,15.204,18.678
			c0.048,0.116,0.013,0.25-0.086,0.328c-0.047,0.036-0.105,0.056-0.164,0.055C53.509,333.856,53.444,333.819,53.401,333.762z"/>
	</g>
	<g>
		<path style="fill:#E0E0E0;" d="M118.836,209.411c-0.217-0.864,0.083-1.776,0.771-2.342l4.656-4.647
			c0.56-0.69,1.471-0.992,2.333-0.771l16.843,7.88l-16.714,16.714L118.836,209.411z"/>
		<path style="fill:#E0E0E0;" d="M121.577,200.065l6.825,6.825c0.95,0.95,0.95,2.491,0,3.442l-0.883,0.883
			c-0.95,0.95-2.491,0.95-3.442,0l-6.825-6.825c-0.95-0.95-0.95-2.491,0-3.442l0.883-0.883
			C119.085,199.114,120.626,199.114,121.577,200.065z"/>
		<polygon style="fill:#E0E0E0;" points="105.712,299.687 134.035,299.687 132.014,297.051 107.733,297.051 		"/>
		<path style="fill:#E0E0E0;" d="M119.479,297.317l-32.492-47.58c-0.129-0.168-0.129-0.401,0-0.569l35.476-43.824
			c0.022-0.036,0.049-0.069,0.08-0.099c0.192-0.181,0.494-0.172,0.675,0.02c0.181,0.192,0.172,0.494-0.021,0.675l-35.256,43.549
			l32.326,47.296c0.001,0.001,0.001,0.002,0.002,0.003c0.143,0.215,0.085,0.506-0.13,0.649c-0.079,0.053-0.171,0.082-0.266,0.083
			C119.716,297.522,119.568,297.447,119.479,297.317z"/>
		<path style="fill:#E0E0E0;" d="M89.751,249.471c0,1.324-1.073,2.397-2.397,2.397s-2.397-1.073-2.397-2.397
			c0-1.324,1.073-2.397,2.397-2.397S89.751,248.147,89.751,249.471z"/>
		<polyline style="opacity:0.3;fill:#E0E0E0;" points="119.607,207.07 124.263,202.423 123.348,201.836 119.089,206.227 
			119.492,206.861 		"/>
	</g>
	<g>
		<g>
			<g>
				<g>
					<g>
						<path style="fill:#E0E0E0;" d="M443.92,309.368H263.174c-3.232,0-5.862-2.63-5.862-5.862V40.233
							c0-3.232,2.63-5.862,5.862-5.862H443.92c3.232,0,5.862,2.629,5.862,5.862v263.273
							C449.783,306.739,447.153,309.368,443.92,309.368z M263.174,34.621c-3.095,0-5.612,2.518-5.612,5.612v263.273
							c0,3.095,2.518,5.612,5.612,5.612H443.92c3.095,0,5.612-2.517,5.612-5.612V40.233c0-3.094-2.518-5.612-5.612-5.612H263.174z"
							/>
					</g>
				</g>
				<g>
					<g>
						<path style="fill:#E0E0E0;" d="M235.493,309.368H54.746c-3.232,0-5.862-2.63-5.862-5.862V40.233
							c0-3.232,2.629-5.862,5.862-5.862h180.747c3.232,0,5.862,2.629,5.862,5.862v263.273
							C241.355,306.739,238.725,309.368,235.493,309.368z M54.746,34.621c-3.094,0-5.612,2.518-5.612,5.612v263.273
							c0,3.095,2.518,5.612,5.612,5.612h180.747c3.095,0,5.612-2.517,5.612-5.612V40.233c0-3.094-2.518-5.612-5.612-5.612H54.746z"
							/>
					</g>
				</g>
			</g>
			<g>
				<g>
					<rect x="0" y="370.438" style="fill:#E0E0E0;" width="500" height="0.25"/>
				</g>
			</g>
		</g>
		<rect x="51.672" y="384.702" style="fill:#E0E0E0;" width="16.06" height="0.25"/>
		<rect x="170.352" y="381.992" style="fill:#E0E0E0;" width="53.53" height="0.25"/>
		<rect x="68.732" y="393.992" style="fill:#E0E0E0;" width="36.25" height="0.25"/>
		<rect x="378.352" y="381.862" style="fill:#E0E0E0;" width="43.19" height="0.25"/>
		<rect x="430.452" y="381.862" style="fill:#E0E0E0;" width="6.33" height="0.25"/>
		<rect x="316.212" y="388.092" style="fill:#E0E0E0;" width="53.89" height="0.25"/>
	</g>
</g>
<g id="Background_simple" style="display:none;">
	<g style="display:inline;">
		<g>
			<path style="fill:#1376F8;" d="M115.523,128.645c21.591-29.634,41.259-33.146,63.674-31.409
				c22.415,1.738,43.365,16.416,52.652,36.89c6.574,14.492,8.765,32.853,22.385,41.082c17.957,10.849,39.615-4.137,59.316-11.35
				c27.79-10.174,61.111-3.121,82.396,17.44c21.285,20.561,29.486,53.618,20.279,81.744c-6.279,19.18-19.676,35.313-34.854,48.613
				c-56.998,49.943-143.961,62.524-212.777,30.781c-24.657-11.373-47.594-28.683-60.043-52.815
				c-20.825-40.368-22.599-93.825-5.729-136C103.669,151.506,115.523,128.645,115.523,128.645z"/>
		</g>
		<g style="opacity:0.9;">
			<path style="fill:#FFFFFF;" d="M115.523,128.645c21.591-29.634,41.259-33.146,63.674-31.409
				c22.415,1.738,43.365,16.416,52.652,36.89c6.574,14.492,8.765,32.853,22.385,41.082c17.957,10.849,39.615-4.137,59.316-11.35
				c27.79-10.174,61.111-3.121,82.396,17.44c21.285,20.561,29.486,53.618,20.279,81.744c-6.279,19.18-19.676,35.313-34.854,48.613
				c-56.998,49.943-143.961,62.524-212.777,30.781c-24.657-11.373-47.594-28.683-60.043-52.815
				c-20.825-40.368-22.599-93.825-5.729-136C103.669,151.506,115.523,128.645,115.523,128.645z"/>
		</g>
	</g>
</g>
<g id="Shadow">
	<g>
		<g>
			<path style="fill:#F5F5F5;" d="M458.875,470.846c0,3.387-93.517,6.132-208.875,6.132s-208.875-2.746-208.875-6.132
				c0-3.387,93.516-6.132,208.875-6.132S458.875,467.459,458.875,470.846z"/>
		</g>
	</g>
</g>
<g id="Flag">
	<g>
		<g id="freepik--Flag--inject-2_00000013159174692448611220000002563203274235579831_">
			<path style="fill:#1376F8;" d="M53.148,321.362h0.088H53.148z"/>
			<path style="fill:#1376F8;" d="M72.203,135.038V302.98c0,13.35-17.14,17.918-18.912,18.354l0,0
				c8.256-8.573,4.238-19.608,4.238-19.608l0,0c-13.011-4.414-20.552-17.746-23.04-26.882c-1.453-5.449,4.689-20.462,11.008-34.23
				c4.293-9.345,8.707-18.109,10.876-22.914c4.689-10.399-5.68-22.487-4.767-36.954c0.135-2.145,0.526-4.275,1.167-6.357
				C58.179,157.062,72.203,135.038,72.203,135.038z"/>
			<path style="opacity:0.2;enable-background:new    ;" d="M53.148,321.362h0.088H53.148z"/>
			<path style="opacity:0.2;enable-background:new    ;" d="M53.291,321.471v-0.055c8.256-8.573,4.238-19.499,4.238-19.499v0.091
				l0,0C66.82,302.917,74.856,308.484,53.291,321.471z"/>
			<path style="opacity:0.5;" d="M72.203,236.31v39.679C62.018,264.88,53.09,253.024,45.53,240.57
				c4.293-9.345,8.707-18.109,10.876-22.914c4.689-10.399-5.68-22.487-4.767-36.954c2.202,11.743,5.581,25.792,9.819,31.196
				C65.257,216.784,69.021,226.447,72.203,236.31z"/>
			<rect x="70.695" y="132.477" style="fill:#263238;" width="4.921" height="336.792"/>
			<rect x="70.695" y="132.477" style="opacity:0.3;fill:#FFFFFF;" width="4.921" height="336.792"/>
			<path style="fill:#263238;" d="M76.358,131.959c0.006,1.745-1.423,3.164-3.192,3.17c-1.769,0.006-3.208-1.404-3.214-3.148
				c-0.006-1.745,1.423-3.164,3.192-3.17c0.007,0,0.015,0,0.022,0C74.929,128.81,76.358,130.22,76.358,131.959L76.358,131.959z"/>
			<path style="opacity:0.3;fill:#FFFFFF;" d="M76.358,131.959c0.006,1.745-1.423,3.164-3.192,3.17
				c-1.769,0.006-3.208-1.404-3.214-3.148c-0.006-1.745,1.423-3.164,3.192-3.17c0.007,0,0.015,0,0.022,0
				C74.929,128.81,76.358,130.22,76.358,131.959L76.358,131.959z"/>
		</g>
		<path style="fill:#263238;" d="M96.526,469.269H49.784c-0.796,0-1.441-0.645-1.441-1.441v-0.209c0-0.796,0.645-1.441,1.441-1.441
			h46.741c0.796,0,1.441,0.645,1.441,1.441v0.209C97.966,468.624,97.321,469.269,96.526,469.269z"/>
		<path style="opacity:0.3;fill:#FFFFFF;" d="M96.526,469.269H49.784c-0.796,0-1.441-0.645-1.441-1.441v-0.209
			c0-0.796,0.645-1.441,1.441-1.441h46.741c0.796,0,1.441,0.645,1.441,1.441v0.209C97.966,468.624,97.321,469.269,96.526,469.269z"
			/>
	</g>
</g>
<g id="Pictures">
	<g>
		<rect x="226.234" y="61.22" style="fill:#1376F8;" width="56.131" height="75.839"/>
		
			<rect x="230.985" y="66.78" style="fill:#FFFFFF;stroke:#263238;stroke-width:0.5;stroke-miterlimit:10;" width="46.63" height="64.718"/>
		<polygon style="opacity:0.3;" points="226.234,61.22 230.985,66.78 277.615,66.78 282.365,61.22 		"/>
		<path style="opacity:0.3;" d="M226.234,137.059l4.751-5.56h46.63l4.751,5.56C282.206,137.465,226.234,137.059,226.234,137.059z"/>
		<path style="fill:none;stroke:#263238;stroke-linecap:round;stroke-linejoin:round;stroke-miterlimit:10;" d="M240.196,80.381
			c5.163,0,10.326,0,15.49,0"/>
		<path style="fill:none;stroke:#263238;stroke-linecap:round;stroke-linejoin:round;stroke-miterlimit:10;" d="M240.196,87.803
			c9.333,0,18.667,0,28.001,0"/>
		<path style="fill:none;stroke:#263238;stroke-linecap:round;stroke-linejoin:round;stroke-miterlimit:10;" d="M240.196,93.271
			c9.333,0,18.667,0,28.001,0"/>
		<path style="fill:none;stroke:#263238;stroke-linecap:round;stroke-linejoin:round;stroke-miterlimit:10;" d="M240.196,98.739
			c9.333,0,18.667,0,28.001,0"/>
		<path style="fill:none;stroke:#263238;stroke-linecap:round;stroke-linejoin:round;stroke-miterlimit:10;" d="M240.196,104.207
			c9.333,0,18.667,0,28.001,0"/>
		<path style="fill:none;stroke:#263238;stroke-linecap:round;stroke-linejoin:round;stroke-miterlimit:10;" d="M251.64,116.253
			c1.99,0,3.98,0,5.97,0"/>
		<path style="fill:#1376F8;" d="M268.982,116.524c0,2.061-1.671,3.731-3.731,3.731s-3.732-1.671-3.732-3.731
			s1.671-3.731,3.732-3.731S268.982,114.464,268.982,116.524z"/>
	</g>
	<g>
		
			<rect x="104.521" y="59.28" transform="matrix(6.123234e-17 -1 1 6.123234e-17 35.3866 229.7854)" style="fill:#263238;" width="56.131" height="75.839"/>
		
			<rect x="104.521" y="59.28" transform="matrix(6.123234e-17 -1 1 6.123234e-17 35.3866 229.7854)" style="opacity:0.3;fill:#FFFFFF;" width="56.131" height="75.839"/>
		
			<rect x="109.271" y="64.84" transform="matrix(6.123234e-17 -1 1 6.123234e-17 35.3867 229.7853)" style="fill:#FFFFFF;stroke:#263238;stroke-width:0.5;stroke-miterlimit:10;" width="46.63" height="64.718"/>
		<polygon style="opacity:0.3;" points="94.667,125.265 100.227,120.514 100.227,73.884 94.667,69.134 		"/>
		<path style="opacity:0.3;" d="M170.505,125.265l-5.56-4.751v-46.63l5.56-4.75C170.912,69.293,170.505,125.265,170.505,125.265z"/>
		<path style="fill:none;stroke:#263238;stroke-linecap:round;stroke-linejoin:round;stroke-miterlimit:10;" d="M111.295,90.216
			c14.524,0,29.048,0,43.571,0"/>
		<path style="fill:none;stroke:#263238;stroke-linecap:round;stroke-linejoin:round;stroke-miterlimit:10;" d="M111.295,95.684
			c14.524,0,29.048,0,43.571,0"/>
		<path style="fill:none;stroke:#263238;stroke-linecap:round;stroke-linejoin:round;stroke-miterlimit:10;" d="M125.271,101.152
			c5.86,0,11.72,0,17.581,0"/>
		<path style="fill:none;stroke:#263238;stroke-linecap:round;stroke-linejoin:round;stroke-miterlimit:10;" d="M117.965,109.104
			c-1.99,0-3.98,0-5.97,0"/>
		<path style="fill:#1376F8;" d="M152.611,105.18c1.967,0,3.561,1.486,3.561,3.319s-1.594,3.319-3.561,3.319
			c-1.967,0-3.561-1.486-3.561-3.319S150.645,105.18,152.611,105.18z"/>
		<path style="fill:none;stroke:#263238;stroke-linecap:round;stroke-linejoin:round;stroke-miterlimit:10;" d="M125.271,84.073
			c5.86,0,11.72,0,17.581,0"/>
	</g>
	<g>
		
			<rect x="110.88" y="137.817" transform="matrix(6.123234e-17 -1 1 6.123234e-17 -34.5338 299.5666)" style="fill:#1376F8;" width="43.273" height="58.466"/>
		
			<rect x="114.542" y="142.104" transform="matrix(6.123234e-17 -1 1 6.123234e-17 -34.5339 299.5667)" style="fill:#FFFFFF;stroke:#263238;stroke-width:0.5;stroke-miterlimit:10;" width="35.948" height="49.893"/>
		<polygon style="opacity:0.3;" points="103.283,188.687 107.57,185.024 107.57,149.076 103.283,145.414 		"/>
		<path style="opacity:0.3;" d="M161.75,188.687l-4.287-3.662v-35.948l4.287-3.662C162.063,145.537,161.75,188.687,161.75,188.687z"
			/>
		<path style="fill:none;stroke:#263238;stroke-linecap:round;stroke-linejoin:round;stroke-miterlimit:10;" d="M116.103,161.667
			c11.197,0,22.394,0,33.59,0"/>
		<path style="fill:none;stroke:#263238;stroke-linecap:round;stroke-linejoin:round;stroke-miterlimit:10;" d="M116.103,165.882
			c11.197,0,22.394,0,33.59,0"/>
		<path style="fill:none;stroke:#263238;stroke-linecap:round;stroke-linejoin:round;stroke-miterlimit:10;" d="M126.877,170.098
			c4.518,0,9.036,0,13.553,0"/>
		<path style="fill:none;stroke:#263238;stroke-linecap:round;stroke-linejoin:round;stroke-miterlimit:10;" d="M121.244,176.228
			c-1.534,0-3.069,0-4.603,0"/>
		<path style="fill:#1376F8;" d="M147.954,173.203c1.516,0,2.745,1.146,2.745,2.559c0,1.413-1.229,2.559-2.745,2.559
			c-1.516,0-2.745-1.146-2.745-2.559C145.209,174.348,146.438,173.203,147.954,173.203z"/>
		<path style="fill:none;stroke:#263238;stroke-linecap:round;stroke-linejoin:round;stroke-miterlimit:10;" d="M126.877,156.931
			c4.518,0,9.036,0,13.553,0"/>
	</g>
	<g>
		
			<rect x="350.197" y="59.18" transform="matrix(6.123234e-17 -1 1 6.123234e-17 281.1626 475.3615)" style="fill:#263238;" width="56.131" height="75.839"/>
		
			<rect x="350.197" y="59.18" transform="matrix(6.123234e-17 -1 1 6.123234e-17 281.1626 475.3615)" style="opacity:0.3;fill:#FFFFFF;" width="56.131" height="75.839"/>
		
			<rect x="354.947" y="64.74" transform="matrix(6.123234e-17 -1 1 6.123234e-17 281.1627 475.3615)" style="fill:#FFFFFF;stroke:#263238;stroke-width:0.5;stroke-miterlimit:10;" width="46.63" height="64.718"/>
		<polygon style="opacity:0.3;" points="340.343,125.165 345.903,120.414 345.903,73.785 340.343,69.034 		"/>
		<path style="opacity:0.3;" d="M416.181,125.165l-5.56-4.751v-46.63l5.56-4.751C416.588,69.193,416.181,125.165,416.181,125.165z"
			/>
		<path style="fill:none;stroke:#263238;stroke-linecap:round;stroke-linejoin:round;stroke-miterlimit:10;" d="M356.971,90.116
			c14.524,0,29.047,0,43.571,0"/>
		<path style="fill:none;stroke:#263238;stroke-linecap:round;stroke-linejoin:round;stroke-miterlimit:10;" d="M356.971,95.584
			c14.524,0,29.047,0,43.571,0"/>
		<path style="fill:none;stroke:#263238;stroke-linecap:round;stroke-linejoin:round;stroke-miterlimit:10;" d="M370.947,101.052
			c5.86,0,11.72,0,17.581,0"/>
		<path style="fill:none;stroke:#263238;stroke-linecap:round;stroke-linejoin:round;stroke-miterlimit:10;" d="M363.641,109.004
			c-1.99,0-3.98,0-5.97,0"/>
		<path style="fill:#1376F8;" d="M398.287,105.08c1.967,0,3.561,1.486,3.561,3.319c0,1.833-1.594,3.319-3.561,3.319
			c-1.967,0-3.561-1.486-3.561-3.319C394.726,106.566,396.321,105.08,398.287,105.08z"/>
		<path style="fill:none;stroke:#263238;stroke-linecap:round;stroke-linejoin:round;stroke-miterlimit:10;" d="M370.947,83.973
			c5.86,0,11.72,0,17.581,0"/>
	</g>
	<g>
		
			<rect x="358.032" y="137.717" transform="matrix(6.123234e-17 -1 1 6.123234e-17 212.7179 546.6185)" style="fill:#1376F8;" width="43.273" height="58.466"/>
		
			<rect x="361.694" y="142.004" transform="matrix(6.123234e-17 -1 1 6.123234e-17 212.7178 546.6185)" style="fill:#FFFFFF;stroke:#263238;stroke-width:0.5;stroke-miterlimit:10;" width="35.948" height="49.893"/>
		<polygon style="opacity:0.3;" points="350.435,188.587 354.721,184.924 354.721,148.976 350.435,145.314 		"/>
		<path style="opacity:0.3;" d="M408.901,188.587l-4.286-3.662v-35.948l4.286-3.662
			C409.215,145.437,408.901,188.587,408.901,188.587z"/>
		<path style="fill:none;stroke:#263238;stroke-linecap:round;stroke-linejoin:round;stroke-miterlimit:10;" d="M363.255,161.567
			c11.197,0,22.394,0,33.59,0"/>
		<path style="fill:none;stroke:#263238;stroke-linecap:round;stroke-linejoin:round;stroke-miterlimit:10;" d="M363.255,165.782
			c11.197,0,22.394,0,33.59,0"/>
		<path style="fill:none;stroke:#263238;stroke-linecap:round;stroke-linejoin:round;stroke-miterlimit:10;" d="M374.029,169.998
			c4.518,0,9.036,0,13.553,0"/>
		<path style="fill:none;stroke:#263238;stroke-linecap:round;stroke-linejoin:round;stroke-miterlimit:10;" d="M368.396,176.128
			c-1.534,0-3.068,0-4.603,0"/>
		<path style="fill:#1376F8;" d="M395.106,173.103c1.516,0,2.745,1.146,2.745,2.559c0,1.413-1.229,2.559-2.745,2.559
			c-1.516,0-2.745-1.146-2.745-2.559C392.361,174.249,393.59,173.103,395.106,173.103z"/>
		<path style="fill:none;stroke:#263238;stroke-linecap:round;stroke-linejoin:round;stroke-miterlimit:10;" d="M374.029,156.831
			c4.518,0,9.036,0,13.553,0"/>
	</g>
</g>
<g id="Speech_Bubble">
	<g>
		<path style="fill:#1376F8;" d="M319.86,155.579c-8.599-8.562-22.51-8.532-31.072,0.067c-8.206,8.241-8.497,21.349-0.939,29.964
			l-0.863,6.908l6.376-2.371c8.421,4.88,19.375,3.727,26.565-3.495C328.489,178.053,328.459,164.141,319.86,155.579z"/>
		<path style="opacity:0.7;fill:#FFFFFF;enable-background:new    ;" d="M319.86,155.579c-8.599-8.562-22.51-8.532-31.072,0.067
			c-8.206,8.241-8.497,21.349-0.939,29.964l-0.863,6.908l6.376-2.371c8.421,4.88,19.375,3.727,26.565-3.495
			C328.489,178.053,328.459,164.141,319.86,155.579z"/>
		<path style="fill:none;stroke:#1376F8;stroke-width:0.5;stroke-linecap:round;stroke-linejoin:round;stroke-miterlimit:10;" d="
			M286.487,151.565c-5.802,4.168-9.263,11.397-8.873,18.53"/>
		<path style="fill:none;stroke:#1376F8;stroke-width:0.5;stroke-linecap:round;stroke-linejoin:round;stroke-miterlimit:10;" d="
			M277.91,173.36c-0.021,1.089,0.185,2.183,0.603,3.189"/>
		<g>
			<g>
				<path style="fill:#1376F8;" d="M292.264,164.602c1.266,16.508,12.074,20.229,13.598,20.183
					c1.524-0.046,11.723-4.155,10.457-20.663c-5.247-0.507-8.183-3.24-11.27-6.124C301.997,161.104,296.679,164.554,292.264,164.602
					z"/>
				<path style="opacity:0.3;" d="M294.433,165.82c1.039,13.545,9.907,16.598,11.158,16.561c1.25-0.037,10.164-3.247,9.125-16.792
					c-4.353-0.658-7.26-2.821-9.793-5.188C302.418,162.951,298.055,165.781,294.433,165.82z"/>
				<path style="fill:#1376F8;" d="M305.725,166.178l1.049,2.125c0.093,0.188,0.272,0.318,0.479,0.348l2.345,0.341
					c0.522,0.076,0.73,0.717,0.353,1.085l-1.697,1.654c-0.15,0.146-0.218,0.357-0.183,0.563l0.401,2.335
					c0.089,0.52-0.456,0.916-0.923,0.671l-2.097-1.103c-0.185-0.097-0.407-0.097-0.592,0l-2.097,1.103
					c-0.467,0.245-1.012-0.151-0.923-0.671l0.401-2.335c0.035-0.206-0.033-0.417-0.183-0.563l-1.697-1.654
					c-0.378-0.368-0.169-1.009,0.352-1.085l2.345-0.341c0.207-0.03,0.386-0.16,0.479-0.348l1.049-2.125
					C304.817,165.705,305.491,165.705,305.725,166.178z"/>
			</g>
		</g>
	</g>
</g>
<g id="Character">
	<g>
		<g>
			<rect x="340.782" y="279.009" style="fill:#1376F8;" width="60.833" height="18.93"/>
			<rect x="340.782" y="279.009" style="opacity:0.6;fill:#FFFFFF;enable-background:new    ;" width="60.833" height="18.93"/>
			<rect x="340.782" y="279.009" style="opacity:0.6;fill:#FFFFFF;enable-background:new    ;" width="46.94" height="18.93"/>
			<polygon style="opacity:0.2;fill:#1376F8;enable-background:new    ;" points="387.722,279.009 340.782,279.009 340.782,280.947 
				386.663,280.947 			"/>
			<polygon style="opacity:0.2;fill:#1376F8;enable-background:new    ;" points="401.615,285.66 340.782,285.003 340.782,284.501 
				401.615,284.501 			"/>
			<polygon style="opacity:0.2;fill:#1376F8;enable-background:new    ;" points="340.782,287.61 401.615,291.03 401.615,290.518 
				340.782,286.451 			"/>
			<polygon style="opacity:0.2;fill:#1376F8;enable-background:new    ;" points="340.782,295.119 401.615,293.727 401.615,293.225 
				340.782,293.961 			"/>
			<rect x="336.838" y="264.313" style="fill:#1376F8;" width="60.833" height="14.696"/>
			<rect x="336.838" y="264.313" style="opacity:0.6;fill:#FFFFFF;enable-background:new    ;" width="60.833" height="14.696"/>
			<rect x="336.838" y="264.313" style="opacity:0.6;fill:#FFFFFF;enable-background:new    ;" width="48.477" height="14.696"/>
			<polygon style="opacity:0.2;fill:#1376F8;enable-background:new    ;" points="383.332,264.313 336.838,264.313 336.838,265.861 
				382.284,265.861 			"/>
			<polygon style="opacity:0.2;fill:#1376F8;enable-background:new    ;" points="397.682,274.719 336.838,275.287 336.838,275.733 
				397.682,275.733 			"/>
			<polygon style="opacity:0.2;fill:#1376F8;enable-background:new    ;" points="336.838,273.026 397.682,270.062 397.682,270.508 
				336.838,274.039 			"/>
			<polygon style="opacity:0.2;fill:#1376F8;enable-background:new    ;" points="336.838,266.508 397.682,267.722 397.682,268.157 
				336.838,267.522 			"/>
			<g>
				<rect x="338.816" y="256.889" style="fill:#1376F8;" width="60.834" height="7.666"/>
				<rect x="338.816" y="256.889" style="opacity:0.6;fill:#FFFFFF;enable-background:new    ;" width="60.834" height="7.666"/>
				<rect x="338.816" y="256.889" style="opacity:0.6;fill:#FFFFFF;enable-background:new    ;" width="48.477" height="7.666"/>
				<polygon style="opacity:0.2;fill:#1376F8;enable-background:new    ;" points="399.649,262.315 338.816,262.615 
					338.816,262.838 399.649,262.838 				"/>
				<polygon style="opacity:0.2;fill:#1376F8;enable-background:new    ;" points="338.816,261.434 399.649,259.886 399.649,260.12 
					338.816,261.958 				"/>
				<polygon style="opacity:0.2;fill:#1376F8;enable-background:new    ;" points="338.816,258.036 399.649,258.66 399.649,258.894 
					338.816,258.56 				"/>
			</g>
			<g>
				<rect x="342.808" y="249.223" style="fill:#1376F8;" width="60.833" height="7.666"/>
				<rect x="342.808" y="249.223" style="opacity:0.6;fill:#FFFFFF;enable-background:new    ;" width="60.833" height="7.666"/>
				<rect x="342.808" y="249.223" style="opacity:0.6;fill:#FFFFFF;enable-background:new    ;" width="48.477" height="7.666"/>
				<polygon style="opacity:0.2;fill:#1376F8;enable-background:new    ;" points="403.642,254.649 342.808,254.95 342.808,255.173 
					403.642,255.173 				"/>
				<polygon style="opacity:0.2;fill:#1376F8;enable-background:new    ;" points="342.808,253.769 403.642,252.22 403.642,252.454 
					342.808,254.293 				"/>
				<polygon style="opacity:0.2;fill:#1376F8;enable-background:new    ;" points="342.808,250.371 403.642,250.995 
					403.642,251.229 342.808,250.894 				"/>
			</g>
		</g>
		<rect x="95.973" y="304.101" style="fill:#A24E3F;" width="307.669" height="165.168"/>
		<g>
			<path style="fill:#1376F8;" d="M303.142,298.495h-95.166v-66.095c0-10.011,8.116-18.127,18.127-18.127h58.912
				c10.011,0,18.127,8.116,18.127,18.127V298.495z"/>
			<path style="opacity:0.5;fill:#FFFFFF;enable-background:new    ;" d="M303.142,298.495h-95.166v-66.095
				c0-10.011,8.116-18.127,18.127-18.127h58.912c10.011,0,18.127,8.116,18.127,18.127V298.495z"/>
			<g>
				<path style="fill:#263238;" d="M243.327,185.173c-1.678,0.672-16.532,8.972-12.924,30.22
					c3.608,21.248-9.488,13.494-6.214,16.953c3.274,3.459,4.89,5.589,15.213,2.329c10.323-3.26,27.231-4.376,35.693-5.176
					s0.503-34.017-4.059-39.42C260.563,177.678,243.327,185.173,243.327,185.173z"/>
				<g>
					<g>
						<g>
							<g>
								<g>
									<path style="fill:#263238;" d="M248.23,192.929c0,0-8.971,15.742-9.395,20.639c-3.434,2.847-5.874-2.926-5.746-10.663
										c0.105-6.333,3.497-13.167,9.117-15.628C250.1,183.82,248.23,192.929,248.23,192.929z"/>
									<g>
										<g>
											<path style="fill:#FFAF6B;" d="M249.917,238.439c1.503-1.461,1.144-3.219,0.859-5.346
												c-0.198-1.635-0.74-3.335-1.385-4.99l2.242-2.373l11.661-10.658c-0.556,7.372-1.483,20.034,4.293,24.25l-24.376,15.09
												l2.254-14.442C245.465,239.97,247.712,239.642,249.917,238.439z"/>
											<path style="opacity:0.2;" d="M250.844,233.725c3.16-1.679,6.67-4.661,6.395-8.22c-0.126-1.499-0.404-2.924-0.737-3.844
												l-6.586,7.88C250.384,230.865,250.54,231.735,250.844,233.725z"/>
											<path style="fill:#FFAF6B;" d="M266.919,203.324c-1.478,11.218-1.86,15.984-8.044,21.675
												c-9.302,8.56-22.993,5.087-24.953-6.154c-1.765-10.117,0.949-26.762,12.472-31.092
												C257.746,183.487,268.397,192.105,266.919,203.324z"/>
											<path style="fill:#263238;" d="M251.244,207.278c-0.009,1.056-0.632,1.953-1.391,2.003
												c-0.759,0.05-1.366-0.765-1.357-1.82c0.009-1.056,0.632-1.953,1.391-2.003
												C250.645,205.406,251.253,206.222,251.244,207.278z"/>
											<path style="fill:#263238;" d="M240.246,206.457c0.051,1.022-0.517,1.927-1.269,2.021
												c-0.752,0.094-1.404-0.659-1.455-1.681c-0.051-1.022,0.517-1.927,1.269-2.021
												C239.544,204.682,240.195,205.435,240.246,206.457z"/>
											<path style="fill:#263238;" d="M254.32,203.653c-0.148,0.009-0.295-0.039-0.405-0.147
												c-1.704-1.685-3.735-1.211-3.758-1.206c-0.301,0.071-0.594-0.106-0.648-0.405c-0.053-0.298,0.15-0.599,0.455-0.674
												c0.106-0.025,2.655-0.622,4.769,1.47c0.211,0.209,0.198,0.56-0.027,0.786
												C254.598,203.584,254.459,203.644,254.32,203.653z"/>
											<path style="fill:#263238;" d="M236.408,201.348c-0.134-0.043-0.248-0.132-0.312-0.259
												c-0.132-0.263-0.003-0.587,0.288-0.723c2.917-1.371,5.19-0.182,5.286-0.13c0.27,0.145,0.35,0.472,0.177,0.73
												c-0.171,0.258-0.529,0.349-0.798,0.205c-0.088-0.048-1.866-0.945-4.186,0.145
												C236.714,201.387,236.549,201.394,236.408,201.348z"/>
											<path style="fill:#FFAF6B;" d="M270.074,212.62c-1.451,2.26-3.723,3.631-5.776,4.056
												c-3.087,0.639-4.488-4.207-3.333-7.155c1.04-2.654,4.113-4.326,7.068-3.635
												C270.945,206.568,271.734,210.036,270.074,212.62z"/>
											<path style="fill:#E97F3F;" d="M243.537,205.583c0,0-1.965,4.149-4.103,6.704c-0.374,0.446-0.178,1.124,0.369,1.343
												c1.408,0.562,3.096,0.158,3.096,0.158L243.537,205.583z"/>
										</g>
										<path style="fill:#263238;" d="M250.117,205.421l-2.681-0.488C247.436,204.932,248.979,206.792,250.117,205.421z"/>
										<path style="fill:#263238;" d="M239.18,204.789l-2.706-0.332C237.791,205.864,238.841,205.252,239.18,204.789z"/>
									</g>
									<g>
										<path style="fill:#263238;" d="M270.04,197.176c1.568,2.206-1.554,8.614-1.554,8.614s-5.544-1.606-5.846,6.527
											c-2.045,0.33-4.34-7.264-4.006-14.896C259.044,193.109,267.272,193.282,270.04,197.176z"/>
									</g>
									
										<path style="opacity:0.2;fill:none;stroke:#000000;stroke-width:0.5;stroke-linecap:round;stroke-linejoin:round;stroke-miterlimit:10;" d="
										M265.825,208.689c0.98-0.366,1.997,0.264,2.319,1.053c0.389,0.954-0.15,3.17-3.151,3.865"/>
								</g>
							</g>
						</g>
						<g>
							<path style="fill:#263238;" d="M241.837,217.464c0.868,1.242,1.931,3.66,1.931,3.66c0.242-0.054,0.485-0.108,0.723-0.175
								c3.268-0.817,4.507-2.247,4.889-3.585c0.206-0.733,0.147-1.444,0.023-2.005c-0.136-0.651-0.386-1.084-0.386-1.084
								c-1.467,1.441-4.453,2.431-6.07,2.895C242.271,217.37,241.837,217.464,241.837,217.464z"/>
							<path style="fill:#FFFFFF;" d="M242.946,217.169l0.598,1.064c3.076-0.777,5.135-1.725,5.859-2.875
								c-0.136-0.651-0.386-1.084-0.386-1.084C247.55,215.715,244.564,216.705,242.946,217.169z"/>
							<path style="fill:#FB504E;" d="M244.491,220.949c3.268-0.817,4.507-2.247,4.889-3.585c-1.103,0.32-2.395,0.826-3.444,1.607
								C245.131,219.565,244.715,220.277,244.491,220.949z"/>
						</g>
						<path style="fill:#263238;" d="M237.36,190.916c2.445-4.95,12.406-9.549,23.86-4.77c10.348,4.303,13.337,18.974,5.857,19.526
							c-7.479,0.552-16.298-6.576-16.298-6.576L237.36,190.916z"/>
					</g>
				</g>
				<g>
					<path style="fill:#1376F8;" d="M209.806,298.495c0,0-4.002-5.459-0.167-16.413c3.836-10.954,10.498-37.137,15.501-39.63
						l6.512,31.319l-3.335,9.765l20.215,5.86l-0.807,9.103L209.806,298.495z"/>
					<path style="opacity:0.5;" d="M209.806,298.495c0,0-4.002-5.459-0.167-16.413c3.836-10.954,10.498-37.137,15.501-39.63
						l6.512,31.319l-3.335,9.765l20.215,5.86l-0.807,9.103L209.806,298.495z"/>
					<polygon style="fill:#FFFFFF;" points="228.484,242.4 246.328,237.413 250.844,233.725 257.918,241.812 263.714,232.508 
						268.303,237.661 287.352,243.438 278.51,298.026 234.487,298.495 					"/>
				</g>
				<path style="fill:#1376F8;" d="M246.328,237.413l11.59,46.543c0,0,0.438,14.539,0.572,14.539s-24.002,0-24.002,0l-4.807-28.936
					l-4.54-27.108L246.328,237.413z"/>
				<path style="opacity:0.5;" d="M246.328,237.413l11.59,46.543c0,0,0.438,14.539,0.572,14.539s-24.002,0-24.002,0l-4.807-28.936
					l-4.54-27.108L246.328,237.413z"/>
				<path style="fill:#1376F8;" d="M228.613,245.339c0,0-1.153-3.55-1.153-3.621c0-0.071,13.182-3.434,13.182-3.434l1.457,2.958
					L228.613,245.339z"/>
				<path style="opacity:0.7;" d="M228.613,245.339c0,0-1.153-3.55-1.153-3.621c0-0.071,13.182-3.434,13.182-3.434l1.457,2.958
					L228.613,245.339z"/>
				<path style="opacity:0.3;" d="M230.775,276.34c0.021-0.062-4.215-20.069-4.215-20.069l2.551,24.941L230.775,276.34z"/>
				<path style="opacity:0.5;" d="M246.328,237.413c0,0-4.997,10.036-5.099,12.377l10.705,22.822
					c1.677,2.151,5.984,11.344,5.984,11.344L246.328,237.413"/>
				<path style="fill:#1376F8;" d="M268.303,237.661l-10.917,46.295c0,0-0.752,14.531-0.885,14.539
					c-0.133,0.008,21.809,0.001,21.809,0.001l5.443-30.157l4.07-25.887L268.303,237.661z"/>
				<path style="opacity:0.5;" d="M268.303,237.661l-10.917,46.295c0,0-0.752,14.531-0.885,14.539
					c-0.133,0.008,21.809,0.001,21.809,0.001l5.443-30.157l4.07-25.887L268.303,237.661z"/>
				<path style="fill:#1376F8;" d="M283.928,244.386c0,0,0.753-3.548,0.766-3.616c0.013-0.07-13.902-2.973-13.902-2.973
					l-1.263,3.041L283.928,244.386z"/>
				<path style="opacity:0.7;" d="M283.928,244.386c0,0,0.753-3.548,0.766-3.616c0.013-0.07-13.902-2.973-13.902-2.973l-1.263,3.041
					L283.928,244.386z"/>
				<path style="fill:#1376F8;" d="M273.817,239.824c0,0.437-0.527,0.79-1.177,0.79c-0.65,0-1.177-0.354-1.177-0.79
					c0-0.437,0.527-0.791,1.177-0.791C273.29,239.033,273.817,239.387,273.817,239.824z"/>
				<path style="fill:#1376F8;" d="M240.858,240.614c0,0.437-0.527,0.791-1.177,0.791c-0.65,0-1.177-0.354-1.177-0.791
					s0.527-0.79,1.177-0.79C240.331,239.824,240.858,240.177,240.858,240.614z"/>
				<path style="fill:#1376F8;" d="M236.615,241.71c0,0.437-0.527,0.791-1.177,0.791c-0.65,0-1.177-0.354-1.177-0.791
					c0-0.437,0.527-0.791,1.177-0.791C236.088,240.92,236.615,241.274,236.615,241.71z"/>
				<path style="fill:#1376F8;" d="M232.372,242.807c0,0.437-0.527,0.79-1.177,0.79s-1.177-0.354-1.177-0.79
					s0.527-0.791,1.177-0.791S232.372,242.37,232.372,242.807z"/>
				<path style="fill:#1376F8;" d="M278.582,240.92c0,0.437-0.527,0.791-1.177,0.791c-0.65,0-1.177-0.354-1.177-0.791
					s0.527-0.791,1.177-0.791C278.055,240.129,278.582,240.483,278.582,240.92z"/>
				<path style="fill:#1376F8;" d="M283.347,242.016c0,0.437-0.527,0.791-1.177,0.791c-0.65,0-1.177-0.354-1.177-0.791
					s0.527-0.79,1.177-0.79C282.82,241.225,283.347,241.579,283.347,242.016z"/>
				<path style="fill:#1376F8;" d="M257.918,241.812c-0.038,0.074-3.326,3.845-3.326,3.845l1.909,4.133h2.686l2.13-4.636
					L257.918,241.812L257.918,241.812z"/>
				<path style="fill:#1376F8;" d="M256.501,249.79c-0.492,0.147-2.744,17.458-2.744,17.458s3.644,16.643,3.629,16.17
					c-0.015-0.473,4.978-20.513,4.978-20.513l-3.178-13.115H256.501z"/>
				<path style="opacity:0.3;" d="M228.317,283.536c0,0-6.951-0.338-10.904,3.059c0,0,0.043-7.308,11.417-4.56L228.317,283.536z"/>
				<path style="fill:#1376F8;" d="M271.038,258.439c0.492,6.411,4.689,7.856,5.281,7.838c0.592-0.018,4.553-1.614,4.061-8.024
					c-1.753-0.052-3.441-0.659-4.807-1.729C274.387,257.73,272.752,258.421,271.038,258.439z"/>
				<path style="opacity:0.5;" d="M220.783,253.805c-0.71-0.205-1.492-0.005-2.257,0.511l-3.696,11.198
					c0.337,1.064,0.935,1.811,1.759,2.049c1.991,0.575,4.543-2.038,5.701-5.837C223.449,257.927,222.774,254.381,220.783,253.805z"
					/>
				<path style="fill:#1376F8;" d="M219.639,255.719c-0.699,0.727-1.383,1.132-1.961,1.172l-1.906,5.796
					c-0.068,1.548,0.305,2.16,0.432,2.199c0.231,0.071,2.341-0.827,4.598-6.852C220.158,257.726,219.749,256.914,219.639,255.719z"
					/>
				<polygon style="fill:#1376F8;" points="231.356,298.495 234.301,285.359 236.162,285.84 233.151,298.499 				"/>
				<polygon style="fill:#1376F8;" points="236.009,298.495 238.677,286.596 240.494,287.189 237.804,298.499 				"/>
				<polygon style="fill:#1376F8;" points="240.662,298.495 243.065,287.988 244.926,288.469 242.457,298.499 				"/>
				
					<polyline style="fill:none;stroke:#263238;stroke-width:0.5;stroke-linecap:round;stroke-linejoin:round;stroke-miterlimit:10;" points="
					247.747,298.246 248.532,289.396 228.317,283.536 229.752,279.333 				"/>
				<g>
					<g>
						<path style="fill:#1376F8;" d="M303.142,298.495c0,0,4.002-5.459,0.167-16.413c-3.836-10.954-10.498-37.137-15.501-39.63
							l-6.512,31.319l3.335,9.765l-20.215,5.86l0.807,9.103L303.142,298.495z"/>
						<path style="opacity:0.5;" d="M303.142,298.495c0,0,4.002-5.459,0.167-16.413c-3.836-10.954-10.498-37.137-15.501-39.63
							l-6.512,31.319l3.335,9.765l-20.215,5.86l0.807,9.103L303.142,298.495z"/>
					</g>
					<path style="opacity:0.3;" d="M282.303,276.72c-0.021-0.062,2.579-20.196,2.579-20.196l-1.045,24.688L282.303,276.72z"/>
					<path style="opacity:0.3;" d="M284.631,283.536c0,0,6.951-0.338,10.904,3.059c0,0-0.043-7.308-11.417-4.56L284.631,283.536z"/>
					<polygon style="fill:#1376F8;" points="281.592,298.495 278.647,285.359 276.786,285.84 279.797,298.499 					"/>
					<polygon style="fill:#1376F8;" points="276.939,298.495 274.271,286.596 272.454,287.189 275.145,298.499 					"/>
					<polygon style="fill:#1376F8;" points="272.286,298.495 269.883,287.988 268.022,288.469 270.491,298.499 					"/>
					
						<polyline style="fill:none;stroke:#263238;stroke-width:0.5;stroke-linecap:round;stroke-linejoin:round;stroke-miterlimit:10;" points="
						282.303,276.72 284.631,283.536 264.416,289.396 265.223,298.499 					"/>
				</g>
				<path style="opacity:0.5;" d="M268.303,237.661l-11.048,46.295c0,0,4.307-9.192,5.984-11.344l10.705-22.822
					C273.841,247.449,268.303,237.661,268.303,237.661z"/>
				<path style="fill:none;stroke:#263238;stroke-width:0.5;stroke-linecap:round;stroke-linejoin:round;stroke-miterlimit:10;" d="
					M246.792,237.413l5.963,10.367l5.163-5.968c0,0,5.265,5.243,5.265,5.045c0-0.198,5.151-9.318,5.151-9.318"/>
				<g>
					<rect x="267.905" y="268.39" style="fill:#1376F8;" width="12.077" height="2.386"/>
					<rect x="271.038" y="268.39" style="fill:#FFFFFF;" width="2.906" height="2.386"/>
					<rect x="277.054" y="268.39" style="fill:#263238;" width="2.958" height="2.386"/>
				</g>
				
					<path style="opacity:0.3;fill:none;stroke:#000000;stroke-width:0.5;stroke-linecap:round;stroke-linejoin:round;stroke-miterlimit:10;" d="
					M238.871,191.724c8.546,5.709,17.976,10.16,27.872,13.155"/>
				
					<path style="opacity:0.3;fill:none;stroke:#000000;stroke-width:0.5;stroke-linecap:round;stroke-linejoin:round;stroke-miterlimit:10;" d="
					M249.114,189.425c5.827,6.069,12.631,11.247,20.087,15.286"/>
			</g>
			<path style="fill:#FFAF6B;" d="M248.694,290.365c0,0,10.559-0.727,12.067,0.469c1.507,1.196,6.735,3.732,7.261,6.463
				c0,0,0.06,1.084,0,1.225c-0.06,0.141-20.078-0.027-20.078-0.027L248.694,290.365z"/>
		</g>
		<g>
			<polygon style="fill:#263238;" points="167.29,296.157 125.052,296.157 125.052,298.53 171.201,298.53 			"/>
			<g>
				<polygon style="fill:#1376F8;" points="196.01,286.67 119.922,286.67 114.485,227.341 190.564,227.341 				"/>
				<polygon style="fill:#263238;" points="194.852,286.67 118.773,286.67 113.336,227.341 189.415,227.341 				"/>
				<polygon style="opacity:0.3;" points="164.23,286.67 155.584,286.67 165.054,265.802 				"/>
				<polygon style="fill:#1376F8;" points="137.198,295.914 154.464,296.903 165.054,265.802 147.462,265.802 				"/>
				<polygon style="fill:#263238;" points="135.651,297.934 153.255,297.934 164.196,265.802 147.462,265.802 				"/>
				
					<polyline style="opacity:0.3;fill:none;stroke:#000000;stroke-width:0.5;stroke-linecap:round;stroke-linejoin:round;stroke-miterlimit:10;" points="
					135.926,297.805 147.462,265.802 165.054,265.802 				"/>
			</g>
		</g>
		<path style="fill:#A24E3F;" d="M414.518,306.531H85.482c-2.277,0-4.123-1.846-4.123-4.123v-0.941c0-2.277,1.846-4.123,4.123-4.123
			h329.036c2.277,0,4.123,1.846,4.123,4.123v0.941C418.641,304.685,416.795,306.531,414.518,306.531z"/>
		<rect x="95.973" y="306.531" style="opacity:0.3;" width="307.669" height="10.665"/>
		<g style="opacity:0.3;">
			<g>
				<path d="M317.366,309.188c0,20.664,0,41.327,0,61.991s0,41.327,0,61.991c0,11.665,0,23.33,0,34.995c0,1.93,3,1.934,3,0
					c0-20.664,0-41.327,0-61.991c0-20.664,0-41.327,0-61.991c0-11.665,0-23.33,0-34.995
					C320.366,307.257,317.366,307.254,317.366,309.188L317.366,309.188z"/>
			</g>
		</g>
		<g style="opacity:0.3;">
			<g>
				<path d="M167.61,309.823c0,20.282,0,40.564,0,60.847c0,20.282,0,40.564,0,60.847c0,11.471,0,22.942,0,34.413c0,1.93,3,1.934,3,0
					c0-20.282,0-40.565,0-60.847c0-20.282,0-40.565,0-60.847c0-11.471,0-22.942,0-34.413
					C170.61,307.893,167.61,307.89,167.61,309.823L167.61,309.823z"/>
			</g>
		</g>
		<g>
			<g>
				<polygon style="fill:#263238;" points="309.414,297.321 357.503,297.321 353.658,285.923 313.993,285.923 				"/>
				<path style="opacity:0.3;" d="M352.734,287.505l-4.22,9.816c0,0,7.818,0.395,7.423,0
					C355.542,296.926,352.734,287.505,352.734,287.505z"/>
				<path style="fill:#1376F8;" d="M349.658,287.505c0,0.296-3.958,8.551-3.958,8.551h-33.1l3.598-8.551H349.658z"/>
			</g>
			<polygon style="opacity:0.3;fill:#FFFFFF;" points="315.486,296.092 329.218,287.505 334.392,287.505 321.158,296.092 			"/>
			<polygon style="opacity:0.3;fill:#FFFFFF;" points="326.23,296.092 339.962,287.505 345.136,287.505 331.902,296.092 			"/>
		</g>
		<g>
			<rect x="346.403" y="243.788" style="fill:#263238;" width="53.644" height="5.342"/>
			<rect x="392.259" y="245.065" style="fill:#EBEBEB;" width="7.788" height="2.649"/>
			<rect x="349.629" y="245.801" style="fill:#1376F8;" width="31.038" height="1.318"/>
		</g>
	</g>
</g>
<g id="Plant">
	<g>
		<g>
			<g>
				<path style="fill:#1376F8;" d="M439.277,310.021c-16.418,19.205-21.213,47.633-12.003,71.161
					c10.233-9.133,17.439-23.055,17.895-35.231C445.626,333.774,442.439,321.789,439.277,310.021z"/>
			</g>
			<g>
				<path style="fill:#1376F8;" d="M436.413,383.401c-5.571,8.536-8.237,18.931-7.464,29.095c8.876-3.09,16.7-13.116,21.391-21.259
					c4.691-8.144,7.314-17.29,9.7-26.381C450.426,368.24,441.984,374.866,436.413,383.401z"/>
			</g>
			<g>
				<g>
					<path style="fill:#263238;" d="M434.33,343.55c-6.6,23.725-9.964,48.335-9.937,72.963c0.008,6.981,0.291,13.958,0.836,20.918
						c0.037,0.478,0.788,0.482,0.75,0c-1.917-24.487-0.503-49.212,4.237-73.314c1.347-6.849,2.966-13.643,4.837-20.368
						C435.183,343.283,434.459,343.085,434.33,343.55L434.33,343.55z"/>
				</g>
			</g>
			<g>
				<g>
					<path style="fill:#263238;" d="M425.487,420.536c6.739-16.038,15.596-31.06,25.833-45.105c0.285-0.391-0.366-0.765-0.648-0.379
						c-10.279,14.102-19.142,29.182-25.908,45.284C424.577,420.781,425.302,420.975,425.487,420.536L425.487,420.536z"/>
				</g>
			</g>
			<g>
				<path style="fill:#1376F8;" d="M415.894,396.702c4.645,7.118,6.869,15.785,6.224,24.26
					c-7.401-2.577-13.925-10.936-17.837-17.727c-3.912-6.791-6.099-14.418-8.089-21.997
					C404.21,384.06,411.249,389.585,415.894,396.702z"/>
			</g>
			<g>
				<g>
					<path style="fill:#263238;" d="M425.286,426.569c-5.53-13.153-12.834-25.344-21.228-36.859
						c-0.281-0.386-0.932-0.012-0.648,0.378c8.352,11.458,15.649,23.592,21.152,36.68
						C424.747,427.206,425.473,427.014,425.286,426.569L425.286,426.569z"/>
				</g>
			</g>
			<g>
				<g>
					<path style="fill:#263238;" d="M425.536,430.973c10.444-10.745,21.108-21.273,31.552-32.018c0.337-0.346-0.193-0.877-0.53-0.53
						c-10.444,10.745-21.108,21.273-31.552,32.018C424.669,430.789,425.199,431.32,425.536,430.973L425.536,430.973z"/>
				</g>
			</g>
			<g>
				<path style="fill:#1376F8;" d="M457.454,393.992c-9.061,8.738-17.317,18.312-24.628,28.56l1.658,0
					c6.897-0.323,13.592-3.726,17.918-9.106C456.73,408.066,458.617,400.797,457.454,393.992z"/>
			</g>
			<g>
				<g>
					<g>
						<path style="fill:#263238;" d="M414.53,373.17c3.891,6.363,7.556,12.86,10.99,19.48c0.222,0.429,0.87,0.05,0.648-0.379
							c-3.434-6.62-7.1-13.117-10.99-19.48C414.926,372.381,414.277,372.757,414.53,373.17L414.53,373.17z"/>
					</g>
				</g>
				<g>
					<path style="fill:#1376F8;" d="M405.18,341.027c-1.484,6.674-2.955,15.353-2.971,22.302c-0.015,6.95,2.105,13.73,6.054,18.387
						c3.949,4.657,11.921,6.697,15.135,4.032L405.18,341.027z"/>
				</g>
			</g>
		</g>
		<rect x="399.4" y="430.707" style="fill:#263238;" width="47.995" height="8.068"/>
		<polygon style="fill:#263238;" points="439.623,467.518 409.82,467.518 404.404,436.927 443.901,436.927 		"/>
		<polygon style="opacity:0.2;" points="404.757,438.926 443.622,438.926 443.137,442.389 405.371,442.389 		"/>
	</g>
</g>
</svg>
