<?xml version="1.0" encoding="utf-8"?>
<!-- Generator: Adobe Illustrator 23.0.5, SVG Export Plug-In . SVG Version: 6.00 Build 0)  -->
<svg version="1.1" id="Layer_1" xmlns="http://www.w3.org/2000/svg" xmlns:xlink="http://www.w3.org/1999/xlink" x="0px" y="0px"
	 viewBox="0 0 500 500" style="enable-background:new 0 0 500 500;" xml:space="preserve">
<style type="text/css">
	.st0{fill:#D1E3FF;}
	.st1{fill:#EEF9FF;}
	.st2{fill:#E3EEFF;}
	.st3{fill:#F5FCFF;}
	.st4{fill:#FFFFFF;}
	.st5{fill:#EBF3FF;}
	.st6{fill:#F3F8FF;}
	.st7{display:none;}
	.st8{display:inline;opacity:0.4;fill:#D4E8FF;enable-background:new    ;}
	.st9{fill:#F0F6FF;}
	.st10{opacity:0.2;fill:#318FFF;enable-background:new    ;}
	.st11{fill:#9FC6FF;}
	.st12{fill:#0053CC;}
	.st13{fill:#318FFF;}
	.st14{fill:#197BDD;}
	.st15{fill:#4EA4F9;}
	.st16{opacity:0.4;fill:#D4E8FF;enable-background:new    ;}
	.st17{fill:#FF8B7B;}
	.st18{fill:#0F264C;}
	.st19{fill:#FF5652;}
	.st20{fill:#14365B;}
	.st21{fill:#EA7063;}
	.st22{fill:#77B3FC;}
	.st23{fill:#004DAA;}
	.st24{display:inline;}
	.st25{fill:#A5B7C6;}
</style>
<g id="Background_2">
	<g>
		<g>
			<g>
				<g>
					<rect y="382.4" class="st0" width="500" height="0.3"/>
					<rect x="376.3" y="390" class="st0" width="16.9" height="0.3"/>
					<rect x="404" y="389.9" class="st0" width="44.6" height="0.3"/>
					<rect x="265.3" y="391.6" class="st0" width="55.5" height="0.3"/>
					<rect x="238.8" y="391.6" class="st0" width="20.7" height="0.3"/>
					<rect x="142.5" y="389.6" class="st0" width="9.1" height="0.3"/>
					<rect x="157.1" y="389.6" class="st0" width="15" height="0.3"/>
					<rect x="66.9" y="394.1" class="st0" width="66.6" height="0.3"/>
					<path class="st0" d="M237,337.8H43.9c-3.1,0-5.7-2.6-5.7-5.7V60.7c0-3.1,2.6-5.7,5.7-5.7H237c3.1,0,5.7,2.6,5.7,5.7v271.4
						C242.7,335.2,240.2,337.8,237,337.8z M43.9,55.2c-3,0-5.5,2.4-5.5,5.5v271.4c0,3,2.4,5.5,5.5,5.5H237c3,0,5.5-2.4,5.5-5.5V60.7
						c0-3-2.4-5.5-5.5-5.5L43.9,55.2L43.9,55.2z"/>
					<path class="st0" d="M453.3,337.8H260.2c-3.1,0-5.7-2.6-5.7-5.7V60.7c0-3.1,2.6-5.7,5.7-5.7h193.1c3.1,0,5.7,2.6,5.7,5.7v271.4
						C459,335.2,456.5,337.8,453.3,337.8z M260.2,55.2c-3,0-5.5,2.4-5.5,5.5v271.4c0,3,2.4,5.5,5.5,5.5h193.1c3,0,5.5-2.4,5.5-5.5
						V60.7c0-3-2.4-5.5-5.5-5.5L260.2,55.2L260.2,55.2z"/>
				</g>
			</g>
		</g>
		<g>
			<g>
				<rect x="270.4" y="260.5" class="st0" width="47.4" height="121.9"/>
				<polygon class="st1" points="308.8,382.4 317.8,382.4 317.8,356.8 299.4,356.8 				"/>
				<rect x="93.4" y="260.5" class="st0" width="47.4" height="121.9"/>
				<rect x="132.9" y="260.5" class="st1" width="184.8" height="106.2"/>
				<rect x="228.4" y="268.3" class="st0" width="82.4" height="66.5"/>
				<rect x="139.9" y="268.3" class="st0" width="82.4" height="66.5"/>
				<rect x="228.4" y="351.9" class="st0" width="82.4" height="4.9"/>
				<rect x="139.9" y="351.9" class="st0" width="82.4" height="4.9"/>
				<rect x="228.4" y="342.5" class="st0" width="82.4" height="4.9"/>
				<rect x="139.9" y="342.5" class="st0" width="82.4" height="4.9"/>
				<path class="st1" d="M189.3,275.4H173c-7.1,0-13.9-2.9-18.7-8.1l0,0H208l0,0C203.1,272.5,196.4,275.4,189.3,275.4z"/>
				<path class="st1" d="M278.6,275.4h-16.3c-7.1,0-13.9-2.9-18.7-8.1l0,0h53.8l0,0C292.4,272.5,285.7,275.4,278.6,275.4z"/>
				<polygon class="st1" points="141.9,382.4 132.9,382.4 132.9,356.8 151.4,356.8 				"/>
			</g>
			<g>
				<g>
					<rect x="68.3" y="74" class="st0" width="248.4" height="141.9"/>
					<path class="st0" d="M330.5,69.6H60c-0.7,0-1.3,0.6-1.3,1.3l0,0c0,0.7,0.6,1.3,1.3,1.3h270.5c0.7,0,1.3-0.6,1.3-1.3l0,0
						C331.8,70.2,331.2,69.6,330.5,69.6z"/>
					<rect x="70.9" y="74" class="st2" width="251.3" height="141.9"/>
					<rect x="68.3" y="215.9" class="st0" width="248.4" height="10.1"/>
					<rect x="80" y="215.9" class="st2" width="251.3" height="10.1"/>
					<rect x="78.5" y="81.6" class="st3" width="236.1" height="126.7"/>
					<polygon class="st4" points="195.3,208.3 240,81.6 261.2,81.6 216.4,208.3 					"/>
					<polygon class="st4" points="221,208.3 265.7,81.6 273.9,81.6 229.2,208.3 					"/>
					<rect x="313.6" y="81.6" class="st0" width="1" height="126.7"/>
				</g>
				<g>
					<rect x="65.5" y="67.3" class="st5" width="13.1" height="122.2"/>
					<rect x="73.5" y="67.3" class="st0" width="10.2" height="122.2"/>
					<rect x="78.6" y="67.3" class="st5" width="13.1" height="122.2"/>
					<rect x="86.6" y="67.3" class="st0" width="10.2" height="122.2"/>
					<rect x="91.7" y="67.3" class="st5" width="13.1" height="122.2"/>
				</g>
				<g>
					<rect x="302.2" y="67.3" class="st5" width="7.6" height="122.2"/>
					<rect x="306.8" y="67.3" class="st0" width="5.9" height="122.2"/>
					<rect x="309.7" y="67.3" class="st5" width="7.6" height="122.2"/>
					<rect x="314.3" y="67.3" class="st0" width="5.9" height="122.2"/>
					<rect x="317.3" y="67.3" class="st5" width="7.6" height="122.2"/>
				</g>
			</g>
			<g>
				<rect x="376.8" y="120.4" class="st2" width="16.8" height="45.7"/>
				<g>
					<g>
						<polygon class="st6" points="370.4,173.7 366.5,184.3 370.4,184.3 394.1,173.7 						"/>
						<polygon class="st0" points="366.5,173.7 366.5,184.3 390.3,173.7 						"/>
					</g>
					<g>
						<polygon class="st6" points="411,173.7 407.1,184.3 411,184.3 434.7,173.7 						"/>
						<polygon class="st0" points="407.1,173.7 407.1,184.3 430.8,173.7 						"/>
					</g>
					<g>
						<rect x="349.1" y="166.1" class="st0" width="25.8" height="8.1"/>
						<rect x="374.9" y="166.1" class="st6" width="73.6" height="8.1"/>
					</g>
				</g>
				<g>
					<polygon class="st0" points="421.4,166.1 380.7,166.1 375.6,110.7 416.4,110.7 					"/>
					<polygon class="st1" points="423.6,166.1 382.8,166.1 377.7,110.7 418.5,110.7 					"/>
					<polygon class="st4" points="388.3,159.9 384.4,116.8 412.9,116.8 416.9,159.9 					"/>
				</g>
			</g>
			<g>
				<path class="st0" d="M157.4,242.8c0,0-17.6-30.3,6.8-54.4c0,0,6.4,4.1,6.3,9.7c-0.1,5.6-6.8,7-5.4,11.6
					c1.4,4.7,7.8,9.2,3.6,13.1c-4.2,3.8,0.7,7.3,0.4,12C168.9,239.5,157.4,242.8,157.4,242.8z"/>
				<path class="st0" d="M158.7,245.5c0,0,7.1-34.3-23.6-49.5c0,0-4.7,5.9-2.9,11.2c1.9,5.3,8.7,4.5,8.8,9.4
					c0.1,4.9-4.5,11.2,0.7,13.6c5.2,2.3,1.7,7.1,3.4,11.5C146.9,246,158.7,245.5,158.7,245.5z"/>
				<path class="st1" d="M131.8,237.9c0,0,0.6,22.6,23,22.6s23-22.6,23-22.6L131.8,237.9L131.8,237.9z"/>
			</g>
			<g>
				<path class="st5" d="M396.4,382.4h2.3l6.5-32.2l1.1-5.6l7.1-35h27.3l14.8,72.8h2.3l-15.1-74.2c-0.1-0.5-0.6-0.9-1.1-0.9h-29.1
					c-0.5,0-1,0.4-1.1,0.9l-6.3,30.8l-1.1,5.6L396.4,382.4z"/>
				<path class="st5" d="M352.5,382.4h2.3l14.8-72.8h27.3l7.1,35.1l1.1,5.6l6.5,32.2h2.3l-7.7-37.8l-1.1-5.6l-6.3-30.8
					c-0.1-0.5-0.6-0.9-1.1-0.9h-29.1c-0.5,0-1,0.4-1.1,0.9L352.5,382.4z"/>
				<path class="st2" d="M419.8,308.4h-50.1c-9.6,0-17.4-7.7-17.6-17.2l-1.9-76.2c-0.1-7.2,5.6-13.1,12.8-13.1h31.4
					c6.5,0,12,4.9,12.7,11.4L419.8,308.4z"/>
				<path class="st2" d="M441.5,298.8h-49.1v9.6h53.4c1.4,0,2.5-1.1,2.5-2.5v-0.2C448.4,301.9,445.3,298.8,441.5,298.8z"/>
			</g>
		</g>
	</g>
</g>
<g id="Background_1" class="st7">
	<path class="st8" d="M248.6,114.3c-51.5,17.4-165-52.8-182.2,32.3c-14.2,69.8,57.2,139.9,150,163.7
		c65.9,16.9,155.3-12.1,170.5-94.2c9.5-51.3-29-109.9-59.4-121.6C289.5,79.9,282.2,103,248.6,114.3z"/>
</g>
<g id="Objects">
	<g>
		<ellipse class="st9" cx="250" cy="416.2" rx="193.9" ry="11.3"/>
		<g>
			<g>
				<path class="st10" d="M186.6,128.3C186.6,128.3,186.6,128.3,186.6,128.3C186.6,128.2,186.6,128.2,186.6,128.3
					c0-1.9-0.1-3.8-0.4-5.6c-1.5-9.2-6.5-17.2-14-22.7c-6-4.3-12.9-6.6-20.1-6.6c-0.1,0-0.2,0-0.2,0c0,0,0,0,0,0s0,0,0,0
					c-1.8,0-3.7,0.1-5.6,0.4c-9.2,1.5-17.3,6.5-22.7,14.1c-0.5,0.7-1,1.5-1.5,2.2c0,0-0.1,0.1-0.1,0.2c-3.3,5.5-5,11.6-5,18
					c0,0,0,0,0,0c0,0,0,0,0,0c0,1.8,0.1,3.7,0.4,5.6c1.5,9.2,6.5,17.2,14,22.7c6,4.3,13.1,6.6,20.3,6.6c1.9,0,3.8-0.2,5.6-0.5
					c9.2-1.5,17.2-6.5,22.7-14.1c0.5-0.7,1-1.5,1.5-2.2c0,0,0.1-0.1,0.1-0.2C184.8,140.8,186.6,134.6,186.6,128.3z M118.3,127.5
					c0.1-5.7,1.7-11.2,4.6-16.2h10.9c-1.6,4.9-2.5,10.4-2.6,16.2C131.2,127.5,118.3,127.5,118.3,127.5z M135.3,111.3h15.6v16.2
					h-18.2C132.8,121.7,133.7,116.1,135.3,111.3z M152.4,109.8V94.9c2.1,0.1,4.1,0.9,6,2.2c3.7,2.5,6.8,7,9,12.7H152.4z
					 M167.9,111.3c1.2,3.5,2,7.4,2.4,11.5c0.1,1.6,0.2,3.1,0.2,4.7h-18.2v-16.2L167.9,111.3L167.9,111.3z M148.7,95.3
					c0.7-0.2,1.5-0.3,2.2-0.4v14.9h-15C138.7,102.3,143.3,96.8,148.7,95.3z M150.9,129v16.2h-15.5c-1.2-3.5-2-7.4-2.4-11.5
					c-0.1-1.6-0.2-3.1-0.2-4.6L150.9,129L150.9,129z M150.9,146.7v14.9c-2.1-0.1-4.1-0.9-6-2.2c-3.7-2.5-6.8-7-9-12.7L150.9,146.7
					L150.9,146.7z M154.6,161.2c-0.7,0.2-1.5,0.3-2.2,0.4v-14.9h15C164.6,154.2,160.1,159.7,154.6,161.2z M152.4,145.2V129h18.2
					c-0.1,5.8-1,11.4-2.6,16.2H152.4z M172.1,129h13c-0.1,5.7-1.7,11.2-4.6,16.2h-10.9C171.1,140.3,172,134.8,172.1,129z M185,127.5
					h-13c0-1.6-0.1-3.2-0.2-4.8c-0.4-4.1-1.2-7.9-2.3-11.4h10.9c2.1,3.5,3.5,7.4,4.2,11.6C184.9,124.4,185,126,185,127.5z
					 M171.2,101.2c3.3,2.4,6.1,5.3,8.3,8.6H169c-2.2-6.2-5.6-11.1-9.7-13.9c-0.1-0.1-0.2-0.1-0.3-0.2
					C163.3,96.6,167.5,98.5,171.2,101.2z M144.3,95.7c-4.2,2.8-7.7,7.8-10,14.1h-10.5c0.2-0.4,0.5-0.7,0.7-1.1
					C129.4,102,136.4,97.5,144.3,95.7z M118.3,129h13c0,1.6,0.1,3.2,0.2,4.8c0.4,4.1,1.2,7.9,2.3,11.4h-10.9
					c-2.1-3.5-3.5-7.4-4.2-11.6C118.4,132.1,118.3,130.5,118.3,129z M123.8,146.7h10.5c2.2,6.2,5.6,11.1,9.7,13.9
					c0.1,0.1,0.2,0.1,0.3,0.2c-4.3-1-8.5-2.8-12.2-5.5C128.8,152.9,126,150,123.8,146.7z M159,160.8c4.2-2.8,7.7-7.8,10-14.1h10.5
					c-0.2,0.4-0.5,0.7-0.7,1.1C173.9,154.4,167,159,159,160.8z"/>
				<g>
					<rect x="99.9" y="144.9" class="st11" width="314.4" height="76.2"/>
					<rect x="92.8" y="152" class="st12" width="314.4" height="76.2"/>
					<rect x="85.7" y="159.1" class="st13" width="314.4" height="76.2"/>
					<rect x="100.7" y="174.1" class="st4" width="284.4" height="46.2"/>
					<rect x="337.3" y="174.1" class="st11" width="1.7" height="46.2"/>
					<rect x="107.8" y="180.4" class="st11" width="1.7" height="33.4"/>
					<g>
						<path class="st11" d="M360.4,202.9c-1.9,0-3.8-0.7-5.2-2.2c-2.9-2.9-2.9-7.6,0-10.4c2.9-2.9,7.6-2.9,10.4,0l0,0
							c2.9,2.9,2.9,7.6,0,10.4C364.2,202.2,362.3,202.9,360.4,202.9z M360.4,190.2c-1.4,0-2.8,0.5-3.8,1.6c-2.1,2.1-2.1,5.5,0,7.6
							c2.1,2.1,5.5,2.1,7.6,0c2.1-2.1,2.1-5.5,0-7.6l0,0C363.2,190.7,361.8,190.2,360.4,190.2z"/>
						<path class="st11" d="M370,206.1c-0.3,0-0.5-0.1-0.7-0.3l-5.1-5.1c-0.4-0.4-0.4-1,0-1.4s1-0.4,1.4,0l5.1,5.1
							c0.4,0.4,0.4,1,0,1.4C370.5,206,370.3,206.1,370,206.1z"/>
					</g>
				</g>
				<g>
					<rect x="261.2" y="98.9" class="st11" width="31.4" height="0.8"/>
					<rect x="261.2" y="102.2" class="st11" width="31.4" height="0.8"/>
					<rect x="261.2" y="105.5" class="st11" width="31.4" height="0.8"/>
					<rect x="261.2" y="108.8" class="st11" width="31.4" height="0.8"/>
					<rect x="261.2" y="112.1" class="st11" width="31.4" height="0.8"/>
					<rect x="261.2" y="115.4" class="st11" width="20.5" height="0.8"/>
				</g>
				<g>
					<rect x="69.8" y="241.8" class="st11" width="33.5" height="0.5"/>
					<rect x="69.8" y="244" class="st11" width="33.5" height="0.5"/>
					<rect x="69.8" y="246.1" class="st11" width="33.5" height="0.5"/>
					<rect x="69.8" y="248.2" class="st11" width="33.5" height="0.5"/>
					<rect x="69.8" y="250.3" class="st11" width="33.5" height="0.5"/>
					<rect x="69.8" y="252.4" class="st11" width="21.1" height="0.5"/>
				</g>
				<g>
					<path class="st13" d="M213.4,103.8L213.4,103.8c-3.5,0-6.3,2.8-6.3,6.3v20.8c0,3.5,2.8,6.3,6.3,6.3l0,0c3.5,0,6.3-2.8,6.3-6.3
						v-20.8C219.8,106.6,216.9,103.8,213.4,103.8z"/>
					<path class="st12" d="M229.3,91.3L229.3,91.3c-3.5,0-6.3,2.8-6.3,6.3v33.3c0,3.5,2.8,6.3,6.3,6.3l0,0c3.5,0,6.3-2.8,6.3-6.3
						V97.7C235.6,94.2,232.8,91.3,229.3,91.3z"/>
					<path class="st11" d="M245.1,116.2L245.1,116.2c-3.5,0-6.3,2.8-6.3,6.3v8.4c0,3.5,2.8,6.3,6.3,6.3l0,0c3.5,0,6.3-2.8,6.3-6.3
						v-8.4C251.4,119,248.6,116.2,245.1,116.2z"/>
				</g>
				<g>
					<g>
						<polyline class="st14" points="378.6,259.1 404.2,259.1 360.5,213.9 360.5,213.9 378.6,259.1 						"/>
					</g>
					<polygon class="st11" points="354.1,235.3 360.5,213.9 364.2,235.3 					"/>
					<polygon class="st15" points="360.5,213.9 360.5,277.2 365.1,272.7 378.6,259.1 					"/>
				</g>
				<g>
					<path class="st14" d="M405.7,78.1h-56c-5.9,0-10.7,4.8-10.7,10.7v28.9c0,5.9,4.8,10.7,10.7,10.7h41.1l-0.3,10.1l10.4-10.1h4.8
						c5.9,0,10.7-4.8,10.7-10.7V88.8C416.4,82.9,411.6,78.1,405.7,78.1z M348.5,90.4c0-1.6,1.3-3,3-3h12.9c1.6,0,3,1.3,3,3
						c0,1.6-1.3,3-3,3h-12.9C349.8,93.4,348.5,92,348.5,90.4z M402.5,118.4h-22.3c-1.6,0-3-1.3-3-3c0-1.6,1.3-3,3-3h22.3
						c1.6,0,3,1.3,3,3C405.5,117.1,404.2,118.4,402.5,118.4z M402.5,105.9h-48.1c-1.6,0-3-1.3-3-3c0-1.6,1.3-3,3-3h48.1
						c1.6,0,3,1.3,3,3C405.5,104.6,404.2,105.9,402.5,105.9z M402.5,93.4h-28.5c-1.6,0-3-1.3-3-3c0-1.6,1.3-3,3-3h28.5
						c1.6,0,3,1.3,3,3C405.5,92,404.2,93.4,402.5,93.4z"/>
				</g>
			</g>
			<g>
				<g>
					<path class="st13" d="M318.1,169.8c-2.4-6.6-6.1-12.6-10.8-17.8h-79.5c-4.6,5.1-8.3,11.1-10.8,17.8l11,54.8
						c9.3,10.1,22.3,16.6,37,17.3c16.5,0.8,31.6-6,42-17.3c8.3-9,13.5-20.8,14.2-33.9C321.6,183.3,320.5,176.3,318.1,169.8z"/>
					<path class="st4" d="M321.3,190.6c-0.6,13.1-5.9,25-14.2,33.9h-79c-9.4-10.2-14.9-23.9-14.2-38.9c0.3-5.6,1.4-10.9,3.2-15.9
						h101C320.5,176.3,321.6,183.3,321.3,190.6z"/>
					<path class="st16" d="M321.3,190.6c-0.6,13.1-5.9,25-14.2,33.9c-10.4,11.3-25.5,18-42,17.3c-14.7-0.7-27.8-7.2-37-17.3
						c-9.4-10.2-14.9-23.9-14.2-38.9c0.3-5.6,1.4-10.9,3.2-15.9c2.4-6.6,6.1-12.7,10.8-17.8c10.4-11.4,25.6-18.3,42.2-17.5
						c14.9,0.7,28,7.3,37.3,17.5c4.7,5.1,8.3,11.2,10.8,17.8C320.5,176.3,321.6,183.3,321.3,190.6z"/>
					<path class="st16" d="M297.9,143.8l-77.3,70.5c-0.4-0.7-0.8-1.4-1.1-2.2c-2.3-4.7-4-9.7-4.9-15v0l66.7-60.9
						C287.4,137.8,293,140.4,297.9,143.8z"/>
					<path class="st16" d="M318.6,171.1L246,237.3c-7.6-3.3-14.2-8.4-19.5-14.6l79.3-72.3C311.5,156.1,316,163.2,318.6,171.1z"/>
					<path class="st14" d="M321.3,157.2c-17.1-29.6-55-39.8-84.6-22.7s-39.8,55-22.7,84.6c17.1,29.6,55,39.8,84.6,22.7
						C328.3,224.7,338.4,186.8,321.3,157.2z M225.3,212.6c-13.5-23.4-5.5-53.3,17.9-66.8c23.4-13.5,53.3-5.5,66.8,17.9
						c13.5,23.4,5.5,53.3-17.9,66.8C268.7,244,238.8,236,225.3,212.6z"/>
					<g>
						<path class="st17" d="M125.1,251.9l7.7,1.8l-6.3,4.7c0,0-4.6-2.1-4.8-5.3L125.1,251.9z"/>
						<polygon class="st17" points="136.8,258.8 131.3,262.5 126.4,258.4 132.7,253.7 						"/>
					</g>
					<path class="st14" d="M223.5,220.8c-8.1,6-16.5,11.7-24.9,17.3c-8.4,5.6-16.9,11-25.4,16.3c-8.6,5.3-17.1,10.5-25.8,15.7
						c-4.3,2.6-8.7,5.1-13,7.6c-2.1,1.3-4.4,2.4-6.9,3.1c-1.3,0.3-2.6,0.6-4,0.7c-1.4,0.1-2.9,0.1-4.5-0.2c-4.4-0.9-7.3-5.2-6.5-9.7
						c0.1-0.3,0.2-0.7,0.3-1c0.5-1.6,1.3-2.8,2-4c0.8-1.2,1.6-2.2,2.6-3.1c1.8-1.9,3.9-3.3,6.1-4.5c4.4-2.5,8.7-5,13.1-7.5
						c8.8-5,17.6-9.8,26.5-14.5c8.9-4.7,17.8-9.4,26.8-13.9c9-4.5,18.1-8.9,27.4-12.9c3.1-1.4,6.8,0.1,8.2,3.2
						C226.7,216,225.7,219.1,223.5,220.8z"/>
				</g>
				<g>
					<path class="st17" d="M136.2,204.5c-0.5,0.8-1.1,1.8-1.6,2.7c-0.5,0.9-1.1,1.9-1.6,2.9c-1,1.9-2,3.9-3,5.8c-0.9,2-1.8,4-2.6,6
						c-0.4,1-0.8,2-1.2,3l-0.6,1.5c-0.1,0.3-0.1,0.4-0.2,0.6c-0.1,0.2-0.1,0.4-0.2,0.6c-0.4,1.8-0.6,3.9-0.6,6
						c-0.1,2.1,0,4.3,0.1,6.5c0.1,2.2,0.2,4.4,0.4,6.7c0.2,2.2,0.4,4.5,0.6,6.7l-3.9,0.8c-0.7-2.2-1.2-4.5-1.7-6.7
						c-0.5-2.3-0.9-4.5-1.3-6.8c-0.4-2.3-0.7-4.6-0.8-7c-0.1-2.4-0.2-4.8,0.2-7.5c0.1-0.3,0.1-0.7,0.2-1c0.1-0.3,0.2-0.8,0.3-1
						l0.5-1.7c0.3-1.1,0.7-2.3,1.1-3.4c0.8-2.2,1.6-4.4,2.6-6.6c0.9-2.1,1.9-4.3,3-6.4c0.5-1,1.1-2.1,1.7-3.1c0.6-1,1.2-2,1.9-3.1
						L136.2,204.5z"/>
					<path class="st12" d="M131.9,411c-0.7,0-1.5-0.1-2.1-0.3c-0.1,0-0.1-0.1-0.1-0.1s0-0.1,0.1-0.2c0.3-0.2,2.6-1.7,3.5-1.3
						c0.1,0.1,0.3,0.2,0.4,0.5c0.1,0.4,0,0.7-0.3,1C133,410.9,132.5,411,131.9,411z M130.4,410.5c1.4,0.3,2.4,0.2,2.8-0.1
						c0.2-0.2,0.2-0.4,0.2-0.7c0-0.2-0.1-0.2-0.2-0.2C132.7,409.2,131.3,409.9,130.4,410.5z"/>
					<path class="st12" d="M129.9,410.7C129.8,410.7,129.8,410.7,129.9,410.7c-0.2-0.1-0.2-0.1-0.2-0.2c0-0.1,0-2.3,0.9-3.1
						c0.2-0.2,0.5-0.3,0.8-0.2c0.5,0.1,0.6,0.3,0.6,0.5C132.1,408.6,130.7,410.3,129.9,410.7C129.9,410.7,129.9,410.7,129.9,410.7z
						 M131.2,407.6c-0.2,0-0.3,0.1-0.4,0.2c-0.5,0.4-0.7,1.7-0.7,2.5c0.7-0.6,1.6-1.9,1.5-2.4C131.6,407.7,131.5,407.6,131.2,407.6
						C131.3,407.6,131.2,407.6,131.2,407.6z"/>
					<path class="st12" d="M167.3,411c-0.9,0-1.8-0.1-2.4-0.3c-0.1,0-0.1-0.1-0.1-0.2c0-0.1,0-0.2,0.1-0.2c0.4-0.2,3.5-1.8,4.4-1.2
						c0.2,0.1,0.3,0.3,0.3,0.5c0,0.4-0.1,0.7-0.3,0.9C168.8,410.9,168.1,411,167.3,411z M165.5,410.5c1.7,0.3,3,0.2,3.5-0.2
						c0.2-0.1,0.2-0.3,0.2-0.6c0-0.1,0-0.2-0.1-0.2C168.5,409.2,166.7,409.9,165.5,410.5z"/>
					<path class="st12" d="M164.9,410.7c0,0-0.1,0-0.1,0c-0.1,0-0.1-0.1-0.1-0.2c0-0.1,0.2-2.2,1.2-3c0.3-0.2,0.6-0.4,1-0.3
						c0.5,0.1,0.7,0.3,0.7,0.5C167.7,408.6,165.9,410.3,164.9,410.7C164.9,410.7,164.9,410.7,164.9,410.7z M166.7,407.6
						c-0.2,0-0.4,0.1-0.6,0.2c-0.6,0.5-0.9,1.8-1,2.4c0.9-0.6,2.2-1.9,2.1-2.4c0,0,0-0.2-0.4-0.2
						C166.8,407.6,166.8,407.6,166.7,407.6z"/>
					<path class="st17" d="M148,174.5c0.6,4.7,2,14.1-1.4,17c0,0,1,4.8,9.5,5.3c9.4,0.6,4.8-4.4,4.8-4.4c-5.1-1.6-4.7-5.4-3.6-8.9
						L148,174.5z"/>
					<path class="st18" d="M165.5,165c-0.1,0-0.1,0-0.2,0c-0.2-0.1-0.2-0.3-0.1-0.5c1-1.8,2.7-2,2.7-2c0.2,0,0.4,0.1,0.4,0.3
						c0,0.2-0.1,0.4-0.3,0.4l0,0c-0.1,0-1.4,0.1-2.1,1.6C165.7,164.9,165.6,165,165.5,165z"/>
					<path class="st19" d="M168.2,169.1c0,0,1.3,2.6,2.6,3.8c-0.8,0.8-2.2,0.6-2.2,0.6L168.2,169.1z"/>
					<path class="st18" d="M167.5,168.1c0.1,0.6,0.4,1.1,0.8,1.1s0.7-0.6,0.6-1.2s-0.4-1.1-0.8-1.1
						C167.7,166.9,167.4,167.5,167.5,168.1z"/>
					<path class="st18" d="M168,166.9l1.5-0.6C169.4,166.4,168.8,167.6,168,166.9z"/>
					<polygon class="st17" points="156.3,410.5 164.1,410.5 164.6,392.5 156.9,392.5 					"/>
					<polygon class="st17" points="121,410.5 128.7,410.5 131.3,392.5 123.5,392.5 					"/>
					<path class="st20" d="M129.2,409.6h-8.7c-0.3,0-0.6,0.2-0.6,0.5l-1,6.9c-0.1,0.7,0.5,1.4,1.2,1.4c3-0.1,4.5-0.2,8.4-0.2
						c2.4,0,5.8,0.2,9.1,0.2c3.2,0,3.4-3.2,2.1-3.5c-6.1-1.3-7.1-3.1-9.1-4.8C130.2,409.8,129.7,409.6,129.2,409.6z"/>
					<path class="st20" d="M164.4,409.6h-8.7c-0.3,0-0.6,0.2-0.6,0.5l-1,6.9c-0.1,0.7,0.5,1.4,1.2,1.4c3-0.1,4.5-0.2,8.4-0.2
						c2.4,0,7.3,0.2,10.5,0.2c3.2,0,3.4-3.2,2.1-3.5c-6.1-1.3-8.5-3.1-10.6-4.8C165.3,409.8,164.8,409.6,164.4,409.6z"/>
					<g>
						<polygon class="st21" points="164.6,392.5 164.4,401.8 156.6,401.8 156.8,392.5 						"/>
						<polygon class="st21" points="123.5,392.5 131.3,392.5 130,401.8 122.2,401.8 						"/>
					</g>
					<path class="st11" d="M139.5,205.7c-2,3.3-5.1,6.4-5.1,6.4l-0.9-0.6l-9.9-6.6c0,0,5.4-11.9,9.4-12.6c3.9-0.6,6.7,3.4,8,7.7
						C141.6,201.6,140.7,203.7,139.5,205.7z"/>
					<path class="st22" d="M139.5,205.7c-2,3.3-5.1,6.4-5.1,6.4l-0.9-0.6c0.4-3.6,1.8-7.2,3.4-8.3
						C137.9,203.4,138.8,204.4,139.5,205.7z"/>
					<path class="st11" d="M173.2,211.7L173.2,211.7c-0.5,3-1.1,6.5-1.9,10.7c-1,5.4-2.4,11.8-4.2,19.5c-12.5-0.8-25.5-1.7-31.6-2.1
						c1.4-12.8,1.9-20.7-2.5-47.5c0,0,6.7-1,13.5-0.9c5.3,0.1,9.7,0.2,14.3,0.9c6.1,1,13,2.8,13,2.8S175.6,196,173.2,211.7z"/>
					<path class="st22" d="M173.2,211.7L173.2,211.7c-0.5,3-1.1,6.5-1.9,10.7c-1.3-2.6-3.2-7.7-4.3-11.4h5.9L173.2,211.7z"/>
					<path class="st17" d="M146.3,167.9c1.2,7.6,1.5,10.9,5.8,14.5c6.4,5.4,15.5,2.2,16.6-5.6c1-7.1-1.1-18.4-8.9-20.7
						C152.1,153.8,145.1,160.3,146.3,167.9z"/>
					<path class="st12" d="M158.8,241.4c0,0-0.5,13.9-1.7,31.4c-1,14.7-2.5,31.9-4.6,45.7c0,0.1,0,0.3-0.1,0.4
						c-3.8,24.3-20.6,81.2-20.6,81.2h-10.6c0,0,8.7-54.9,10.7-79c4.9-60.9-7.3-67.8,3.7-81.2L158.8,241.4z"/>
					<path class="st23" d="M157.1,272.8c-1,14.7-2.5,31.9-4.6,45.7c-3.6-17.9-9.5-43.9-1.6-61C152.8,262.3,155,267.8,157.1,272.8z"
						/>
					<path class="st12" d="M167.1,241.9c0,0,9,53.3,8.5,77.1c-0.5,24.7-9.6,81-9.6,81h-10.5c0,0,1.7-54.9,0.7-79.1
						c-1-26.4-12.2-80.5-12.2-80.5L167.1,241.9z"/>
					<polygon class="st18" points="153.7,400.5 167.8,400.5 168.9,395.8 153.2,395.9 					"/>
					<polygon class="st18" points="119.7,400.5 133.8,400.5 134.9,395.8 119.8,395.9 					"/>
					<path class="st18" d="M135.2,238l-1.6,2.7c-0.1,0.2,0.1,0.5,0.5,0.5l33.1,2.1c0.3,0,0.5-0.1,0.6-0.3l0.5-2.8
						c0-0.2-0.2-0.4-0.5-0.4l-31.9-2.1C135.5,237.8,135.3,237.8,135.2,238z"/>
					<path class="st12" d="M139.3,241.8l-0.9-0.1c-0.2,0-0.3-0.1-0.3-0.2l0.6-3.6c0-0.1,0.2-0.2,0.3-0.2l0.9,0.1
						c0.2,0,0.3,0.1,0.3,0.2l-0.6,3.6C139.6,241.8,139.5,241.8,139.3,241.8z"/>
					<path class="st12" d="M160,243.2l-0.9-0.1c-0.2,0-0.3-0.1-0.3-0.2l0.6-3.6c0-0.1,0.2-0.2,0.3-0.2l0.9,0.1
						c0.2,0,0.3,0.1,0.3,0.2l-0.6,3.6C160.4,243.1,160.2,243.2,160,243.2z"/>
					<path class="st17" d="M175.7,203.3c1.2,4,2.3,8,3.4,12.1l3.3,12.1l0.4,1.5l0.1,0.4l0.1,0.2l0,0.1c0.1,0.1,0.1,0.3,0.1,0.4
						c0.2,0.5,0.6,1.1,1,1.7c1,1.1,2.5,2.2,4.1,3.2c3.3,1.9,7.2,3.3,11,4.4l-0.6,3.9c-4.5-0.3-8.7-1.1-13.1-2.8
						c-2.1-0.9-4.3-2-6.3-3.9c-1-0.9-1.9-2.1-2.6-3.4c-0.2-0.3-0.3-0.7-0.5-1.1l-0.1-0.3l-0.1-0.2l-0.1-0.4l-0.5-1.5
						c-1.4-4-2.7-8-3.9-12.1c-1.3-4-2.4-8.1-3.5-12.1L175.7,203.3z"/>
					<path class="st11" d="M173.9,195.3c4,1.3,8.2,14.4,8.2,14.4l-14.4,6.2c0,0-6-14.7-3.3-18C167.1,194.3,169.3,193.8,173.9,195.3z
						"/>
					<path class="st18" d="M166.2,155.7c-2.6-3.2-22.3-5.4-23.3,3.2c-7,4.9-0.4,17.6,0.6,20.8c-4.8,1.3-20.4,6.7-9.1,17
						c11.3,10.3,28.5,8.6,31.8-2.1c2.3-7.5-5.1-20-4.9-24.4C161.5,165.7,170.5,161,166.2,155.7z"/>
					<path class="st18" d="M144.9,181.2c-0.1,0-0.1,0-0.2-0.1c-1.8-2.2-8.1-13.8-5.9-19.3c0.7-1.7,2.1-2.7,4.2-3
						c0.1,0,0.3,0.1,0.3,0.2c0,0.1-0.1,0.3-0.2,0.3c-1.9,0.2-3.2,1.1-3.8,2.7c-2.1,5.3,4,16.6,5.8,18.8c0.1,0.1,0.1,0.3,0,0.4
						C145,181.2,144.9,181.2,144.9,181.2z"/>
					<path class="st17" d="M159.8,169.6c0.2,1.5,1,2.9,2,3.8c1.4,1.4,2.8,0.4,2.9-1.3c0.1-1.6-0.5-4.1-2.2-4.8
						C160.9,166.6,159.6,167.9,159.8,169.6z"/>
				</g>
				<path class="st17" d="M194.4,238.2l5.7-1.9l-0.9,6.8c0,0-2.2,1-5.1-1.5l-2.8-1.8l2.2-1.2C193.7,238.5,194.1,238.4,194.4,238.2z"
					/>
				<polygon class="st17" points="204,236.3 202.3,242.3 199.2,243.1 200.1,236.3 				"/>
			</g>
		</g>
	</g>
</g>
<g id="Designed_by_Freepik" class="st7">
	<g class="st24">
		<g>
			<g id="XMLID_197_">
				<g id="XMLID_216_">
					<path id="XMLID_224_" class="st25" d="M261.4,464.9c-0.5,0.5-0.9,1.1-1.3,1.6l-0.5-0.3c-0.1-0.3-0.4-0.6-0.7-0.5
						c-0.4,0-0.6,0.4-0.6,0.8s0.4,0.6,0.8,0.6c0.1,0,0.1,0,0.2-0.1l0.5,0.3c-0.3,0.6-0.5,1.3-0.6,2l0.8,0.1c0.3-1.5,1-2.8,2-3.9
						L261.4,464.9z"/>
					<path id="XMLID_223_" class="st25" d="M267.7,462.3c-0.2,0-0.4,0-0.6,0l-0.1-0.7c0.2-0.2,0.3-0.4,0.3-0.7
						c-0.1-0.4-0.5-0.8-0.9-0.7s-0.8,0.5-0.7,0.9c0,0.3,0.2,0.5,0.5,0.6l0.1,0.7c-0.8,0.1-1.6,0.4-2.3,0.7l0.4,0.8
						c1.1-0.5,2.2-0.8,3.4-0.8c0.6,0,1.1,0.1,1.7,0.2l0.2-0.8C268.9,462.4,268.3,462.3,267.7,462.3z"/>
					<path id="XMLID_222_" class="st25" d="M275.1,465.2c0.4,0,0.6-0.4,0.6-0.8c0-0.4-0.4-0.6-0.8-0.6c-0.4,0-0.6,0.3-0.6,0.7
						l-0.5,0.4c-0.5-0.5-1-0.9-1.6-1.3l-0.5,0.7c1.3,0.8,2.3,2,2.9,3.3l0.8-0.4c-0.3-0.6-0.6-1.2-1.1-1.8l0.5-0.4
						C275,465.2,275.1,465.2,275.1,465.2z"/>
					<path id="XMLID_221_" class="st25" d="M267,473.8c-0.4,0-0.9,0-1.3,0c-1,0-2-0.1-2.8-0.2c-0.4-0.1-1-0.2-1.4-0.3
						c1.2,2.1,3.5,3.5,6.1,3.5c3.2,0,6-2.2,6.7-5.1c-0.8,0.5-1.7,0.9-2.8,1.3C270.2,473.5,268.6,473.7,267,473.8z"/>
					<path id="XMLID_217_" class="st25" d="M267.7,464c-3.8,0-6.9,3-6.9,6.7c0,0.5,0.1,1,0.2,1.4c0.8,0.5,3.1,1,6.1,0.8
						c3.3-0.2,6-1.1,7.6-2.4c0-0.2,0-0.4-0.1-0.7C274.1,466.5,271.1,464,267.7,464z M265.2,471.4c-1.2,0-2.1-0.9-2.1-2.1
						s0.9-2.1,2.1-2.1s2.1,0.9,2.1,2.1S266.4,471.4,265.2,471.4z M270.6,470.4c-0.8,0-1.5-0.7-1.5-1.5s0.7-1.5,1.5-1.5
						s1.5,0.7,1.5,1.5C272.1,469.7,271.4,470.4,270.6,470.4z"/>
				</g>
				<path id="XMLID_214_" class="st25" d="M285.8,466.1c-0.3-0.1-0.9-0.4-1.6-0.3c-0.6,0.1-1,0.4-1,1.1v1h2.5v1.9h-2.5v6.2h-2.2
					v-6.2h-1.5V468h1.5v-1c0-1.9,1-3.2,2.9-3.2c0.7,0,1.3,0.1,1.8,0.3L285.8,466.1z"/>
				<path id="XMLID_212_" class="st25" d="M291.1,469.9c-0.2,0-0.4-0.1-0.6-0.1c-1,0-1.7,0.6-1.7,1.8v4.4h-2.2V468h2.1v0.9
					c0.5-0.8,1.3-1.1,2.3-1.1c0.5,0,1,0.1,1.2,0.4L291.1,469.9z"/>
				<path id="XMLID_209_" class="st25" d="M299.8,472c0,0.3,0,0.6,0,0.7H294c0.2,1.2,1.1,1.7,2.1,1.7c0.7,0,1.5-0.3,2.1-0.8l1.3,1.4
					c-0.9,0.8-2.1,1.2-3.5,1.2c-2.5,0-4.2-1.7-4.2-4.2s1.7-4.3,4.1-4.3C298.2,467.8,299.8,469.5,299.8,472z M294,471.3h3.6
					c-0.2-1-0.8-1.6-1.8-1.6C294.8,469.6,294.2,470.3,294,471.3z"/>
				<path id="XMLID_206_" class="st25" d="M308.5,472c0,0.3,0,0.6,0,0.7h-5.8c0.2,1.2,1.1,1.7,2.1,1.7c0.7,0,1.5-0.3,2.1-0.8
					l1.3,1.4c-0.9,0.8-2.1,1.2-3.5,1.2c-2.5,0-4.2-1.7-4.2-4.2s1.7-4.3,4.1-4.3C306.8,467.8,308.4,469.5,308.5,472z M302.7,471.3
					h3.6c-0.2-1-0.8-1.6-1.8-1.6C303.5,469.6,302.9,470.3,302.7,471.3z"/>
				<path id="XMLID_203_" class="st25" d="M317.9,472c0,2.4-1.7,4.3-3.9,4.3c-1.1,0-1.9-0.4-2.4-1.1v4.2h-2.2V468h2.1v0.9
					c0.5-0.7,1.3-1.1,2.4-1.1C316.2,467.8,317.9,469.6,317.9,472z M311.5,472c0,1.3,0.8,2.2,2.1,2.2c1.3,0,2.1-1,2.1-2.2
					c0-1.2-0.8-2.2-2.1-2.2C312.3,469.8,311.5,470.7,311.5,472z"/>
				<path id="XMLID_200_" class="st25" d="M321.4,465.3c0,0.8-0.6,1.4-1.4,1.4s-1.4-0.6-1.4-1.4s0.6-1.4,1.4-1.4
					C320.8,463.9,321.4,464.5,321.4,465.3z M321.1,476.1h-2.2V468h2.2V476.1z"/>
				<path id="XMLID_198_" class="st25" d="M324.8,470.9l3.1-2.9h2.7l-3.9,3.8l4,4.3h-2.7l-3.1-3.3v3.3h-2.2V464h2.2V470.9z"/>
			</g>
			<g>
				<path class="st25" d="M175.7,476v-1.2c-0.6,0.8-1.6,1.4-2.7,1.4c-2.1,0-3.6-1.6-3.6-4.2c0-2.6,1.5-4.2,3.6-4.2
					c1.1,0,2.1,0.5,2.7,1.4V465h1.2V476L175.7,476L175.7,476z M175.7,473.8v-3.6c-0.4-0.7-1.4-1.3-2.4-1.3c-1.6,0-2.6,1.3-2.6,3.1
					s1,3.1,2.6,3.1C174.3,475.1,175.3,474.5,175.7,473.8z"/>
				<path class="st25" d="M178.6,472c0-2.3,1.7-4.2,3.9-4.2c2.4,0,3.8,1.9,3.8,4.3v0.3h-6.5c0.1,1.5,1.2,2.8,2.9,2.8
					c0.9,0,1.8-0.4,2.5-1l0.6,0.8c-0.8,0.8-1.9,1.2-3.2,1.2C180.3,476.2,178.6,474.5,178.6,472z M182.5,468.8
					c-1.7,0-2.6,1.4-2.6,2.7h5.3C185.1,470.3,184.3,468.8,182.5,468.8z"/>
				<path class="st25" d="M187.3,475l0.6-0.9c0.5,0.6,1.5,1.1,2.6,1.1c1.2,0,1.9-0.6,1.9-1.4c0-1.9-5-0.7-5-3.7c0-1.2,1.1-2.3,3-2.3
					c1.4,0,2.3,0.5,3,1.2l-0.6,0.9c-0.5-0.6-1.4-1-2.4-1c-1.1,0-1.8,0.5-1.8,1.3c0,1.8,5,0.6,5,3.7c0,1.3-1.1,2.4-3.2,2.4
					C189.2,476.2,188.1,475.8,187.3,475z"/>
				<path class="st25" d="M195.1,466c0-0.5,0.4-0.8,0.8-0.8c0.5,0,0.8,0.4,0.8,0.8s-0.4,0.8-0.8,0.8
					C195.4,466.9,195.1,466.5,195.1,466z M195.3,476v-8h1.2v8H195.3z"/>
				<path class="st25" d="M198.6,478.1l0.6-0.9c0.7,0.8,1.5,1.1,2.6,1.1c1.3,0,2.6-0.6,2.6-2.4v-1.1c-0.6,0.8-1.6,1.4-2.7,1.4
					c-2.1,0-3.6-1.6-3.6-4.1c0-2.6,1.5-4.2,3.6-4.2c1.1,0,2,0.5,2.7,1.4V468h1.2v7.8c0,2.7-1.9,3.5-3.8,3.5
					C200.4,479.3,199.5,479,198.6,478.1z M204.4,473.7v-3.5c-0.4-0.7-1.4-1.3-2.4-1.3c-1.6,0-2.6,1.3-2.6,3.1c0,1.8,1,3.1,2.6,3.1
					C203,475,203.9,474.4,204.4,473.7z"/>
				<path class="st25" d="M213.1,476v-5.2c0-1.4-0.7-1.9-1.8-1.9c-1,0-1.9,0.6-2.4,1.2v5.9h-1.2v-8h1.2v1.2c0.6-0.7,1.7-1.4,2.9-1.4
					c1.7,0,2.6,0.8,2.6,2.6v5.6L213.1,476L213.1,476z"/>
				<path class="st25" d="M216,472c0-2.3,1.7-4.2,3.9-4.2c2.4,0,3.8,1.9,3.8,4.3v0.3h-6.5c0.1,1.5,1.2,2.8,2.9,2.8
					c0.9,0,1.8-0.4,2.5-1l0.6,0.8c-0.8,0.8-1.9,1.2-3.2,1.2C217.7,476.2,216,474.5,216,472z M219.9,468.8c-1.7,0-2.6,1.4-2.6,2.7
					h5.3C222.5,470.3,221.7,468.8,219.9,468.8z"/>
				<path class="st25" d="M231.1,476v-1.2c-0.6,0.8-1.6,1.4-2.7,1.4c-2.1,0-3.6-1.6-3.6-4.2c0-2.6,1.5-4.2,3.6-4.2
					c1.1,0,2.1,0.5,2.7,1.4V465h1.2V476L231.1,476L231.1,476z M231.1,473.8v-3.6c-0.4-0.7-1.4-1.3-2.4-1.3c-1.6,0-2.6,1.3-2.6,3.1
					s1,3.1,2.6,3.1C229.7,475.1,230.7,474.5,231.1,473.8z"/>
				<path class="st25" d="M238.3,476V465h1.2v4.3c0.6-0.9,1.6-1.4,2.7-1.4c2.1,0,3.6,1.7,3.6,4.2c0,2.6-1.5,4.2-3.6,4.2
					c-1.1,0-2.1-0.6-2.7-1.4v1.2L238.3,476L238.3,476z M242,475.1c1.6,0,2.6-1.3,2.6-3.1s-1-3.1-2.6-3.1c-1,0-2,0.6-2.4,1.3v3.6
					C240,474.5,241,475.1,242,475.1z"/>
				<path class="st25" d="M247.2,478c0.2,0.1,0.5,0.1,0.7,0.1c0.5,0,0.9-0.2,1.2-0.8l0.5-1.2l-3.4-8.1h1.3l2.7,6.6l2.7-6.6h1.4
					l-4,9.6c-0.5,1.2-1.3,1.6-2.4,1.6c-0.3,0-0.7,0-0.9-0.1L247.2,478z"/>
			</g>
		</g>
	</g>
</g>
</svg>
